<?xml version="1.0" encoding="utf-8"?>
<!-- Generator: Adobe Illustrator 25.0.1, SVG Export Plug-In . SVG Version: 6.00 Build 0)  -->
<svg version="1.1" id="Layer_1" xmlns="http://www.w3.org/2000/svg" xmlns:xlink="http://www.w3.org/1999/xlink" x="0px" y="0px"
	 viewBox="0 0 32 32" style="enable-background:new 0 0 32 32;" xml:space="preserve">
<style type="text/css">
	.st0{fill:#FFFFFF;}
</style>
<path class="st0" d="M28.6,0H3.4C1.5,0,0,1.5,0,3.4v25.1C0,30.5,1.5,32,3.4,32h9.8V21.1H8.7V16h4.5v-3.9c0-4.4,2.6-6.9,6.7-6.9
	c1.9,0,4,0.3,4,0.3v4.4h-2.2c-2.2,0-2.9,1.4-2.9,2.8V16h4.9l-0.8,5.1h-4.1V32h9.8c1.9,0,3.4-1.5,3.4-3.4V3.4C32,1.5,30.5,0,28.6,0z"
	/>
</svg>
