<svg xmlns="http://www.w3.org/2000/svg" width="283.5" height="283.4" viewBox="0 0 283.5 283.4"><path d="M279.8,141.7A138.1,138.1,0,1,1,141.7,3.6,138.06,138.06,0,0,1,279.8,141.7Z" fill="#fff"/><path d="M233.4,141.7a91.6,91.6,0,1,1-91.6-91.6A91.59,91.59,0,0,1,233.4,141.7Z" fill="#ac920e"/><path d="M0,141.7A141.78,141.78,0,0,1,141.7,0h0C220,0,283.5,63.5,283.5,141.7h0A141.71,141.71,0,0,1,141.8,283.4h0A141.67,141.67,0,0,1,0,141.7ZM45.5,45.5A135.24,135.24,0,0,0,5.6,141.7h0A135.65,135.65,0,0,0,45.5,238h0a135.89,135.89,0,0,0,96.3,39.9h0A135.65,135.65,0,0,0,238.1,238h0A135.89,135.89,0,0,0,278,141.7h0a135.65,135.65,0,0,0-39.9-96.3h0A135.89,135.89,0,0,0,141.8,5.5h0a135.8,135.8,0,0,0-96.3,40Z" fill="#ac920e"/><polygon points="142.5 37.1 129.7 47.7 135.7 32.2 121.7 23.2 138.3 24.2 142.5 8.2 146.7 24.2 163.3 23.2 149.3 32.2 155.3 47.7 142.5 37.1" fill="#ac920e"/><polygon points="185.2 46.4 169.3 51.2 180.8 39.2 171.3 25.6 186.2 32.9 196.3 19.7 194 36.1 209.7 41.6 193.3 44.4 193 61.1 185.2 46.4" fill="#ac920e"/><polygon points="217.8 70.3 201.3 68.7 216.5 62 212.9 45.8 223.9 58.2 238.2 49.8 229.9 64.1 242.3 75.1 226.1 71.6 219.4 86.8 217.8 70.3" fill="#ac920e"/><polygon points="65.4 70.3 63.8 86.9 57.1 71.7 40.9 75.3 53.3 64.2 44.8 49.9 59.2 58.3 70.2 45.8 66.7 62.1 81.9 68.6 65.4 70.3" fill="#ac920e"/><polygon points="101.4 45.1 93.9 59.9 93.2 43.3 76.8 40.8 92.4 35 89.7 18.6 100 31.7 114.8 24.1 105.6 37.9 117.4 49.6 101.4 45.1" fill="#ac920e"/><path d="M231.3,83.5v1h-1.9v4.9h-1.2V84.5h-1.9v-1Zm6.4,5.9-.2-3.5V84.3h-.1c-.2.5-.3,1.2-.5,1.8l-1.1,3.3h-1.2L233.5,86c-.1-.5-.3-1.1-.4-1.7H233v1.6l-.2,3.5h-1.1l.4-5.9h1.8l1,2.9a11.31,11.31,0,0,0,.4,1.5h0a8.33,8.33,0,0,0,.4-1.5l1-2.9h1.7l.5,5.9Z" fill="#ac920e"/><path d="M84.6,100.2v16.4H81V100.2H76.4V96.6H89.2v3.6Z" fill="#fff"/><path d="M93.8,104.9h6.5V96.7h3.6v20h-3.6v-8.3H93.8v8.3H90.2v-20h3.6Z" fill="#fff"/><path d="M116,100.2h-6.7v4.7h6.5v3.4h-6.5V113h7.5v3.7H105.7V96.6H116Z" fill="#fff"/><path d="M135.5,96.4l1.4.1,1.2.3,1.3.5,1.1.5,1.3.9,1.3,1-2.5,2.6-1.4-1.2-.6-.3-.6-.3a1.42,1.42,0,0,1-.6-.2c-.2-.1-.4-.1-.6-.2h.1a1.7,1.7,0,0,1-.7-.1c-.2,0-.5-.1-.7-.1a1.7,1.7,0,0,0-.7.1c-.2,0-.5.1-.7.1h.1c-.2.1-.4.1-.6.2s-.4.1-.6.2l-.6.3-.6.3-.5.5-.5.5a1.76,1.76,0,0,0-.4.5c-.1.2-.3.3-.4.5l-.3.6-.3.6c-.1.2-.1.4-.2.6s-.1.4-.2.6a1.7,1.7,0,0,1-.1.7c0,.2-.1.5-.1.7a1.27,1.27,0,0,0,.1.6c0,.2.1.4.1.7s.1.4.2.6.1.4.2.6l.3.6.3.6a1.76,1.76,0,0,1,.4.5c.1.2.3.3.4.5l1,.9.6.3a2.19,2.19,0,0,1,.5.3,1.42,1.42,0,0,1,.6.2c.2.1.4.1.6.2H134a1.7,1.7,0,0,1,.7.1c.2,0,.5.1.7.1a2,2,0,0,0,.7-.1c.2,0,.5-.1.7-.1h-.1c.2-.1.4-.1.6-.2s.4-.1.6-.2a1.63,1.63,0,0,1,.6-.3l.6-.3a1.76,1.76,0,0,1,.5-.4c.2-.1.3-.3.5-.4s.3-.3.4-.5a1.21,1.21,0,0,1,.5-.5h0l.3-.6.3-.6c0-.1.1-.2.1-.4s.1-.3.1-.4h-4.6v-3.4h8.4l.1,1.8-.1,1.4-.3,1.2-.5,1.3-.5,1.1-.8,1.2-.8,1-1.1.9-1,.7-1.4.7-1.1.4-1.3.2h-2.7l-1.3-.2-1.1-.4-1.4-.7-1-.7-1.1-.9-.8-1-.8-1.2-.5-1.1-.4-1.3-.3-1.2-.1-1.4.1-1.5.3-1.2.5-1.4.5-1.1.8-1.2.8-1,1-.8,1.2-.8,1.1-.5,1.4-.5,1.2-.3Z" fill="#fff"/><path d="M157.2,96.4a11,11,0,0,1,4,.8,11.9,11.9,0,0,1,3.3,2.2,9.55,9.55,0,0,1,2.2,3.3,10.57,10.57,0,0,1,.8,4,10.06,10.06,0,0,1-.8,3.9,11.9,11.9,0,0,1-2.2,3.3,10.26,10.26,0,0,1-14.5,0,11.2,11.2,0,0,1-2.2-3.3,10.19,10.19,0,0,1-.8-4,10.57,10.57,0,0,1,.8-4,11.9,11.9,0,0,1,2.2-3.3,9.55,9.55,0,0,1,3.3-2.2A12.27,12.27,0,0,1,157.2,96.4Zm4.7,5.6a6.52,6.52,0,0,0-9.4,0,6.41,6.41,0,0,0-1.9,4.7,6.55,6.55,0,0,0,.5,2.5,6.43,6.43,0,0,0,3.5,3.5,7,7,0,0,0,5.2,0,6.43,6.43,0,0,0,3.5-3.5,7.51,7.51,0,0,0,.5-2.6A6.35,6.35,0,0,0,161.9,102Z" fill="#fff"/><path d="M179.1,96.4a11,11,0,0,1,4,.8,11.9,11.9,0,0,1,3.3,2.2,8.34,8.34,0,0,1,2.2,3.3,10.57,10.57,0,0,1,.8,4,10.06,10.06,0,0,1-.8,3.9,11.9,11.9,0,0,1-2.2,3.3,10.26,10.26,0,0,1-14.5,0,11.2,11.2,0,0,1-2.2-3.3,10.19,10.19,0,0,1-.8-4,10.57,10.57,0,0,1,.8-4,11.9,11.9,0,0,1,2.2-3.3,8.34,8.34,0,0,1,3.3-2.2A11.78,11.78,0,0,1,179.1,96.4Zm4.7,5.6a6.52,6.52,0,0,0-9.4,0,6.41,6.41,0,0,0-1.9,4.7,6.55,6.55,0,0,0,.5,2.5,6.43,6.43,0,0,0,3.5,3.5,7,7,0,0,0,5.2,0,6.43,6.43,0,0,0,3.5-3.5,7.51,7.51,0,0,0,.5-2.6A6.78,6.78,0,0,0,183.8,102Z" fill="#fff"/><path d="M191,116.7V96.6h5.5a10.06,10.06,0,0,1,3.9.8,8.75,8.75,0,0,1,3.2,2.2,9.51,9.51,0,0,1,2.9,7.1,9.9,9.9,0,0,1-3,7.1,9.88,9.88,0,0,1-3.2,2.1,10.06,10.06,0,0,1-3.9.8Zm3.6-3.6h1.9a7,7,0,0,0,2.5-.5,6.43,6.43,0,0,0,3.5-3.5,6.5,6.5,0,0,0,0-5,6.43,6.43,0,0,0-3.5-3.5,7,7,0,0,0-2.5-.5h-1.9Z" fill="#fff"/><path d="M75.9,122v13.4a2.77,2.77,0,0,0,.3,1.3,3.51,3.51,0,0,0,1.7,1.7,2.54,2.54,0,0,0,1.2.2,2.66,2.66,0,0,0,1.2-.3,3.51,3.51,0,0,0,1.7-1.7,2.77,2.77,0,0,0,.3-1.3V122h3.6v13.4a7.51,7.51,0,0,1-.5,2.6,7.82,7.82,0,0,1-1.5,2.2,7.12,7.12,0,0,1-2.2,1.5,5.75,5.75,0,0,1-2.6.5,7,7,0,0,1-4.8-1.9,7.12,7.12,0,0,1-1.5-2.2,5.92,5.92,0,0,1-.5-2.7V122Z" fill="#fff"/><path d="M87.6,142V122H91l7.1,12.2V122h3.6v20H98.4l-7.2-12.3V142Z" fill="#fff"/><path d="M107.1,122v20h-3.6V122Z" fill="#fff"/><path d="M122.7,122l-5.9,20h-3.1l-5.9-20h3.5l4,13.5c.7-2.3,1.3-4.5,2-6.8s1.3-4.5,2-6.7Z" fill="#fff"/><path d="M134,125.6h-6.7v4.7h6.5v3.4h-6.5v4.7h7.5v3.7H123.7V122H134Z" fill="#fff"/><path d="M144.9,142l-4.9-9.2-.2-.5V142h-3.6V121.9h5.4a5.93,5.93,0,0,1,2.3.5,6.25,6.25,0,0,1,3.2,3.2,5.93,5.93,0,0,1,.5,2.3,6.81,6.81,0,0,1-.8,3.1,5.65,5.65,0,0,1-2.4,2.2c.4.7.8,1.4,1.2,2.2s.8,1.5,1.2,2.3.8,1.5,1.2,2.3.8,1.5,1.1,2.1h-4.2Zm-3.3-11.9a2.92,2.92,0,0,0,.9-.2,1.79,1.79,0,0,0,.7-.5,3,3,0,0,0,.5-.7,2.92,2.92,0,0,0,.2-.9,2.27,2.27,0,0,0-.6-1.6,2.36,2.36,0,0,0-1.6-.7h-1.8v4.6Z" fill="#fff"/><path d="M160.9,127.6a17.34,17.34,0,0,0-1.8-1.9,2.81,2.81,0,0,0-1.1-.5,7.77,7.77,0,0,0-1.6-.2,3.75,3.75,0,0,0-1.1.1,2.47,2.47,0,0,0-.9.4,1.7,1.7,0,0,0-.6.6,1.08,1.08,0,0,0-.2.8c0,.6.7,1.3,2.2,2a26,26,0,0,1,2.4,1.3c.7.4,1.4.9,2,1.3a4.85,4.85,0,0,1,2,4.3,7.51,7.51,0,0,1-.5,2.6,6,6,0,0,1-1.4,2.1,7.71,7.71,0,0,1-2.1,1.4,7,7,0,0,1-2.5.5,6.28,6.28,0,0,1-1.9-.3,7.57,7.57,0,0,1-1.8-.9,19.2,19.2,0,0,1-1.5-1.4,6.92,6.92,0,0,1-1-1.9l3.2-1.7a4,4,0,0,0,1.1,1.9,2.41,2.41,0,0,0,1.8.7,3.59,3.59,0,0,0,1.1-.2,4.7,4.7,0,0,0,.9-.6,2.36,2.36,0,0,0,.6-.9,3.59,3.59,0,0,0,.2-1.1,2.28,2.28,0,0,0-1.2-1.9,6.73,6.73,0,0,0-1.1-.7l-1.2-.6c-.6-.3-1.2-.7-1.9-1.1a20.28,20.28,0,0,1-1.8-1.3,5.07,5.07,0,0,1-1-5.8,6.53,6.53,0,0,1,1.3-1.6,6.26,6.26,0,0,1,2-1,8.6,8.6,0,0,1,2.4-.4,10.07,10.07,0,0,1,2.5.3,14.27,14.27,0,0,1,2.2.8v4.9Z" fill="#fff"/><path d="M167,122v20h-3.6V122Z" fill="#fff"/><path d="M176,125.6V142h-3.6V125.6h-4.6V122h12.8v3.6Z" fill="#fff"/><path d="M185.2,122v20h-3.6V122Z" fill="#fff"/><path d="M196.9,125.6h-6.7v4.7h6.5v3.4h-6.5v4.7h7.5v3.7H186.6V122h10.3Z" fill="#fff"/><path d="M209.9,127.6a17.34,17.34,0,0,0-1.8-1.9,2.81,2.81,0,0,0-1.1-.5,7.77,7.77,0,0,0-1.6-.2,3.75,3.75,0,0,0-1.1.1,2.47,2.47,0,0,0-.9.4,1.7,1.7,0,0,0-.6.6,1.08,1.08,0,0,0-.2.8c0,.6.7,1.3,2.2,2a26,26,0,0,1,2.4,1.3c.7.4,1.4.9,2,1.3a4.85,4.85,0,0,1,2,4.3,7.51,7.51,0,0,1-.5,2.6,6,6,0,0,1-1.4,2.1,7.71,7.71,0,0,1-2.1,1.4,7,7,0,0,1-2.5.5,6.28,6.28,0,0,1-1.9-.3,7.57,7.57,0,0,1-1.8-.9,19.2,19.2,0,0,1-1.5-1.4,6.92,6.92,0,0,1-1-1.9l3.2-1.7a4,4,0,0,0,1.1,1.9,2.41,2.41,0,0,0,1.8.7,3.59,3.59,0,0,0,1.1-.2,4.7,4.7,0,0,0,.9-.6,2.36,2.36,0,0,0,.6-.9,3.59,3.59,0,0,0,.2-1.1,2.28,2.28,0,0,0-1.2-1.9,6.73,6.73,0,0,0-1.1-.7l-1.2-.6c-.6-.3-1.2-.7-1.9-1.1a20.28,20.28,0,0,1-1.8-1.3,5.07,5.07,0,0,1-1-5.8,6.53,6.53,0,0,1,1.3-1.6,6.26,6.26,0,0,1,2-1,8.6,8.6,0,0,1,2.4-.4,10.07,10.07,0,0,1,2.5.3,14.27,14.27,0,0,1,2.2.8v4.9Z" fill="#fff"/><path d="M116.8,147.1l1.4.1,1.2.3,1.3.5,1.1.5,1.3.9,1.3,1-2.5,2.6-1.4-1.2-.6-.3-.6-.3a1.42,1.42,0,0,1-.6-.2c-.2-.1-.4-.1-.6-.2h.1a1.7,1.7,0,0,1-.7-.1c-.2,0-.5-.1-.7-.1a1.7,1.7,0,0,0-.7.1c-.2,0-.5.1-.7.1h.1c-.2.1-.4.1-.6.2s-.4.1-.6.2l-.6.3-.6.3-.5.5-.5.5a1.76,1.76,0,0,0-.4.5c-.1.2-.3.3-.4.5l-.3.6-.3.6c-.1.2-.1.4-.2.6s-.1.4-.2.6a1.7,1.7,0,0,1-.1.7c0,.2-.1.5-.1.7a1.27,1.27,0,0,0,.1.6c0,.2.1.4.1.7s.1.4.2.6.1.4.2.6l.3.6.3.6a1.76,1.76,0,0,1,.4.5c.1.2.3.3.4.5l1,.9.6.3a2.19,2.19,0,0,1,.5.3,1.42,1.42,0,0,1,.6.2c.2.1.4.1.6.2h-.1a1.7,1.7,0,0,1,.7.1c.2,0,.5.1.7.1a2,2,0,0,0,.7-.1c.2,0,.5-.1.7-.1H118c.2-.1.4-.1.6-.2s.4-.1.6-.2a1.63,1.63,0,0,1,.6-.3l.6-.3a1.76,1.76,0,0,1,.5-.4c.2-.1.3-.3.5-.4s.3-.3.4-.5a1.21,1.21,0,0,1,.5-.5h0l.3-.6.3-.6c0-.1.1-.2.1-.4s.1-.3.1-.4h-4.6V156h8.4l.1,1.8-.1,1.4-.3,1.2-.5,1.3-.5,1.1-.8,1.2-.8,1-1.1.9-1,.7-1.4.7-1.1.4-1.3.2h-2.7l-1.3-.2-1.1-.4-1.4-.7-1-.7-1.1-.9-.8-1-.8-1.2-.5-1.1L107,160l-.3-1.2-.1-1.4.1-1.5.3-1.2.5-1.4.5-1.1.8-1.2.8-1,1-.8,1.2-.8,1.1-.5,1.4-.5,1.2-.3Z" fill="#fff"/><path d="M132.1,147.4v13.4a2.77,2.77,0,0,0,.3,1.3,3.51,3.51,0,0,0,1.7,1.7,2.54,2.54,0,0,0,1.2.2,2.66,2.66,0,0,0,1.2-.3,3.51,3.51,0,0,0,1.7-1.7,2.77,2.77,0,0,0,.3-1.3V147.3h3.6v13.4a7.51,7.51,0,0,1-.5,2.6,7.82,7.82,0,0,1-1.5,2.2,7.12,7.12,0,0,1-2.2,1.5,5.75,5.75,0,0,1-2.6.5,7,7,0,0,1-4.8-1.9,7.12,7.12,0,0,1-1.5-2.2,5.92,5.92,0,0,1-.5-2.7V147.3h3.6Z" fill="#fff"/><path d="M147.3,147.4v20h-3.6v-20Z" fill="#fff"/><path d="M148.7,167.3V147.2h5.5a10.06,10.06,0,0,1,3.9.8,8.75,8.75,0,0,1,3.2,2.2,9.51,9.51,0,0,1,2.9,7.1,9.9,9.9,0,0,1-3,7.1,9.88,9.88,0,0,1-3.2,2.1,10.06,10.06,0,0,1-3.9.8Zm3.6-3.6h1.9a7,7,0,0,0,2.5-.5,6.43,6.43,0,0,0,3.5-3.5,6.5,6.5,0,0,0,0-5,6.43,6.43,0,0,0-3.5-3.5,7,7,0,0,0-2.5-.5h-1.9Z" fill="#fff"/><path d="M176,150.9h-6.7v4.7h6.5V159h-6.5v4.7h7.5v3.7H165.7V147.3H176Z" fill="#fff"/><path d="M101.1,183.2a12.31,12.31,0,0,1,.8-4.4,10.21,10.21,0,0,1,2.3-3.4,10.6,10.6,0,0,1,3.3-2.2,9.42,9.42,0,0,1,7.6,0,10.16,10.16,0,0,1,3.2,2.2,12.12,12.12,0,0,1,2.2,3.2,10.06,10.06,0,0,1,.8,3.9,8.66,8.66,0,0,1-.6,3.2,15.93,15.93,0,0,1-1.5,2.9l-2.1,2.7c-.7.8-1.3,1.7-1.9,2.5s-1.3,1.7-1.9,2.5-1.3,1.7-2.1,2.7h9.4v5.9H99.4l15.2-19.8a4,4,0,0,0,.9-2.7,3.53,3.53,0,0,0-.4-1.7,3.45,3.45,0,0,0-1-1.3,4.19,4.19,0,0,0-1.4-.9,4.15,4.15,0,0,0-1.6-.3,3.29,3.29,0,0,0-1.7.4,4.73,4.73,0,0,0-1.3,1.1,5.07,5.07,0,0,0-.9,1.6,5.82,5.82,0,0,0-.3,1.9Z" fill="#fff"/><path d="M135.2,172.3a9.88,9.88,0,0,1,4.5,1,8.56,8.56,0,0,1,3.6,3,13.38,13.38,0,0,1,2.3,5.1,31.6,31.6,0,0,1,.8,7.4c0,5.9-1.1,10.1-3.2,12.6a12.49,12.49,0,0,1-3.7,2.8,9.35,9.35,0,0,1-4.3,1,11.3,11.3,0,0,1-4.5-.9,8.56,8.56,0,0,1-3.6-3,13.38,13.38,0,0,1-2.3-5.1,26.58,26.58,0,0,1-.8-7.4c0-6,1.1-10.2,3.2-12.6A9.88,9.88,0,0,1,135.2,172.3Zm3.7,7.9a4.15,4.15,0,0,0-3.7-2,3.61,3.61,0,0,0-2,.6,6.37,6.37,0,0,0-1.7,1.6,10.42,10.42,0,0,0-1.2,3.3,24.69,24.69,0,0,0-.4,5c0,3.7.5,6.4,1.4,8a4.51,4.51,0,0,0,4,2.4c1.3,0,2.5-.7,3.7-2.2s1.7-4.3,1.7-8.3c-.1-3.7-.7-6.6-1.8-8.4Z" fill="#fff"/><path d="M149.8,183.2a12.31,12.31,0,0,1,.8-4.4,10.21,10.21,0,0,1,2.3-3.4,10.6,10.6,0,0,1,3.3-2.2,9.43,9.43,0,0,1,7.6,0,10.16,10.16,0,0,1,3.2,2.2,12.12,12.12,0,0,1,2.2,3.2,10.06,10.06,0,0,1,.8,3.9,8.66,8.66,0,0,1-.6,3.2,15.93,15.93,0,0,1-1.5,2.9l-2.1,2.7c-.7.8-1.3,1.7-1.9,2.5s-1.3,1.7-1.9,2.5-1.3,1.7-2.1,2.7h9.4v5.9H148l15.2-19.8a4,4,0,0,0,.9-2.7,3.53,3.53,0,0,0-.4-1.7,3.45,3.45,0,0,0-1-1.3,4.19,4.19,0,0,0-1.4-.9,4.15,4.15,0,0,0-1.6-.3,3.29,3.29,0,0,0-1.7.4,4.73,4.73,0,0,0-1.3,1.1,5.07,5.07,0,0,0-.9,1.6,5.82,5.82,0,0,0-.3,1.9Z" fill="#fff"/><path d="M171.5,176.3l5.7-3.8h5.3v32.4h-5.9V178.6a31.61,31.61,0,0,1-2.7,1.8c-1,.7-1.8,1.2-2.5,1.6v-5.7Z" fill="#fff"/><path d="M189.9,169.5v.9h-1.7v4.4h-1.1v-4.4h-1.7v-.9Zm5.8,5.3-.2-3.1v-1.5h-.1a9.83,9.83,0,0,1-.5,1.6l-1,3h-1.1l-1-3c-.1-.4-.3-1-.4-1.5h-.1v1.5l-.2,3.1h-1l.4-5.3h1.6l.9,2.6c.1.4.2.8.4,1.4h0c.1-.5.3-.9.4-1.3l.9-2.6h1.5l.4,5.3h-.9Z" fill="#fff"/><path d="M79.1,249.7A109.92,109.92,0,0,1,77,238.8v-.5l-4.5,8c-1.8-1-2.8-1.6-4.6-2.7,4-6.5,5.9-9.7,9.9-16.2,2.4,1.4,3.6,2.1,6,3.4a10.77,10.77,0,0,1,2.4,1.8,8.23,8.23,0,0,1,1.6,2.2,6.76,6.76,0,0,1,.7,2.3,4.13,4.13,0,0,1-.4,2.2,4.69,4.69,0,0,1-2.2,2.2,7.06,7.06,0,0,1-3.9.4c.2.8.3,1.7.5,2.6l.6,2.7a26.81,26.81,0,0,0,.7,2.7c.2.9.4,1.7.6,2.5A52.78,52.78,0,0,0,79.1,249.7Zm1-12.1a7.6,7.6,0,0,0,1.1.4,2.05,2.05,0,0,0,1.1,0l.9-.3a1.7,1.7,0,0,0,.6-.6,1.52,1.52,0,0,0-.1-1.7,3.36,3.36,0,0,0-1.6-1.5,21.16,21.16,0,0,0-2.1-1.1c-.8,1.5-1.3,2.3-2.1,3.8A8.75,8.75,0,0,1,80.1,237.6Z" fill="#ac920e"/><path d="M86.9,253.2a136.42,136.42,0,0,0,14.9-14.5c1.6.6,2.5.8,4.1,1.3a133.48,133.48,0,0,0,3.6,20.5c-2.1-.5-3.1-.8-5.2-1.3-.4-1.8-.5-2.7-.9-4.4-3.3-1-5-1.5-8.3-2.7-.5.5-1.1,1-1.6,1.6s-1.1,1.1-1.6,1.5C90,254.5,88.9,254.1,86.9,253.2Zm15.2-8.2c-.8.8-1.5,1.6-2.2,2.3s-1.4,1.5-2.3,2.4c2.1.7,3.2,1.1,5.3,1.7C102.6,248.9,102.4,247.6,102.1,245Z" fill="#ac920e"/><path d="M125.8,247.7c-.8,6.2-1.2,9.2-2,15.4-2-.3-3.1-.4-5.1-.7,1-6.1,1.5-9.2,2.5-15.3-2.3-.4-3.4-.6-5.7-1.1.3-1.3.4-2,.7-3.4a103.57,103.57,0,0,0,15.5,2.3c-.1,1.4-.2,2.1-.3,3.4C129.3,248.2,128.1,248,125.8,247.7Z" fill="#ac920e"/><path d="M139.4,245.4c-.1,7.5-.2,11.3-.4,18.9-2,0-3.1-.1-5.1-.2.4-7.5.6-11.3,1-18.8C136.7,245.3,137.6,245.4,139.4,245.4Z" fill="#ac920e"/><path d="M143.4,264.3c-.1-7.5-.1-11.3-.2-18.9,1.7,0,2.5,0,4.2-.1A101.05,101.05,0,0,0,157.5,256c-.5-4.6-.8-6.9-1.3-11.4,1.8-.2,2.7-.3,4.4-.6,1.2,7.5,1.7,11.2,2.9,18.6-1.9.3-2.8.4-4.7.6A110.1,110.1,0,0,1,148,252.4c.2,4.7.3,7,.6,11.6A48.06,48.06,0,0,1,143.4,264.3Z" fill="#ac920e"/><path d="M176.5,240.1a10.46,10.46,0,0,1,1.7-.4c.6-.1.9-.1,1.5-.2s1-.1,1.6-.1h1.4c.7.1,1.1.1,1.8.2s1.1.2,1.8.3c-.9,1.4-1.3,2.1-2.2,3.4a15.52,15.52,0,0,0-2.1-.4h-.8a2.2,2.2,0,0,1-.8-.1c-.2,0-.5.1-.7.1s-.5.1-.7.1h.1c-.3.1-.6.1-.9.2s-.6.1-.9.2-.5.2-.8.3-.5.2-.8.3h.1a2.51,2.51,0,0,0-.7.4c-.2.1-.5.2-.7.3s-.4.3-.7.5-.5.3-.7.5-.3.4-.5.6a2.65,2.65,0,0,0-.5.6,2.09,2.09,0,0,0-.4.6c-.1.2-.3.4-.4.6a1.42,1.42,0,0,0-.2.6l-.3.6c0,.2-.1.4-.1.6s-.1.4-.1.6a2,2,0,0,0,.1.7v.6a1.42,1.42,0,0,0,.2.6c.1.2.1.4.2.6s.2.3.4.5a2.9,2.9,0,0,0,.9.9,2.18,2.18,0,0,1,.5.4c.2.1.5.2.7.3s.5.2.7.3c.6.2,1,.3,1.6.5a2,2,0,0,1,.8.1c.3,0,.6.1.8.1s.6-.1.9-.1a2,2,0,0,0,.8-.1H179c.3-.1.7-.1,1-.2s.7-.1,1-.2l.9-.3.9-.3a.1.1,0,0,0-.1.1c.3-.1.5-.3.8-.4l.8-.4c.2-.1.4-.3.7-.5s.5-.4.7-.5a2.65,2.65,0,0,0,.5-.6,2.65,2.65,0,0,0,.5-.6c.1-.2.3-.4.4-.6s.3-.5.4-.7h0c.1-.2.1-.4.2-.6a6.37,6.37,0,0,0,.2-.7v-.8c-2.4.9-3.5,1.3-5.9,2l-1-3a110.57,110.57,0,0,0,10.5-3.8c.3.6.5.9.8,1.5s.2.8.4,1.3c0,.5.1.7.1,1.2s-.1.8-.1,1.3-.2.7-.3,1.2a9.38,9.38,0,0,0-.6,1.5c-.3.5-.5.8-.8,1.3a17.1,17.1,0,0,0-1.1,1.4,11.41,11.41,0,0,0-1.1,1.1c-.7.5-1,.8-1.7,1.3-.5.3-.8.5-1.4.9s-1,.5-1.7.8c-1.5.5-2.2.7-3.8,1.1-.8.1-1.1.2-1.9.3h-1.6c-.8,0-1.3-.1-2.1-.1-.6-.1-.9-.2-1.5-.3l-1.7-.5c-.5-.3-.8-.4-1.3-.7s-.8-.5-1.4-.9a3.84,3.84,0,0,1-.9-.9,10.47,10.47,0,0,1-.8-1.1,10.91,10.91,0,0,1-.6-1.1,6.47,6.47,0,0,0-.4-1.3,6.6,6.6,0,0,1-.1-1.4,4.87,4.87,0,0,0,.1-1.2c.1-.6.2-.8.3-1.4.2-.4.3-.7.5-1.1s.5-.8.8-1.3.5-.7.8-1.1l1-1c.5-.4.8-.7,1.3-1.1s.7-.5,1.2-.8,1-.5,1.6-.9a7.54,7.54,0,0,1,1.3-.6A4.85,4.85,0,0,1,176.5,240.1Z" fill="#ac920e"/><path d="M207,232.8a18.9,18.9,0,0,0-2.9-.3,4.94,4.94,0,0,0-1.5.3,9.73,9.73,0,0,0-1.9.8,3.6,3.6,0,0,0-1.2.8,8.18,8.18,0,0,0-.9.8,4.05,4.05,0,0,0-.5.9.75.75,0,0,0,.1.8c.3.5,1.4.7,3.5.3,1.2-.2,2.3-.3,3.4-.5l3-.3c2.1-.1,3.6.5,4.5,2a3.61,3.61,0,0,1,.6,2.5,6.77,6.77,0,0,1-.7,2.7,9.55,9.55,0,0,1-2,2.6,13.36,13.36,0,0,1-3,2.1,11.66,11.66,0,0,1-2.6,1,12.41,12.41,0,0,1-2.7.3,10.07,10.07,0,0,1-2.5-.3,4.33,4.33,0,0,1-2-1.1c1.4-1.3,2.1-2,3.5-3.3a3.37,3.37,0,0,0,2.2.9,4.34,4.34,0,0,0,2.5-.5,14.63,14.63,0,0,0,1.3-.9,4.36,4.36,0,0,0,.9-1.1,2.66,2.66,0,0,0,.3-1.2,4.25,4.25,0,0,0-.2-1.1c-.3-.6-1.1-.8-2.3-.8-.6,0-1.1.1-1.6.1s-1.1.1-1.7.2l-2.7.3a12.19,12.19,0,0,1-2.7,0,3.78,3.78,0,0,1-3.2-2.3,3,3,0,0,1-.2-2.1,4.79,4.79,0,0,1,.9-2.1,10.71,10.71,0,0,1,1.8-1.9,15.64,15.64,0,0,1,2.5-1.7,23.76,23.76,0,0,1,2.9-1.3c1-.3,1.9-.6,2.8-.8C205.6,230.4,206.1,231.2,207,232.8Z" fill="#ac920e"/></svg>