<?xml version="1.0" encoding="utf-8"?>
<!-- Generator: Adobe Illustrator 25.0.1, SVG Export Plug-In . SVG Version: 6.00 Build 0)  -->
<svg version="1.1" id="Layer_1" xmlns="http://www.w3.org/2000/svg" xmlns:xlink="http://www.w3.org/1999/xlink" x="0px" y="0px"
	 viewBox="0 0 32 32" style="enable-background:new 0 0 32 32;" xml:space="preserve">
<style type="text/css">
	.st0{fill:#FFFFFF;}
</style>
<path class="st0" d="M16,7.8c-4.5,0-8.2,3.7-8.2,8.2s3.7,8.2,8.2,8.2s8.2-3.7,8.2-8.2S20.5,7.8,16,7.8z M16,21.3
	c-2.9,0-5.3-2.4-5.3-5.3s2.4-5.3,5.3-5.3s5.3,2.4,5.3,5.3S18.9,21.3,16,21.3L16,21.3z M26.5,7.5c0,1.1-0.9,1.9-1.9,1.9
	c-1.1,0-1.9-0.9-1.9-1.9s0.9-1.9,1.9-1.9C25.6,5.5,26.5,6.4,26.5,7.5z M31.9,9.4c-0.1-2.6-0.7-4.8-2.6-6.7c-1.9-1.9-4.1-2.5-6.7-2.6
	C20,0,12,0,9.4,0.1C6.8,0.2,4.6,0.8,2.7,2.7S0.2,6.8,0.1,9.4C0,12,0,20,0.1,22.6c0.1,2.6,0.7,4.8,2.6,6.7s4.1,2.5,6.7,2.6
	C12,32,20,32,22.6,31.9c2.6-0.1,4.8-0.7,6.7-2.6c1.9-1.9,2.5-4.1,2.6-6.7C32,20,32,12,31.9,9.4L31.9,9.4z M28.5,25.4
	c-0.6,1.4-1.6,2.5-3,3c-2.1,0.8-7.1,0.6-9.4,0.6c-2.3,0-7.3,0.2-9.4-0.6c-1.4-0.6-2.5-1.6-3-3c-0.8-2.1-0.6-7.1-0.6-9.4
	S2.7,8.7,3.5,6.6c0.6-1.4,1.6-2.5,3-3c2.1-0.8,7.1-0.6,9.4-0.6c2.3,0,7.3-0.2,9.4,0.6c1.4,0.6,2.5,1.6,3,3c0.8,2.1,0.6,7.1,0.6,9.4
	S29.3,23.3,28.5,25.4z"/>
</svg>
