<svg xmlns="http://www.w3.org/2000/svg" width="95.25mm" height="95.25mm" viewBox="0 0 270 270"><path d="M270,135A135,135,0,1,1,135,0,135,135,0,0,1,270,135" fill="#231f20"/><polyline points="20.25 98.01 41.21 98.01 41.21 152.67 77.84 152.67 77.84 173.63 41.97 173.63 20.25 152.53 20.25 98.01" fill="#fff"/><polyline points="112.14 98.01 132.3 98.01 132.3 136.52 166.66 98.01 189.68 98.01 128.22 173.63 112.14 173.63 112.14 98.01" fill="#fff"/><polyline points="191.62 98.01 234.96 98.01 252.45 115.83 212.36 115.83 212.36 127.29 231.52 127.29 248.66 143.82 212.36 143.82 212.36 155.81 234.96 155.81 252.99 173.63 213.11 173.63 191.62 152.54 191.62 98.01" fill="#fff"/><polyline points="107.3 98.01 82.09 123.22 82.09 98.01 107.3 98.01" fill="#ea0b8c"/><polyline points="82.09 123.22 107.3 98.01 107.3 123.22 82.09 123.22" fill="#abcd4a"/><polyline points="107.3 173.63 82.09 148.43 82.09 173.63 107.3 173.63" fill="#abcd4a"/><polyline points="82.09 148.43 107.3 173.63 107.3 148.43 82.09 148.43" fill="#46c3d1"/><polyline points="107.3 148.43 82.09 123.22 107.3 123.22 107.3 148.43" fill="#d55458"/><polyline points="82.09 123.22 107.3 148.43 82.09 148.43 82.09 123.22" fill="#fcee22"/><path d="M145.39,184.54a1.33,1.33,0,0,1,1.47,1.38c0,1-.46,1.65-1.56,3C141,194.18,132.72,201.8,128,201.8c-1.93,0-4-1.65-4-4.87,0-4,4.68-13,5.42-14.41,1.1-1.83,2-3.3,3.3-3.3a2,2,0,0,1,2.3,1.93,4.55,4.55,0,0,1-1.19,2.75c-2.67,4.31-5.23,10.65-5.23,12.48a1.4,1.4,0,0,0,1.28,1.47c2.48,0,9.09-6.24,12.21-10.46,1.1-1.38,2.29-2.85,3.3-2.85m-1-19a4.19,4.19,0,0,1-3.67,3.86c-1.47,0-2-1.93-2-3.31a3.58,3.58,0,0,1,3.49-3.3C143.28,162.79,144.38,163.33,144.38,165.54Z" fill="#f1f1f2"/><path d="M157.6,180.87a92.48,92.48,0,0,1,6.52-18C168,154.71,172.93,151,176.24,151c2.66,0,4.13,1.84,4.13,4.59,0,3.31-1.56,8.08-6.24,15.52a109.21,109.21,0,0,1-10.47,13.58c-1.38,1.56-2.66,2.85-2.94,3.68a14.36,14.36,0,0,0-1.19,6.24c0,1.93.18,6.61,2.21,7.07.91.18,1.83.36,1.83,1.19s-1.38,2.2-3.4,2.2c-4.41,0-5.23-5.6-5.23-10.1-4,4.41-9.45,7.44-12.39,7.44a5.06,5.06,0,0,1-4.87-5.41c0-6.71,9.18-17.63,15.15-17.63a8.71,8.71,0,0,1,4.77,1.47M142.46,196.2A1.62,1.62,0,0,0,144,198c2.84,0,11.2-8.72,11.74-11.38a1.77,1.77,0,0,1-1.37-1.56,1.44,1.44,0,0,0-1.56-1.1C148.79,184.26,142.46,192.89,142.46,196.2Zm25.33-30.85c-2.84,5.69-5.51,15.24-5.51,15.24A74,74,0,0,0,171,168.47c3.85-6.88,5.14-9.63,5.14-12.11,0-.74-.28-1-1.11-1S171.56,157.92,167.79,165.35Z" fill="#f1f1f2"/><path d="M192.49,184.54a1.33,1.33,0,0,1,1.47,1.38c0,1-.46,1.65-1.56,3-4.32,5.32-11.75,13.22-21.94,13.22-3,0-5.6-2.39-5.6-6.43,0-.55-.46-.83-.46-1.83a2.7,2.7,0,0,1,1.74-2.3c3.49-8.17,9.83-12.21,14.6-12.21,1.93,0,4,1.47,4,3.49,0,4.77-7.71,10.19-13.77,11.57-1.19.27-1.56.92-1.56,1.56A2.72,2.72,0,0,0,172,198.5c7.71,0,13.86-7.07,17.17-11.11,1.1-1.38,2.29-2.85,3.3-2.85m-21.76,6.61c3.31-.64,9.55-5.14,9.55-6.7,0-.55-.18-.92-.73-.92C177.34,183.53,172.48,188.4,170.73,191.15Z" fill="#f1f1f2"/><path d="M208.55,179.58c1.75,0,2.76,1,2.76,2.3,0,1.56-3.31,5.51-4.41,7.89a13.74,13.74,0,0,0-1.65,5.14c0,.92.37,1.93,1.19,1.93,3,0,8.18-5.51,11.48-9.45,1.1-1.38,2.29-2.85,3.31-2.85a1.32,1.32,0,0,1,1.46,1.38c0,1-.45,1.65-1.56,3-4.4,5.23-11.47,12.12-16.15,12.12-3,0-4.5-2.12-4.5-4.69,0-1,.09-1.92.18-3.21-2.66,2.66-8.9,8.9-13,8.9-1.2,0-3.13-1.65-3.13-4,0-9.46,10.65-18.64,17.63-18.64a5.19,5.19,0,0,1,3.77,2c.27,0,1.28-1.84,2.65-1.84m-19.09,16.8a.76.76,0,0,0,.83.74c1.37,0,12.66-9.83,12.66-11.57a1.89,1.89,0,0,0-2-1.84C197.27,183.71,189.46,192.16,189.46,196.38Z" fill="#f1f1f2"/><path d="M222.14,192.62c-1.74-.92-3.48-2.2-3.48-4.41,0-5,7.25-9.27,11.38-9.27,1.74,0,3.76,1.47,3.76,3.4,0,2.11-1.28,5.41-3.3,5.41a1.77,1.77,0,0,1-2-1.92c0-.92,1-1.66,1-2.39,0-.37-.27-.65-.82-.65-1.19,0-5.33,2.58-5.33,4.87,0,.74.92,1.47,2,2,1.92,1,4.59,2.3,4.59,5.78,0,3.22-2.85,6.71-8.27,6.71-3.48,0-5.87-2.3-5.87-4.59a2.22,2.22,0,0,1,2.2-2.39c1,0,1.93.46,1.93,1.74s.83,2,2.29,2a3,3,0,0,0,2.94-3c0-1.65-1.65-2.57-3-3.3" fill="#f1f1f2"/></svg>