<svg xmlns="http://www.w3.org/2000/svg" xmlns:xlink="http://www.w3.org/1999/xlink" viewBox="0 0 813.85 602.18"><defs><style>.cls-1{fill:none;}.cls-2{clip-path:url(#clip-path);}.cls-3{fill:#003a53;}.cls-4{fill:#003c56;}.cls-5{fill:#003e58;}.cls-6{clip-path:url(#clip-path-2);}.cls-7{fill:#003146;}.cls-8{fill:#005275;}.cls-9{clip-path:url(#clip-path-3);}.cls-10{fill:#003850;}.cls-11{fill:#00374e;}.cls-12{fill:#00354b;}.cls-13{fill:#003348;}.cls-14{clip-path:url(#clip-path-4);}.cls-15{clip-path:url(#clip-path-5);}.cls-16{clip-path:url(#clip-path-6);}.cls-17{clip-path:url(#clip-path-7);}.cls-18{clip-path:url(#clip-path-8);}.cls-19{clip-path:url(#clip-path-9);}.cls-20{clip-path:url(#clip-path-10);}.cls-21{clip-path:url(#clip-path-11);}.cls-22{clip-path:url(#clip-path-12);}.cls-23{fill:#71928f;}.cls-24{clip-path:url(#clip-path-13);}.cls-25{fill:#607c79;}.cls-26{fill:#5d7875;}.cls-27{fill:#5a7471;}.cls-28{fill:#56706d;}.cls-29{fill:#536c69;}.cls-30{fill:#526a67;}.cls-31{fill:#688784;}.cls-32{clip-path:url(#clip-path-14);}.cls-33{fill:#6a8985;}.cls-34{fill:#668481;}.cls-35{fill:#63807d;}.cls-36{fill:#8cb5b0;}.cls-37{clip-path:url(#clip-path-15);}.cls-38{clip-path:url(#clip-path-16);}.cls-39{clip-path:url(#clip-path-17);}.cls-40{clip-path:url(#clip-path-18);}.cls-41{clip-path:url(#clip-path-19);}.cls-42{clip-path:url(#clip-path-20);}.cls-43{clip-path:url(#clip-path-21);}.cls-44{clip-path:url(#clip-path-22);}.cls-45{clip-path:url(#clip-path-23);}.cls-46{clip-path:url(#clip-path-24);}.cls-47{clip-path:url(#clip-path-25);}.cls-48{clip-path:url(#clip-path-26);}.cls-49{clip-path:url(#clip-path-27);}.cls-50{clip-path:url(#clip-path-28);}.cls-51{clip-path:url(#clip-path-29);}.cls-52{clip-path:url(#clip-path-30);}.cls-53{clip-path:url(#clip-path-31);}.cls-54{clip-path:url(#clip-path-32);}.cls-55{clip-path:url(#clip-path-33);}.cls-56{clip-path:url(#clip-path-34);}.cls-57{fill:#70918d;}.cls-58{clip-path:url(#clip-path-35);}.cls-59{clip-path:url(#clip-path-36);}.cls-60{clip-path:url(#clip-path-37);}.cls-61{clip-path:url(#clip-path-38);}.cls-62{clip-path:url(#clip-path-39);}.cls-63{clip-path:url(#clip-path-40);}.cls-64{clip-path:url(#clip-path-41);}.cls-65{clip-path:url(#clip-path-42);}.cls-66{clip-path:url(#clip-path-43);}.cls-67{clip-path:url(#clip-path-44);}.cls-68{fill:#71938f;}.cls-69{clip-path:url(#clip-path-45);}.cls-70{clip-path:url(#clip-path-46);}.cls-71{clip-path:url(#clip-path-47);}.cls-72{clip-path:url(#clip-path-48);}.cls-73{clip-path:url(#clip-path-49);}.cls-74{clip-path:url(#clip-path-50);}.cls-75{clip-path:url(#clip-path-51);}.cls-76{fill:#6f8f8c;}.cls-77{clip-path:url(#clip-path-52);}.cls-78{clip-path:url(#clip-path-53);}.cls-79{clip-path:url(#clip-path-54);}.cls-80{clip-path:url(#clip-path-55);}.cls-81{clip-path:url(#clip-path-56);}.cls-82{clip-path:url(#clip-path-57);}.cls-83{clip-path:url(#clip-path-58);}.cls-84{clip-path:url(#clip-path-59);}.cls-85{clip-path:url(#clip-path-60);}.cls-86{clip-path:url(#clip-path-61);}.cls-87{clip-path:url(#clip-path-62);}.cls-88{clip-path:url(#clip-path-63);}.cls-89{clip-path:url(#clip-path-64);}.cls-90{clip-path:url(#clip-path-65);}.cls-91{clip-path:url(#clip-path-66);}.cls-92{clip-path:url(#clip-path-67);}.cls-93{clip-path:url(#clip-path-68);}.cls-94{clip-path:url(#clip-path-69);}.cls-95{clip-path:url(#clip-path-70);}.cls-96{clip-path:url(#clip-path-71);}.cls-97{clip-path:url(#clip-path-72);}.cls-98{clip-path:url(#clip-path-73);}.cls-99{clip-path:url(#clip-path-74);}.cls-100{clip-path:url(#clip-path-75);}.cls-101{clip-path:url(#clip-path-76);}.cls-102{clip-path:url(#clip-path-77);}.cls-103{clip-path:url(#clip-path-78);}</style><clipPath id="clip-path"><path class="cls-1" d="M739.8,251.05l-11.4-6.2c10.46,5.69,26.84,6,53.6,5l11.4,6.2C766.64,257,750.25,256.74,739.8,251.05Z"/></clipPath><clipPath id="clip-path-2"><path class="cls-1" d="M686,275.89l11.4,6.2c14.4,7.83,17.55,25.93,21,65.21L707,341.1C703.54,301.82,700.39,283.72,686,275.89Z"/></clipPath><clipPath id="clip-path-3"><path class="cls-1" d="M643.79,277.08l-11.4-6.2c63.64-15.61,68.65-21.7,75-91.26l11.4,6.2C712.44,255.37,707.43,261.47,643.79,277.08Z"/></clipPath><clipPath id="clip-path-4"><path class="cls-1" d="M349.37,59.84,338,53.64c8.6,4.68,22.08,4.91,44.08,4.12l11.4,6.2C371.45,64.75,358,64.52,349.37,59.84Z"/></clipPath><clipPath id="clip-path-5"><path class="cls-1" d="M303.1,79.17l11.4,6.2c11.84,6.44,14.43,21.33,17.31,53.64l-11.4-6.2C317.54,100.5,314.94,85.61,303.1,79.17Z"/></clipPath><clipPath id="clip-path-6"><path class="cls-1" d="M270.41,81.25,259,75.06C311.36,62.22,315.48,57.2,320.66,0l11.4,6.2C326.87,63.4,322.75,68.42,270.41,81.25Z"/></clipPath><clipPath id="clip-path-7"><path class="cls-1" d="M90.37,233,79,226.8c8.6,4.68,22.07,4.91,44.08,4.12l11.4,6.2C112.44,237.88,99,237.65,90.37,233Z"/></clipPath><clipPath id="clip-path-8"><path class="cls-1" d="M44.09,252.3l11.45,6.2c11.84,6.44,14.43,21.33,17.32,53.64l-11.4-6.2C58.54,273.63,55.94,258.74,44.09,252.3Z"/></clipPath><clipPath id="clip-path-9"><path class="cls-1" d="M11.4,254.38,0,248.18c52.35-12.83,56.47-17.85,61.66-75.05l11.39,6.2C67.87,236.53,63.74,241.55,11.4,254.38Z"/></clipPath><clipPath id="clip-path-10"><path class="cls-1" d="M788.65,313.11l-11.39-6.2c4.91,2.68,12.61,2.81,25.19,2.35l11.4,6.2C801.27,315.92,793.54,315.79,788.65,313.11Z"/></clipPath><clipPath id="clip-path-11"><path class="cls-1" d="M757.33,321.5l11.4,6.2c6.76,3.68,8.25,12.19,9.89,30.65l-11.4-6.2C765.54,333.69,764.1,325.18,757.33,321.5Z"/></clipPath><clipPath id="clip-path-12"><path class="cls-1" d="M743.54,325.35l-11.39-6.2c29.91-7.34,32.27-10.2,35.23-42.88l11.39,6.2C775.8,315.15,773.44,318,743.54,325.35Z"/></clipPath><clipPath id="clip-path-13"><path class="cls-1" d="M152.54,423.64l11.39,6.2c6.61,3.59,9.45,11.32,9.43,21.07,0,21.12-12.22,35.63-41,65l-11.4-6.2c28.81-29.33,41-43.84,41-65C162,435,159.12,427.23,152.54,423.64Z"/></clipPath><clipPath id="clip-path-14"><path class="cls-1" d="M183.54,386.51l11.39,6.2c-11.16-6.08-25.83-8.42-43.75-5.9l-11.39-6.2C157.74,378.09,172.42,380.43,183.54,386.51Z"/></clipPath><clipPath id="clip-path-15"><path class="cls-1" d="M82.25,486.1l-11.39-6.2c-1.18-6.23-2.32-12.47-2.32-18.54.08-42.9,28.9-74.79,71.31-80.75l11.39,6.2c-42.4,6-71.22,37.85-71.3,80.75C79.91,473.63,81.08,479.87,82.25,486.1Z"/></clipPath><clipPath id="clip-path-16"><path class="cls-1" d="M305.6,530.46l-11.39-6.2c4.79,2.61,10.62,3.41,17.6,2.43l11.39,6.2C316.23,533.87,310.39,533.07,305.6,530.46Z"/></clipPath><clipPath id="clip-path-17"><path class="cls-1" d="M329.65,397.87l11.4,6.2c12.53,6.82,17.92,26,17.86,58.19-.08,44.49-10.5,67.08-35.71,70.63l-11.39-6.2c25.2-3.55,35.63-26.14,35.71-70.63C347.54,423.88,342.18,404.69,329.65,397.87Z"/></clipPath><clipPath id="clip-path-18"><path class="cls-1" d="M357.27,363.06l11.4,6.2c-12.5-6.8-27.74-9.11-45.15-6.66l-11.4-6.2C329.54,354,344.77,356.26,357.27,363.06Z"/></clipPath><clipPath id="clip-path-19"><path class="cls-1" d="M278,565.27l-11.4-6.2c-23.89-13-37.77-42.41-37.69-86.34.13-66.89,32.52-109.21,83.23-116.33l11.4,6.2c-50.72,7.12-83.11,49.44-83.23,116.33C240.21,522.86,254.08,552.27,278,565.27Z"/></clipPath><clipPath id="clip-path-20"><path class="cls-1" d="M499.18,374.92l11.4,6.2c6.6,3.59,9.45,11.32,9.43,21.07,0,21.12-12.22,35.63-41,65L467.54,461c28.81-29.33,41-43.84,41-65C508.63,386.24,505.78,378.51,499.18,374.92Z"/></clipPath><clipPath id="clip-path-21"><path class="cls-1" d="M530.25,337.79l11.4,6.2c-11.17-6.08-25.84-8.42-43.76-5.9l-11.4-6.2C504.41,329.37,519.09,331.71,530.25,337.79Z"/></clipPath><clipPath id="clip-path-22"><path class="cls-1" d="M428.92,437.38l-11.38-6.2c-1.18-6.23-2.35-12.47-2.34-18.55.08-42.89,28.9-74.78,71.3-80.74l11.4,6.2c-42.41,6-71.22,37.85-71.3,80.74C426.54,424.91,427.75,431.15,428.92,437.38Z"/></clipPath><clipPath id="clip-path-23"><path class="cls-1" d="M585.3,360l-11.4-6.2c26.1-3.66,38.58-15,45.44-37.1l11.4,6.2C623.87,345,611.4,356.38,585.3,360Z"/></clipPath><clipPath id="clip-path-24"><path class="cls-1" d="M227.74,179.45l11.4,6.2c2.72,1.48,3.89,4.66,3.88,8.68,0,8.72-5,14.71-16.93,26.81l-11.4-6.2c11.9-12.1,16.92-18.09,16.94-26.8C231.63,184.12,230.46,180.93,227.74,179.45Z"/></clipPath><clipPath id="clip-path-25"><path class="cls-1" d="M240.54,164.13l11.39,6.2c-4.6-2.51-10.66-3.47-18.05-2.43l-11.34-6.2C229.9,160.66,236,161.62,240.54,164.13Z"/></clipPath><clipPath id="clip-path-26"><path class="cls-1" d="M205.44,208.86l-11.39-6.2a40.39,40.39,0,0,1-1-7.66c0-17.69,11.91-30.84,29.42-33.3l11.39,6.2c-17.5,2.46-29.39,15.61-29.42,33.3A42.07,42.07,0,0,0,205.44,208.86Z"/></clipPath><clipPath id="clip-path-27"><path class="cls-1" d="M161.45,192.2l-11.4-6.2c10.77-1.51,15.91-6.19,18.74-15.3l11.39,6.2C177.35,186,172.21,190.69,161.45,192.2Z"/></clipPath><clipPath id="clip-path-28"><path class="cls-1" d="M373.68,155.13l11.4,6.2a6.92,6.92,0,0,1,2.82,3.53l-11.4-6.2A6.92,6.92,0,0,0,373.68,155.13Z"/></clipPath><clipPath id="clip-path-29"><path class="cls-1" d="M380.13,142.75,391.54,149c-3.08-1.67-7-2.23-11.55-1.58l-11.4-6.2C373.16,140.52,377.05,141.08,380.13,142.75Z"/></clipPath><clipPath id="clip-path-30"><path class="cls-1" d="M359,173l-11.39-6.2c0-14.66,8.24-23.87,21-25.65l11.4,6.2C367.26,149.15,359,158.36,359,173Z"/></clipPath><clipPath id="clip-path-31"><path class="cls-1" d="M313.07,227l-11.4-6.2a9.25,9.25,0,0,0,5.85.86l11.4,6.2A9.25,9.25,0,0,1,313.07,227Z"/></clipPath><clipPath id="clip-path-32"><path class="cls-1" d="M313.43,189.56l11.4,6.2c3.77,2.06,5.64,7.16,5.62,14,0,9.77-3.82,17-11.53,18.12l-11.38-6.18c7.71-1.08,11.52-8.35,11.54-18.12C319.07,196.72,317.21,191.62,313.43,189.56Z"/></clipPath><clipPath id="clip-path-33"><path class="cls-1" d="M324.45,176.88l11.4,6.2c-4.63-2.52-10.36-3.5-16.84-2.59l-11.4-6.2C314.09,173.38,319.82,174.36,324.45,176.88Z"/></clipPath><clipPath id="clip-path-34"><path class="cls-1" d="M302.08,239.73l-11.39-6.2c-7.76-4.21-12.4-12.8-12.38-24.23,0-18.09,11.93-32.57,29.3-35l11.4,6.2c-17.38,2.44-29.27,16.92-29.31,35C289.68,226.93,294.33,235.52,302.08,239.73Z"/></clipPath><clipPath id="clip-path-35"><path class="cls-1" d="M545.54,193.88l-11.4-6.2a11.91,11.91,0,0,0,7.4,1.12c6.12-.86,9.91-3.9,11.89-9.58l11.39,6.2c-2,5.68-5.76,8.72-11.88,9.58A11.91,11.91,0,0,1,545.54,193.88Z"/></clipPath><clipPath id="clip-path-36"><path class="cls-1" d="M546.3,156.28l11.4,6.2c2.94,1.6,4.5,5,4.73,8.76L551,165C550.8,161.25,549.25,157.88,546.3,156.28Z"/></clipPath><clipPath id="clip-path-37"><path class="cls-1" d="M534.71,206.91l-11.4-6.2c-7.36-4-11.83-12-11.8-23.26,0-18.49,12.53-33.58,29.17-35.91,6.36-.9,11.64,0,15.81,2.29l11.4,6.2c-4.18-2.27-9.46-3.19-15.81-2.29-16.64,2.33-29.14,17.42-29.18,35.91C522.88,194.93,527.35,202.91,534.71,206.91Z"/></clipPath><clipPath id="clip-path-38"><path class="cls-1" d="M482,166.18l11.4,6.2c2.83,1.54,4,5.37,4,11.15l-11.4-6.2C486.07,171.55,484.88,167.72,482,166.18Z"/></clipPath><clipPath id="clip-path-39"><rect class="cls-1" x="482.04" y="166.18" width="15.42" height="17.35"/></clipPath><clipPath id="clip-path-40"><path class="cls-1" d="M495.44,151l11.4,6.2c-2.86-1.55-6.57-2.16-11.29-1.5a22.54,22.54,0,0,0-17.76,13.19l-11.39-6.2a22.51,22.51,0,0,1,17.75-13.19C488.88,148.82,492.54,149.43,495.44,151Z"/></clipPath><clipPath id="clip-path-41"><path class="cls-1" d="M439.38,209,428,202.8a6.4,6.4,0,0,0,4,.46,23,23,0,0,0,8.82-3.62l11.39,6.2a23,23,0,0,1-8.81,3.62A6.43,6.43,0,0,1,439.38,209Z"/></clipPath><clipPath id="clip-path-42"><path class="cls-1" d="M425.83,224.46l-11.4-6.2c-3.74-2-6.22-6.22-6.21-13.62l11.4,6.2C419.6,218.24,422.09,222.43,425.83,224.46Z"/></clipPath><clipPath id="clip-path-43"><rect class="cls-1" x="408.22" y="204.64" width="17.61" height="19.82"/></clipPath><clipPath id="clip-path-44"><path class="cls-1" d="M416,169.49l-11.39-6.2c5.38-1.81,7-5.06,8.33-10.67l11.4,6.19C423,164.42,421.41,167.68,416,169.49Z"/></clipPath><clipPath id="clip-path-45"><path class="cls-1" d="M336.41,315.84l-11.4-6.2a6.4,6.4,0,0,0,4,.46,23,23,0,0,0,8.8-3.62l11.4,6.2a23,23,0,0,1-8.81,3.62A6.38,6.38,0,0,1,336.41,315.84Z"/></clipPath><clipPath id="clip-path-46"><path class="cls-1" d="M322.86,331.28l-11.4-6.2c-3.74-2-6.23-6.22-6.21-13.62l11.39,6.2C316.63,325.06,319.12,329.24,322.86,331.28Z"/></clipPath><clipPath id="clip-path-47"><rect class="cls-1" x="305.25" y="311.46" width="17.61" height="19.82"/></clipPath><clipPath id="clip-path-48"><path class="cls-1" d="M313.05,276.31l-11.39-6.2c5.38-1.81,7-5.07,8.34-10.67l11.39,6.2C320,271.24,318.44,274.5,313.05,276.31Z"/></clipPath><clipPath id="clip-path-49"><path class="cls-1" d="M274.47,326.6l-11.39-6.2a12,12,0,0,0,7.54.94c4.77-.67,7.95-3,8-6.14a3.63,3.63,0,0,0-1.87-3.53l11.4,6.2A3.63,3.63,0,0,1,290,321.4c0,3.18-3.19,5.47-8,6.14A12.06,12.06,0,0,1,274.47,326.6Z"/></clipPath><clipPath id="clip-path-50"><path class="cls-1" d="M287.92,297.37l11.39,6.2c-3-1.63-6.92-2.45-11.62-2.57l-11.39-6.2C281,294.92,284.91,295.74,287.92,297.37Z"/></clipPath><clipPath id="clip-path-51"><path class="cls-1" d="M276.19,285.43l11.4,6.2a7.33,7.33,0,0,1,3.66,5.57l-11.4-6.2A7.37,7.37,0,0,0,276.19,285.43Z"/></clipPath><clipPath id="clip-path-52"><path class="cls-1" d="M274.45,299.9l-11.39-6.2a5.78,5.78,0,0,0,2.71.6l11.4,6.2A5.82,5.82,0,0,1,274.45,299.9Z"/></clipPath><clipPath id="clip-path-53"><path class="cls-1" d="M285.91,274.18l11.39,6.2c-4.27-2.32-10-3.08-17.15-2.08l-11.4-6.2C275.86,271.1,281.64,271.86,285.91,274.18Z"/></clipPath><clipPath id="clip-path-54"><path class="cls-1" d="M263.73,337.64l-11.4-6.2c-5-2.69-8.12-7.51-8.61-14.77l11.39,6.2C255.6,330.12,258.77,335,263.73,337.64Z"/></clipPath><clipPath id="clip-path-55"><path class="cls-1" d="M262.82,314.08l-11.39-6.2c-4.25-2.31-6.46-6.37-6.45-13,0-11.35,9.21-20.7,23.77-22.74l11.4,6.2c-14.56,2-23.75,11.39-23.77,22.74C256.37,307.71,258.54,311.77,262.82,314.08Z"/></clipPath><clipPath id="clip-path-56"><path class="cls-1" d="M216.35,332.49,205,326.29a12,12,0,0,0,7.42,1.12c6.12-.86,9.92-3.9,11.89-9.59l11.4,6.2c-2,5.69-5.77,8.73-11.89,9.59A12,12,0,0,1,216.35,332.49Z"/></clipPath><clipPath id="clip-path-57"><path class="cls-1" d="M217.12,294.89l11.4,6.2c2.94,1.6,4.49,5,4.72,8.75l-11.39-6.2C221.61,299.86,220.06,296.49,217.12,294.89Z"/></clipPath><clipPath id="clip-path-58"><path class="cls-1" d="M205.54,345.52l-11.4-6.2c-7.35-4-11.82-12-11.8-23.26,0-18.48,12.54-33.58,29.18-35.92,6.35-.89,11.63,0,15.8,2.3l11.4,6.2c-4.18-2.27-9.46-3.19-15.81-2.3-16.64,2.34-29.14,17.44-29.17,35.92C193.69,333.54,198.16,341.52,205.54,345.52Z"/></clipPath><clipPath id="clip-path-59"><path class="cls-1" d="M151.19,341.48l-11.4-6.2a10.46,10.46,0,0,0,6.53,1l11.4,6.2A10.46,10.46,0,0,1,151.19,341.48Z"/></clipPath><clipPath id="clip-path-60"><path class="cls-1" d="M153.1,305.17l11.4,6.2c3.77,2.06,5.61,6.84,5.6,13.28,0,9.64-4.07,16.68-12.38,17.85l-11.4-6.2c8.32-1.17,12.37-8.21,12.39-17.85C158.72,312,156.87,307.23,153.1,305.17Z"/></clipPath><clipPath id="clip-path-61"><path class="cls-1" d="M151.44,354.66l-11.4-6.2a15.77,15.77,0,0,1-6.94-7.66l11.44,6.2A15.83,15.83,0,0,0,151.44,354.66Z"/></clipPath><clipPath id="clip-path-62"><path class="cls-1" d="M165.07,290.38l11.4,6.2a20.14,20.14,0,0,0-12.67-1.93l-11.4-6.2A20.14,20.14,0,0,1,165.07,290.38Z"/></clipPath><clipPath id="clip-path-63"><path class="cls-1" d="M145.42,309.37,134,303.17a22.33,22.33,0,0,1,18.37-14.72l11.4,6.2A22.36,22.36,0,0,0,145.42,309.37Z"/></clipPath><clipPath id="clip-path-64"><path class="cls-1" d="M584.54,244l11.4,6.2c2.75,1.5,3.71,5.41,3.7,11.33l-11.4-6.2C588.28,249.39,587.33,245.48,584.54,244Z"/></clipPath><clipPath id="clip-path-65"><path class="cls-1" d="M597.78,228.89l11.4,6.2c-2.81-1.52-6.47-2.13-11.17-1.47l-11.39-6.2C591.31,226.76,595,227.37,597.78,228.89Z"/></clipPath><clipPath id="clip-path-66"><path class="cls-1" d="M579.63,248l-11.4-6.2a23.44,23.44,0,0,1,18.39-14.33l11.39,6.2A23.41,23.41,0,0,0,579.63,248Z"/></clipPath><clipPath id="clip-path-67"><path class="cls-1" d="M548.59,249.06l11.4,6.2c2.77,1.51,3.72,5.41,3.71,11.3l-11.4-6.2C552.31,254.47,551.37,250.57,548.59,249.06Z"/></clipPath><clipPath id="clip-path-68"><rect class="cls-1" x="548.59" y="249.06" width="15.11" height="17.5"/></clipPath><clipPath id="clip-path-69"><path class="cls-1" d="M562,233.84l11.4,6.2c-2.75-1.49-6.31-2.07-10.84-1.43a21.49,21.49,0,0,0-17.15,13.1l-11.4-6.2a21.49,21.49,0,0,1,17.15-13.1C555.66,231.77,559.23,232.35,562,233.84Z"/></clipPath><clipPath id="clip-path-70"><path class="cls-1" d="M484,295.36l-11.4-6.2a9.26,9.26,0,0,0,5.9.84l11.4,6.2A9.26,9.26,0,0,1,484,295.36Z"/></clipPath><clipPath id="clip-path-71"><path class="cls-1" d="M484.39,257.87l11.4,6.2c3.78,2.06,5.64,7.16,5.62,14,0,9.77-3.82,17-11.52,18.12L478.54,290c7.71-1.08,11.51-8.35,11.53-18.12C490,265,488.17,259.93,484.39,257.87Z"/></clipPath><clipPath id="clip-path-72"><path class="cls-1" d="M495.42,245.19l11.4,6.2c-4.64-2.52-10.36-3.49-16.84-2.58l-11.4-6.2C485.06,241.7,490.79,242.67,495.42,245.19Z"/></clipPath><clipPath id="clip-path-73"><path class="cls-1" d="M473.05,308.05l-11.4-6.2c-7.75-4.22-12.4-12.81-12.37-24.23,0-18.1,11.92-32.57,29.3-35l11.4,6.2c-17.38,2.44-29.27,16.91-29.31,35C460.65,295.24,465.3,303.83,473.05,308.05Z"/></clipPath><clipPath id="clip-path-74"><path class="cls-1" d="M446.35,249l11.4,6.2a11.64,11.64,0,0,0-6.93-.89l-11.4-6.2A11.63,11.63,0,0,1,446.35,249Z"/></clipPath><clipPath id="clip-path-75"><path class="cls-1" d="M435.75,268.7l-11.4-6.2c2.09-6.89,7.74-13.36,15.07-14.39l11.4,6.2C443.48,255.34,437.84,261.81,435.75,268.7Z"/></clipPath><clipPath id="clip-path-76"><path class="cls-1" d="M396.12,244.32l11.4,6.2a6.83,6.83,0,0,1,2.82,3.53l-11.4-6.2A6.83,6.83,0,0,0,396.12,244.32Z"/></clipPath><clipPath id="clip-path-77"><path class="cls-1" d="M402.54,231.94l11.4,6.2c-3.08-1.68-7-2.23-11.54-1.58l-11.4-6.2C395.6,229.71,399.48,230.26,402.54,231.94Z"/></clipPath><clipPath id="clip-path-78"><path class="cls-1" d="M381.45,262.21,370.06,256c0-14.66,8.23-23.87,21-25.65l11.4,6.2C389.69,238.34,381.48,247.55,381.45,262.21Z"/></clipPath></defs><g id="Layer_2" data-name="Layer 2"><g id="Layer_1-2" data-name="Layer 1"><g id="Layer_2-2" data-name="Layer 2"><g id="Layer_2-2-2" data-name="Layer 2-2"><g class="cls-2"><path class="cls-3" d="M739.8,251.05l-11.4-6.2,1.1.57,11.4,6.2-1.1-.57"/><path class="cls-4" d="M740.9,251.62l-11.4-6.2a36.55,36.55,0,0,0,7.18,2.56l11.4,6.2a36.55,36.55,0,0,1-7.18-2.56"/><path class="cls-5" d="M748.08,254.18l-11.4-6.2c10.33,2.62,24.77,2.61,45.32,1.87l11.4,6.2c-20.56.74-35,.75-45.32-1.87"/></g><g class="cls-6"><path class="cls-7" d="M718.44,347.3,707,341.1c-3.5-39.28-6.65-57.38-21-65.21l11.4,6.2c14.4,7.83,17.55,25.93,21,65.21"/></g><path class="cls-8" d="M718.74,185.82c6,67.82,11,72.51,74.66,70.23-63.64,15.61-68.66,21.71-75,91.25-6-67.8-11-72.5-74.65-70.22C707.43,261.47,712.44,255.37,718.74,185.82Z"/><g class="cls-9"><path class="cls-5" d="M643.79,277.08l-11.4-6.2c18.48-4.53,32-8.26,42.07-13l11.4,6.2c-10.06,4.72-23.59,8.45-42.07,13"/><path class="cls-4" d="M685.86,264.1l-11.4-6.2a58.85,58.85,0,0,0,8.48-4.77l11.39,6.2a59.71,59.71,0,0,1-8.47,4.77"/><path class="cls-3" d="M694.33,259.33l-11.39-6.2a42.88,42.88,0,0,0,4.39-3.44l11.4,6.2a43,43,0,0,1-4.4,3.44"/><path class="cls-10" d="M698.73,255.89l-11.4-6.2a37.45,37.45,0,0,0,3.14-3.16l11.4,6.2a39,39,0,0,1-3.14,3.16"/><path class="cls-11" d="M701.87,252.73l-11.4-6.2a36.86,36.86,0,0,0,2.7-3.42l11.39,6.2a38.51,38.51,0,0,1-2.69,3.42"/><path class="cls-12" d="M704.54,249.31l-11.39-6.2a39.75,39.75,0,0,0,2.61-4.28l11.4,6.2a41.51,41.51,0,0,1-2.62,4.28"/><path class="cls-13" d="M707.18,245l-11.4-6.2a53.67,53.67,0,0,0,3-6.76l11.39,6.2a52.27,52.27,0,0,1-3,6.76"/><path class="cls-7" d="M710.17,238.27l-11.39-6.2c4.35-11.89,6.38-28.37,8.56-52.45l11.4,6.2c-2.18,24.08-4.21,40.56-8.57,52.45"/></g><g class="cls-14"><path class="cls-3" d="M349.37,59.84,338,53.64c.29.17.6.32.91.47l11.39,6.2c-.31-.15-.61-.3-.91-.47"/><path class="cls-4" d="M350.28,60.31l-11.39-6.2a29.43,29.43,0,0,0,5.9,2.11l11.4,6.2a29.52,29.52,0,0,1-5.91-2.11"/><path class="cls-5" d="M356.19,62.42l-11.4-6.2c8.5,2.15,20.37,2.15,37.27,1.54l11.4,6.2c-16.9.61-28.78.61-37.27-1.54"/></g><g class="cls-15"><path class="cls-7" d="M331.81,139l-11.4-6.2c-2.88-32.31-5.47-47.2-17.31-53.64l11.4,6.2c11.84,6.44,14.43,21.33,17.31,53.64"/></g><path class="cls-8" d="M332.06,6.2c5,55.77,9.08,59.63,61.4,57.76C341.12,76.8,337,81.81,331.81,139c-5-55.77-9.08-59.63-61.4-57.76C322.75,68.42,326.87,63.4,332.06,6.2Z"/><g class="cls-16"><path class="cls-5" d="M270.41,81.25,259,75.06c15.19-3.73,26.32-6.8,34.59-10.68l11.4,6.2c-8.27,3.88-19.4,7-34.6,10.67"/><path class="cls-4" d="M305,70.58l-11.4-6.2a48,48,0,0,0,7-3.92l11.4,6.2a49.94,49.94,0,0,1-7,3.92"/><path class="cls-3" d="M312,66.66l-11.44-6.2a34.18,34.18,0,0,0,3.62-2.83l11.4,6.2a34.18,34.18,0,0,1-3.62,2.83"/><path class="cls-10" d="M315.6,63.83l-11.4-6.2a31.65,31.65,0,0,0,2.58-2.6l11.4,6.2a35.16,35.16,0,0,1-2.58,2.6"/><path class="cls-11" d="M318.18,61.23,306.78,55A31.62,31.62,0,0,0,309,52.18l11.4,6.2a31.62,31.62,0,0,1-2.22,2.82"/><path class="cls-12" d="M320.4,58.41,309,52.21a32.45,32.45,0,0,0,2.15-3.52l11.4,6.2a32.45,32.45,0,0,1-2.15,3.52"/><path class="cls-13" d="M322.54,54.89l-11.4-6.2a43.57,43.57,0,0,0,2.46-5.55l11.4,6.2a43.57,43.57,0,0,1-2.46,5.55"/><path class="cls-7" d="M325,49.34l-11.4-6.2c3.59-9.79,5.25-23.34,7.05-43.14l11.4,6.2c-1.8,19.8-3.47,33.35-7,43.14"/></g><g class="cls-17"><path class="cls-3" d="M90.37,233,79,226.8c.3.17.6.32.91.47l11.39,6.2c-.31-.15-.61-.3-.9-.47"/><path class="cls-4" d="M91.27,233.44l-11.39-6.2a29.43,29.43,0,0,0,5.9,2.11l11.4,6.2a29.52,29.52,0,0,1-5.91-2.11"/><path class="cls-5" d="M97.18,235.55l-11.4-6.2c8.49,2.15,20.37,2.14,37.27,1.54l11.4,6.2c-16.91.6-28.78.61-37.27-1.54"/></g><g class="cls-18"><path class="cls-7" d="M72.81,312.14l-11.4-6.2c-2.87-32.31-5.47-47.2-17.32-53.64l11.45,6.2c11.84,6.44,14.43,21.33,17.32,53.64"/></g><path class="cls-8" d="M73.05,179.33c5,55.77,9.08,59.64,61.4,57.76-52.34,12.83-56.46,17.85-61.64,75-5-55.77-9.09-59.63-61.41-57.76C63.74,241.55,67.87,236.53,73.05,179.33Z"/><g class="cls-19"><path class="cls-5" d="M11.4,254.38,0,248.18c15.21-3.73,26.34-6.79,34.62-10.67L46,243.71c-8.27,3.88-19.41,6.94-34.61,10.67"/><path class="cls-4" d="M46,243.71l-11.39-6.2a49,49,0,0,0,7-3.93l11.4,6.2a49,49,0,0,1-7,3.93"/><path class="cls-3" d="M53,239.78l-11.44-6.2a34.18,34.18,0,0,0,3.62-2.83L56.59,237A35.11,35.11,0,0,1,53,239.83"/><path class="cls-10" d="M56.59,237,45.2,230.8a33.18,33.18,0,0,0,2.58-2.59l11.4,6.2A31.65,31.65,0,0,1,56.59,237"/><path class="cls-11" d="M59.18,234.36l-11.4-6.2A31.5,31.5,0,0,0,50,225.34l11.4,6.2a33.44,33.44,0,0,1-2.21,2.82"/><path class="cls-12" d="M61.39,231.54,50,225.34a35.31,35.31,0,0,0,2.16-3.52L63.54,228a35.31,35.31,0,0,1-2.16,3.52"/><path class="cls-13" d="M63.54,228l-11.4-6.2a43.09,43.09,0,0,0,2.46-5.56l11.4,6.2A45.16,45.16,0,0,1,63.54,228"/><path class="cls-7" d="M66,222.46l-11.4-6.2c3.58-9.78,5.25-23.33,7-43.13l11.39,6.2c-1.79,19.8-3.46,33.35-7,43.13"/></g><g class="cls-20"><path class="cls-3" d="M788.65,313.11l-11.39-6.2a5.12,5.12,0,0,0,.52.27l11.39,6.2c-.17-.08-.35-.17-.52-.27"/><path class="cls-4" d="M789.17,313.38l-11.39-6.2a17,17,0,0,0,3.37,1.21l11.4,6.2a17.69,17.69,0,0,1-3.38-1.21"/><path class="cls-5" d="M792.54,314.59l-11.4-6.2c4.85,1.23,11.64,1.22,21.3.87l11.4,6.2c-9.66.35-16.45.36-21.3-.87"/></g><g class="cls-21"><path class="cls-7" d="M778.62,358.35l-11.4-6.2c-1.64-18.46-3.12-27-9.89-30.65l11.4,6.2c6.76,3.68,8.25,12.19,9.89,30.65"/></g><path class="cls-8" d="M778.76,282.47c2.84,31.86,5.19,34.07,35.09,33-29.91,7.35-32.27,10.21-35.23,42.89-2.84-31.87-5.19-34.07-35.09-33C773.44,318,775.8,315.15,778.76,282.47Z"/><g class="cls-22"><path class="cls-5" d="M743.54,325.35l-11.39-6.2c8.69-2.13,15-3.89,19.78-6.1l11.39,6.2c-4.72,2.21-11.09,4-19.78,6.1"/><path class="cls-4" d="M763.31,319.25l-11.39-6.2a29,29,0,0,0,4-2.24L767.29,317a28.07,28.07,0,0,1-4,2.25"/><path class="cls-3" d="M767.29,317l-11.39-6.19a20.1,20.1,0,0,0,2.06-1.62l11.4,6.2a19.1,19.1,0,0,1-2.07,1.61"/><path class="cls-10" d="M769.36,315.39l-11.4-6.2a17.34,17.34,0,0,0,1.48-1.49l11.4,6.2a20.8,20.8,0,0,1-1.48,1.49"/><path class="cls-11" d="M770.84,313.9l-11.4-6.2a17.72,17.72,0,0,0,1.26-1.6l11.4,6.2a17.72,17.72,0,0,1-1.26,1.6"/><path class="cls-12" d="M772.1,312.3l-11.4-6.2a19.5,19.5,0,0,0,1.23-2l11.4,6.2a19.5,19.5,0,0,1-1.23,2"/><path class="cls-13" d="M773.33,310.28l-11.4-6.2a23,23,0,0,0,1.41-3.17l11.4,6.2a25.69,25.69,0,0,1-1.41,3.17"/><path class="cls-7" d="M774.74,307.11l-11.4-6.2c2-5.59,3-13.33,4-24.64l11.39,6.2c-1,11.31-2,19-4,24.64"/></g><polygon class="cls-23" points="145.88 552.69 134.48 546.49 212.18 535.57 223.58 541.77 145.88 552.69"/><g class="cls-24"><path class="cls-25" d="M132.31,515.87l-11.4-6.2c7.64-7.77,14.11-14.5,19.49-20.6l11.4,6.2c-5.39,6.1-11.86,12.83-19.49,20.6"/><path class="cls-26" d="M151.8,495.27l-11.4-6.2A153.54,153.54,0,0,0,151,475.84L162.43,482a150.2,150.2,0,0,1-10.63,13.24"/><path class="cls-27" d="M162.43,482,151,475.81a79.73,79.73,0,0,0,4.87-7.82l11.4,6.19a78,78,0,0,1-4.88,7.82"/><path class="cls-28" d="M167.31,474.21,155.91,468a54.48,54.48,0,0,0,3.19-7l11.4,6.2a53.87,53.87,0,0,1-3.19,7"/><path class="cls-29" d="M170.54,467.17l-11.4-6.2A46.26,46.26,0,0,0,162,444.71c0-9.75-2.83-17.48-9.43-21.07l11.39,6.2c6.61,3.59,9.45,11.32,9.43,21.07a46.48,46.48,0,0,1-2.84,16.26"/></g><polygon class="cls-30" points="80.56 602.18 69.16 595.99 69.22 562.06 80.62 568.26 80.56 602.18"/><polygon class="cls-31" points="80.62 568.26 69.22 562.06 120.91 509.68 132.31 515.88 80.62 568.26"/><g class="cls-32"><path class="cls-33" d="M151.22,386.81l-11.39-6.2c12-1.68,22.46-1.19,31.45,1.12l11.4,6.2c-9-2.32-19.5-2.8-31.46-1.12"/><path class="cls-34" d="M182.68,387.93l-11.4-6.2a54.5,54.5,0,0,1,10.43,3.81l11.4,6.2a54.5,54.5,0,0,0-10.43-3.81"/><path class="cls-35" d="M193.11,391.74l-11.4-6.2c.63.31,1.26.63,1.87,1l11.39,6.2c-.61-.34-1.23-.66-1.86-1"/></g><path class="cls-36" d="M151.22,386.81c44.79-6.29,69.32,17.78,69.32,54.59-.07,35.21-19.38,56.8-48.78,85.57l-25.84,25.72,77.62-10.92V582.1l-143,20.08.06-33.92,51.69-52.39c28.81-29.33,41-43.84,41-65,0-15.05-6.77-25.29-23.68-22.92-17.79,2.5-25.53,17.35-25.56,36.55a59,59,0,0,0,2,16.67l-43.9,4.89c-1.17-6.23-2.34-12.47-2.33-18.54C80,424.66,108.82,392.77,151.22,386.81Z"/><g class="cls-37"><path class="cls-29" d="M82.25,486.1l-11.39-6.2c-1.18-6.23-2.32-12.47-2.32-18.54a86.36,86.36,0,0,1,5.14-29.69l11.4,6.2a86.36,86.36,0,0,0-5.14,29.69c0,6.07,1.16,12.31,2.33,18.54"/><path class="cls-28" d="M85.06,437.87l-11.4-6.2a78,78,0,0,1,4.51-10l11.4,6.2a78,78,0,0,0-4.51,10"/><path class="cls-27" d="M89.54,427.84l-11.4-6.2A76,76,0,0,1,82.89,414l11.4,6.2a76.21,76.21,0,0,0-4.72,7.67"/><path class="cls-26" d="M94.29,420.17,82.89,414a78.23,78.23,0,0,1,5.25-6.65l11.4,6.2a76.28,76.28,0,0,0-5.25,6.65"/><path class="cls-25" d="M99.54,413.52l-11.4-6.2a75.55,75.55,0,0,1,6.17-6.23l11.4,6.2a75.55,75.55,0,0,0-6.17,6.23"/><path class="cls-35" d="M105.71,407.29l-11.4-6.2a78.58,78.58,0,0,1,7.81-6.16l11.4,6.2a78.58,78.58,0,0,0-7.81,6.16"/><path class="cls-34" d="M113.54,401.13l-11.4-6.2a80.78,80.78,0,0,1,11.67-6.69l11.4,6.2a80.78,80.78,0,0,0-11.67,6.69"/><path class="cls-33" d="M125.19,394.44l-11.4-6.2a90.86,90.86,0,0,1,26-7.63l11.39,6.2a90.86,90.86,0,0,0-26,7.63"/></g><g class="cls-38"><path class="cls-35" d="M305.6,530.46l-11.39-6.2q.39.22.81.42l11.4,6.2c-.28-.13-.55-.27-.82-.42"/><path class="cls-34" d="M306.42,530.88l-11.4-6.2a22.44,22.44,0,0,0,4.35,1.59l11.4,6.2a22.44,22.44,0,0,1-4.35-1.59"/><path class="cls-33" d="M310.77,532.47l-11.4-6.2a32.17,32.17,0,0,0,12.44.42l11.39,6.2a32.12,32.12,0,0,1-12.43-.42"/></g><g class="cls-39"><path class="cls-33" d="M323.2,532.89l-11.39-6.2a38.38,38.38,0,0,0,10.9-3.14l11.4,6.2a38.45,38.45,0,0,1-10.91,3.14"/><path class="cls-34" d="M334.11,529.75l-11.4-6.2a31.39,31.39,0,0,0,4.57-2.62l11.39,6.2a30.77,30.77,0,0,1-4.56,2.62"/><path class="cls-35" d="M338.67,527.13l-11.39-6.2a31.91,31.91,0,0,0,3.26-2.53l11.4,6.2a29.14,29.14,0,0,1-3.22,2.53"/><path class="cls-25" d="M341.89,524.6l-11.35-6.2a34.52,34.52,0,0,0,2.69-2.72l11.39,6.2a34.39,34.39,0,0,1-2.68,2.72"/><path class="cls-26" d="M344.54,521.88l-11.39-6.2a36.32,36.32,0,0,0,2.55-3.24l11.39,6.2a34.58,34.58,0,0,1-2.55,3.24"/><path class="cls-27" d="M347.12,518.64l-11.39-6.2a41.71,41.71,0,0,0,2.64-4.33l11.4,6.2a40.76,40.76,0,0,1-2.65,4.33"/><path class="cls-28" d="M349.77,514.31l-11.4-6.2a54.78,54.78,0,0,0,3.13-7.05l11.4,6.2a54.75,54.75,0,0,1-3.13,7"/><path class="cls-29" d="M352.9,507.26l-11.4-6.2c4.09-11.21,6-26.13,6-45,.06-32.18-5.34-51.37-17.87-58.19l11.4,6.2c12.53,6.82,17.92,26,17.86,58.19,0,18.87-1.92,33.79-6,45"/></g><g class="cls-40"><path class="cls-33" d="M323.54,362.6l-11.4-6.2c11.4-1.61,21.87-1.17,31.25,1.23l11.4,6.2c-9.38-2.4-19.85-2.84-31.25-1.23"/><path class="cls-34" d="M354.77,363.83l-11.4-6.2a61.42,61.42,0,0,1,11.7,4.29l11.4,6.2a61.42,61.42,0,0,0-11.7-4.29"/><path class="cls-35" d="M366.47,368.12l-11.4-6.2c.74.37,1.48.75,2.2,1.14l11.4,6.2c-.73-.39-1.46-.77-2.2-1.14"/></g><g class="cls-41"><path class="cls-29" d="M278,565.27l-11.4-6.2c-23.89-13-37.77-42.41-37.69-86.34,0-20.54,3.12-38.77,8.84-54.37l11.4,6.2c-5.72,15.6-8.8,33.83-8.84,54.37-.08,43.93,13.79,73.34,37.69,86.34"/><path class="cls-28" d="M249.13,424.56l-11.4-6.2a115.38,115.38,0,0,1,6.55-14.63l11.39,6.2a113.92,113.92,0,0,0-6.54,14.63"/><path class="cls-27" d="M255.67,409.93l-11.39-6.2a102.14,102.14,0,0,1,6.26-10.13l11.4,6.2a101.87,101.87,0,0,0-6.23,10.13"/><path class="cls-26" d="M261.9,399.8l-11.36-6.2a92.48,92.48,0,0,1,6.45-8.19l11.4,6.2a89.29,89.29,0,0,0-6.45,8.19"/><path class="cls-25" d="M268.35,391.61l-11.4-6.2a85,85,0,0,1,7.13-7.2l11.4,6.2a85,85,0,0,0-7.13,7.2"/><path class="cls-35" d="M275.48,384.41l-11.4-6.2a84,84,0,0,1,8.59-6.79l11.4,6.2a84,84,0,0,0-8.59,6.79"/><path class="cls-34" d="M284.07,377.62l-11.4-6.2A84.9,84.9,0,0,1,285,364.35l11.4,6.2a84.9,84.9,0,0,0-12.31,7.07"/><path class="cls-33" d="M296.38,370.55l-11.4-6.2a93.93,93.93,0,0,1,27.14-8l11.4,6.2a94.15,94.15,0,0,0-27.14,7.95"/></g><path class="cls-36" d="M323.54,362.6c50.71-7.13,83,26.1,82.84,93s-32.54,109.2-83.25,116.33-83-26.09-82.84-93S272.8,369.72,323.54,362.6Zm-.32,170.29c25.21-3.55,35.63-26.14,35.71-70.63s-10.26-64.15-35.46-60.61-35.63,26.12-35.71,70.61,10.25,64.17,35.46,60.63"/><polygon class="cls-23" points="492.54 503.97 481.15 497.77 558.85 486.85 570.25 493.05 492.54 503.97"/><g class="cls-42"><path class="cls-25" d="M479,467.15,467.54,461c7.64-7.77,14.1-14.5,19.49-20.6l11.39,6.2c-5.38,6.09-11.85,12.83-19.49,20.6"/><path class="cls-26" d="M498.46,446.55l-11.39-6.2a150.2,150.2,0,0,0,10.63-13.24l11.4,6.2a152.16,152.16,0,0,1-10.64,13.24"/><path class="cls-27" d="M509.1,433.31l-11.4-6.2a78,78,0,0,0,4.88-7.82l11.4,6.2a78,78,0,0,1-4.88,7.82"/><path class="cls-28" d="M514,425.49l-11.4-6.2a53.87,53.87,0,0,0,3.19-7l11.4,6.2a53.87,53.87,0,0,1-3.19,7"/><path class="cls-29" d="M517.17,418.45l-11.4-6.2A46.42,46.42,0,0,0,508.61,396c0-9.75-2.83-17.48-9.43-21.07l11.4,6.2c6.6,3.59,9.45,11.32,9.43,21.07a46.48,46.48,0,0,1-2.84,16.26"/></g><polygon class="cls-30" points="427.22 553.46 415.83 547.26 415.89 513.34 427.29 519.54 427.22 553.46"/><polygon class="cls-31" points="427.29 519.54 415.89 513.34 467.58 460.95 478.97 467.15 427.29 519.54"/><g class="cls-43"><path class="cls-33" d="M497.89,338.09l-11.4-6.2c12-1.68,22.47-1.2,31.46,1.12l11.4,6.2c-9-2.32-19.51-2.8-31.46-1.12"/><path class="cls-34" d="M529.35,339.21,518,333a54.5,54.5,0,0,1,10.43,3.81l11.4,6.2a54.5,54.5,0,0,0-10.43-3.81"/><path class="cls-35" d="M539.78,343l-11.4-6.2c.64.31,1.26.63,1.87,1l11.4,6.2-1.87-1"/></g><path class="cls-36" d="M497.89,338.09c44.79-6.29,69.35,17.78,69.28,54.59-.06,35.21-19.38,56.8-48.78,85.57L492.54,504l77.71-10.92-.08,40.32L427.22,553.46l.07-33.92L479,467.15c28.82-29.33,41-43.84,41-65,0-15-6.78-25.29-23.68-22.92-17.79,2.5-25.53,17.35-25.56,36.55a59.78,59.78,0,0,0,2,16.68l-43.89,4.88c-1.17-6.23-2.35-12.47-2.33-18.55C426.67,375.94,455.48,344.05,497.89,338.09Z"/><g class="cls-44"><path class="cls-29" d="M428.92,437.38l-11.38-6.2c-1.18-6.23-2.35-12.47-2.34-18.55A86.25,86.25,0,0,1,420.33,383l11.4,6.2a86.31,86.31,0,0,0-5.14,29.68c0,6.08,1.16,12.32,2.33,18.55"/><path class="cls-28" d="M431.73,389.15l-11.4-6.2a78,78,0,0,1,4.51-10l11.39,6.2a78,78,0,0,0-4.5,10"/><path class="cls-27" d="M436.23,379.12l-11.39-6.2a76.21,76.21,0,0,1,4.72-7.67l11.4,6.2a74.51,74.51,0,0,0-4.73,7.67"/><path class="cls-26" d="M441,371.45l-11.4-6.2a76.28,76.28,0,0,1,5.25-6.65l11.39,6.2a73.28,73.28,0,0,0-5.24,6.65"/><path class="cls-25" d="M446.2,364.8l-11.39-6.2a75.55,75.55,0,0,1,6.17-6.23l11.39,6.2a75.55,75.55,0,0,0-6.17,6.23"/><path class="cls-35" d="M452.37,358.57,441,352.37a78.58,78.58,0,0,1,7.81-6.16l11.39,6.2a80.08,80.08,0,0,0-7.81,6.16"/><path class="cls-34" d="M460.18,352.41l-11.39-6.2a81.79,81.79,0,0,1,11.67-6.7l11.4,6.2a81.89,81.89,0,0,0-11.68,6.7"/><path class="cls-33" d="M471.86,345.71l-11.4-6.2a91.16,91.16,0,0,1,26-7.62l11.4,6.2a91.16,91.16,0,0,0-26,7.62"/></g><polygon class="cls-30" points="619.98 526.37 608.58 520.17 608.84 380.93 620.24 387.13 619.98 526.37"/><polygon class="cls-23" points="630.74 322.94 619.34 316.74 654.03 311.86 665.43 318.06 630.74 322.94"/><path class="cls-36" d="M665.43,318.06l-.38,202L620,526.39l.26-139.24-35,4.92.06-32c26.1-3.66,38.57-15,45.44-37.1Z"/><polygon class="cls-30" points="585.24 392.05 573.84 385.85 573.9 353.84 585.3 360.04 585.24 392.05"/><g class="cls-45"><path class="cls-33" d="M585.3,360l-11.4-6.2a71.06,71.06,0,0,0,20.47-5.66l11.4,6.2A71.06,71.06,0,0,1,585.3,360"/><path class="cls-34" d="M605.77,354.38l-11.4-6.2a45.74,45.74,0,0,0,6.45-3.69l11.39,6.2a44.14,44.14,0,0,1-6.44,3.69"/><path class="cls-35" d="M612.21,350.69l-11.39-6.2a42.48,42.48,0,0,0,4.1-3.23l11.4,6.2a41.41,41.41,0,0,1-4.11,3.23"/><path class="cls-25" d="M616.32,347.46l-11.4-6.2a39.64,39.64,0,0,0,3.29-3.32l11.4,6.19a41.34,41.34,0,0,1-3.29,3.33"/><path class="cls-26" d="M619.61,344.13l-11.4-6.19a43.92,43.92,0,0,0,3-3.8l11.39,6.2a43.78,43.78,0,0,1-3,3.79"/><path class="cls-27" d="M622.59,340.34l-11.39-6.2a50.28,50.28,0,0,0,3.06-5l11.4,6.2a52.33,52.33,0,0,1-3.07,5"/><path class="cls-28" d="M625.66,335.35l-11.4-6.2a65.36,65.36,0,0,0,3.71-8.34l11.39,6.2a65.3,65.3,0,0,1-3.7,8.34"/><path class="cls-29" d="M629.36,327,618,320.8c.48-1.32.93-2.67,1.37-4.07l11.4,6.2c-.44,1.4-.9,2.75-1.38,4.07"/></g><polygon class="cls-23" points="231.69 236.33 220.3 230.13 252.35 225.62 263.75 231.82 231.69 236.33"/><g class="cls-46"><path class="cls-25" d="M226.09,221.14l-11.4-6.2c3.16-3.21,5.83-6,8-8.5l11.39,6.2c-2.22,2.51-4.89,5.29-8,8.5"/><path class="cls-26" d="M234.13,212.64l-11.39-6.2a63.81,63.81,0,0,0,4.38-5.46l11.4,6.2a63.93,63.93,0,0,1-4.39,5.46"/><path class="cls-27" d="M238.54,207.18l-11.4-6.2a30.5,30.5,0,0,0,2-3.23l11.4,6.25a28.94,28.94,0,0,1-2,3.23"/><path class="cls-28" d="M240.54,204l-11.39-6.2a21.61,21.61,0,0,0,1.31-2.9l11.4,6.2a20.48,20.48,0,0,1-1.32,2.9"/><path class="cls-29" d="M241.85,201.05l-11.4-6.2a19.2,19.2,0,0,0,1.18-6.71c0-4-1.17-7.21-3.89-8.69l11.4,6.2c2.72,1.48,3.89,4.66,3.88,8.68a19,19,0,0,1-1.17,6.72"/></g><polygon class="cls-30" points="204.75 256.75 193.35 250.55 193.38 236.56 204.77 242.76 204.75 256.75"/><polygon class="cls-31" points="204.77 242.76 193.38 236.56 214.7 214.94 226.09 221.14 204.77 242.76"/><g class="cls-47"><path class="cls-33" d="M233.9,167.9l-11.36-6.2a33.1,33.1,0,0,1,13,.46l11.4,6.2a33.1,33.1,0,0,0-13-.46"/><path class="cls-34" d="M246.88,168.36l-11.4-6.2a22,22,0,0,1,4.31,1.57l11.39,6.2a21.92,21.92,0,0,0-4.3-1.57"/><path class="cls-35" d="M251.18,169.93l-11.39-6.2.77.4,11.39,6.2c-.25-.14-.51-.27-.77-.4"/></g><path class="cls-36" d="M233.9,167.9c18.47-2.6,28.61,7.32,28.58,22.52,0,14.52-8,23.43-20.12,35.3l-10.67,10.61,32.06-4.51v16.65l-59,8.28v-14l21.32-21.62C238,209,243,203,243,194.32c0-6.2-2.79-10.42-9.77-9.44-7.33,1-10.52,7.15-10.54,15.07a24.24,24.24,0,0,0,.85,6.89l-18.12,2a42.07,42.07,0,0,1-1-7.66C204.54,183.51,216.4,170.36,233.9,167.9Z"/><g class="cls-48"><path class="cls-29" d="M205.44,208.86l-11.39-6.2a40.39,40.39,0,0,1-1-7.66,35.23,35.23,0,0,1,2.12-12.24l11.39,6.2a35.7,35.7,0,0,0-2.12,12.24,42.07,42.07,0,0,0,1,7.66"/><path class="cls-28" d="M206.6,189l-11.39-6.2a32.65,32.65,0,0,1,1.85-4.14l11.4,6.2A31.35,31.35,0,0,0,206.6,189"/><path class="cls-27" d="M208.46,184.82l-11.4-6.2a31.91,31.91,0,0,1,1.95-3.16l11.4,6.2a30.57,30.57,0,0,0-2,3.16"/><path class="cls-26" d="M210.41,181.66l-11.4-6.2a30,30,0,0,1,2.17-2.74l11.39,6.2a31.71,31.71,0,0,0-2.16,2.74"/><path class="cls-25" d="M212.54,178.92l-11.39-6.2a28,28,0,0,1,2.54-2.57l11.4,6.2a30.92,30.92,0,0,0-2.55,2.57"/><path class="cls-35" d="M215.12,176.35l-11.4-6.2a31.52,31.52,0,0,1,3.22-2.54l11.4,6.2a31.52,31.52,0,0,0-3.22,2.54"/><path class="cls-34" d="M218.34,173.81l-11.4-6.2a34.38,34.38,0,0,1,4.82-2.77l11.4,6.2a33.41,33.41,0,0,0-4.82,2.77"/><path class="cls-33" d="M223.16,171l-11.4-6.2a37.54,37.54,0,0,1,10.78-3.1l11.39,6.2a37.38,37.38,0,0,0-10.77,3.1"/></g><polygon class="cls-30" points="175.75 260.83 164.35 254.63 164.46 197.18 175.86 203.38 175.75 260.83"/><polygon class="cls-23" points="180.18 176.9 168.79 170.7 183.11 168.69 194.5 174.89 180.18 176.9"/><path class="cls-36" d="M194.54,174.89l-.15,83.32-18.6,2.62.11-57.45-14.44,2V192.17c10.76-1.51,15.9-6.19,18.73-15.3Z"/><polygon class="cls-30" points="161.42 205.41 150.03 199.21 150.05 186 161.45 192.2 161.42 205.41"/><g class="cls-49"><path class="cls-33" d="M161.45,192.2l-11.4-6.2a29.5,29.5,0,0,0,8.44-2.33l11.4,6.2a29.5,29.5,0,0,1-8.44,2.33"/><path class="cls-34" d="M169.89,189.87l-11.4-6.2a17.92,17.92,0,0,0,2.66-1.52l11.39,6.2a18.34,18.34,0,0,1-2.65,1.52"/><path class="cls-35" d="M172.54,188.35l-11.39-6.2a16.85,16.85,0,0,0,1.69-1.34l11.4,6.2a18.19,18.19,0,0,1-1.7,1.34"/><path class="cls-25" d="M174.24,187l-11.4-6.2a17.58,17.58,0,0,0,1.36-1.37l11.39,6.2a15.86,15.86,0,0,1-1.35,1.37"/><path class="cls-26" d="M175.59,185.64l-11.39-6.2a18.31,18.31,0,0,0,1.23-1.56l11.39,6.2a15.63,15.63,0,0,1-1.23,1.56"/><path class="cls-27" d="M176.82,184.08l-11.39-6.2a20.62,20.62,0,0,0,1.26-2.06l11.4,6.2a19,19,0,0,1-1.27,2.06"/><path class="cls-28" d="M178.09,182l-11.4-6.2a27,27,0,0,0,1.53-3.43l11.39,6.19a27,27,0,0,1-1.52,3.44"/><path class="cls-29" d="M179.61,178.58l-11.39-6.19c.2-.55.39-1.11.57-1.69l11.39,6.2q-.27.87-.57,1.68"/></g><g class="cls-50"><path class="cls-29" d="M387.9,164.86l-11.4-6.2a6.92,6.92,0,0,0-2.82-3.53l11.4,6.2a6.92,6.92,0,0,1,2.82,3.53"/></g><polygon class="cls-23" points="376.5 173.99 365.11 167.79 379.18 165.82 390.58 172.02 376.5 173.99"/><polygon class="cls-30" points="358.9 235.09 347.5 228.89 347.59 183.59 358.98 189.79 358.9 235.09"/><g class="cls-51"><path class="cls-33" d="M380,147.37l-11.4-6.2a20.9,20.9,0,0,1,8.26.3l11.4,6.2a20.9,20.9,0,0,0-8.26-.3"/><path class="cls-34" d="M388.24,147.67l-11.4-6.2a13.86,13.86,0,0,1,2.79,1l11.39,6.2a14.41,14.41,0,0,0-2.78-1"/><path class="cls-35" d="M391,148.69l-11.39-6.2.5.26L391.54,149l-.51-.26"/></g><polygon class="cls-30" points="359.01 176.45 347.61 170.25 347.62 166.82 359.02 173.02 359.01 176.45"/><polygon class="cls-30" points="351.03 190.91 339.63 184.71 339.66 171.37 351.05 177.57 351.03 190.91"/><polygon class="cls-23" points="351.05 177.57 339.66 171.37 347.61 170.25 359.01 176.45 351.05 177.57"/><g class="cls-52"><path class="cls-29" d="M359,173l-11.39-6.2a31.38,31.38,0,0,1,1.77-10.73l11.4,6.2A31.39,31.39,0,0,0,359,173"/><path class="cls-28" d="M360.79,162.29l-11.4-6.2a26.24,26.24,0,0,1,1.41-3.16l11.4,6.2a22.89,22.89,0,0,0-1.41,3.16"/><path class="cls-27" d="M362.2,159.13l-11.4-6.2a20.7,20.7,0,0,1,1.41-2.29l11.4,6.2a20.7,20.7,0,0,0-1.41,2.29"/><path class="cls-26" d="M363.61,156.84l-11.4-6.2c.47-.66,1-1.3,1.5-1.91l11.4,6.2c-.53.61-1,1.25-1.5,1.91"/><path class="cls-25" d="M365.11,154.93l-11.4-6.2a23.53,23.53,0,0,1,1.73-1.73l11.39,6.2a23.53,23.53,0,0,0-1.72,1.74"/><path class="cls-35" d="M366.83,153.19,355.44,147a22.56,22.56,0,0,1,2.18-1.72l11.4,6.2a21.53,21.53,0,0,0-2.19,1.72"/><path class="cls-34" d="M369,151.47l-11.4-6.2a23,23,0,0,1,3.27-1.87l11.39,6.2a22.37,22.37,0,0,0-3.26,1.87"/><path class="cls-33" d="M372.28,149.6l-11.39-6.2a26.52,26.52,0,0,1,7.69-2.23l11.4,6.2a26.58,26.58,0,0,0-7.7,2.23"/></g><path class="cls-36" d="M380,147.37c10-1.41,16.76,2.92,18.94,12.25l-11,5.24c-1.22-2.86-3.05-4.45-6.11-4-3.79.53-5.27,3.91-5.28,8.27V174l14-2v13.34l-14.07,2-.09,45.3-17.49,2.46.08-45.3-8,1.12V177.58l8-1.12V173C359,158.36,367.26,149.15,380,147.37Z"/><g class="cls-53"><path class="cls-35" d="M313.07,227l-11.4-6.2.29.15,11.4,6.2-.29-.15"/><path class="cls-34" d="M313.36,227.19,302,221a8.89,8.89,0,0,0,1.49.55l11.4,6.2a8.09,8.09,0,0,1-1.49-.55"/><path class="cls-33" d="M314.85,227.74l-11.4-6.2a10.53,10.53,0,0,0,4.07.16l11.4,6.2a10.53,10.53,0,0,1-4.07-.16"/></g><g class="cls-54"><path class="cls-33" d="M318.92,227.9l-11.38-6.2a12.07,12.07,0,0,0,3.48-1l11.4,6.2a12.07,12.07,0,0,1-3.48,1"/><path class="cls-34" d="M322.4,226.88l-11.4-6.2a10,10,0,0,0,1.62-.93L324,226a10.35,10.35,0,0,1-1.61.93"/><path class="cls-35" d="M324,226l-11.39-6.2a9.8,9.8,0,0,0,1.14-.9l11.39,6.2a9.8,9.8,0,0,1-1.14.9"/><path class="cls-25" d="M325.15,225.05l-11.39-6.2a11.8,11.8,0,0,0,1-1l11.4,6.2a11.8,11.8,0,0,1-1,1"/><path class="cls-26" d="M326.13,224.06l-11.4-6.2a11.21,11.21,0,0,0,.91-1.15l11.4,6.2a14.35,14.35,0,0,1-.91,1.15"/><path class="cls-27" d="M327,222.91l-11.4-6.2a12.82,12.82,0,0,0,.92-1.5l11.4,6.2a12.82,12.82,0,0,1-.92,1.5"/><path class="cls-28" d="M328,221.41l-11.4-6.2a16.87,16.87,0,0,0,1-2.26l11.4,6.2a18.94,18.94,0,0,1-1,2.26"/><path class="cls-29" d="M329,219.15,317.54,213a27.61,27.61,0,0,0,1.49-9.37c0-6.86-1.85-12-5.63-14l11.4,6.2c3.77,2.06,5.64,7.16,5.62,14a27.6,27.6,0,0,1-1.48,9.37"/></g><g class="cls-55"><path class="cls-33" d="M319,180.49l-11.4-6.2a29.47,29.47,0,0,1,11.53.51l11.4,6.2a29.41,29.41,0,0,0-11.52-.51"/><path class="cls-34" d="M330.54,181l-11.39-6.2a22.73,22.73,0,0,1,4.5,1.66l11.4,6.2a22.59,22.59,0,0,0-4.51-1.66"/><path class="cls-35" d="M335,182.66l-11.4-6.2q.42.19.81.42l11.4,6.2-.81-.42"/></g><g class="cls-56"><path class="cls-29" d="M302.08,239.73l-11.39-6.2c-7.76-4.21-12.4-12.8-12.38-24.23a38.57,38.57,0,0,1,2.29-13.16l11.4,6.2a38.34,38.34,0,0,0-2.3,13.16c0,11.43,4.63,20,12.38,24.23"/><path class="cls-28" d="M292,202.34l-11.4-6.2a34.52,34.52,0,0,1,2-4.56l11.4,6.2a33.27,33.27,0,0,0-2.05,4.56"/><path class="cls-27" d="M294.05,197.78l-11.4-6.2a33.94,33.94,0,0,1,2.12-3.45l11.4,6.2a33.94,33.94,0,0,0-2.12,3.45"/><path class="cls-26" d="M296.17,194.33l-11.4-6.2a34.43,34.43,0,0,1,2.32-2.94l11.39,6.2a36.41,36.41,0,0,0-2.31,2.94"/><path class="cls-25" d="M298.48,191.39l-11.39-6.2a33.51,33.51,0,0,1,2.65-2.68l11.4,6.2a33.63,33.63,0,0,0-2.66,2.68"/><path class="cls-35" d="M301.14,188.71l-11.4-6.2a34.47,34.47,0,0,1,3.29-2.6l11.4,6.2a33,33,0,0,0-3.29,2.6"/><path class="cls-34" d="M304.43,186.11l-11.4-6.2a33.38,33.38,0,0,1,4.68-2.69l11.4,6.2a31.51,31.51,0,0,0-4.68,2.69"/><path class="cls-33" d="M309.11,183.42l-11.4-6.2a34.23,34.23,0,0,1,9.9-2.93l11.4,6.2a34.23,34.23,0,0,0-9.9,2.93"/></g><path class="cls-36" d="M319,180.49c17.37-2.44,29.34,8.68,29.31,26.78s-12,32.58-29.43,35-29.22-8.56-29.19-26.79S301.63,182.93,319,180.49Zm-.09,47.41c7.71-1.09,11.51-8.35,11.53-18.12s-3.76-16-11.47-14.89-11.39,8.33-11.44,18.11,3.52,16,11.35,14.91"/><polygon class="cls-57" points="564.85 185.42 553.46 179.22 567.65 178.67 579.05 184.87 564.85 185.42"/><g class="cls-58"><path class="cls-35" d="M545.54,193.88l-11.4-6.2.36.18,11.4,6.2-.36-.18"/><path class="cls-34" d="M545.9,194.06l-11.4-6.2a9,9,0,0,0,2,.72l11.4,6.2a9,9,0,0,1-2-.72"/><path class="cls-33" d="M547.86,194.78l-11.4-6.2a13.13,13.13,0,0,0,5.11.22,17,17,0,0,0,5-1.41l11.4,6.2a17,17,0,0,1-5,1.41,13.13,13.13,0,0,1-5.11-.22"/><path class="cls-34" d="M557.94,193.59l-11.4-6.2a12,12,0,0,0,1.82-1l11.4,6.2a12.89,12.89,0,0,1-1.82,1"/><path class="cls-35" d="M559.76,192.55l-11.4-6.2a12.33,12.33,0,0,0,1.21-.95L561,191.6a12.72,12.72,0,0,1-1.2,1"/><path class="cls-25" d="M561,191.6l-11.42-6.2a11.8,11.8,0,0,0,1-1l11.4,6.2a11.8,11.8,0,0,1-1,1"/><path class="cls-26" d="M561.94,190.61l-11.4-6.2a10.78,10.78,0,0,0,.89-1.13l11.4,6.2a11.93,11.93,0,0,1-.89,1.13"/><path class="cls-27" d="M562.83,189.48l-11.4-6.2a12,12,0,0,0,.89-1.45l11.4,6.2a12,12,0,0,1-.89,1.45"/><path class="cls-28" d="M563.72,188l-11.4-6.2a17,17,0,0,0,1-2.27l11.39,6.2a17,17,0,0,1-1,2.27"/><path class="cls-29" d="M564.73,185.76l-11.39-6.2.12-.34,11.39,6.2-.12.34"/></g><g class="cls-59"><path class="cls-29" d="M562.43,171.24,551,165c-.23-3.79-1.78-7.16-4.73-8.76l11.4,6.2c2.94,1.6,4.5,5,4.73,8.76"/></g><polygon class="cls-23" points="540.53 174.31 529.13 168.11 551.03 165.04 562.43 171.24 540.53 174.31"/><path class="cls-36" d="M579.43,173.2V179l-39.15,5.5c.47,7.73,5.85,11.46,12.7,10.49,6.12-.86,9.91-3.9,11.88-9.58l14.2-.55c-2.85,13.73-12.52,22.62-26.72,24.62-17.25,2.42-29.46-7.22-29.43-25.84s12.54-33.58,29.18-35.91C570.06,145.21,579.46,157.22,579.43,173.2Zm-38.89,1.11,21.9-3.07c-.36-5.77-3.77-10.57-10.5-9.63-7.09,1-10.41,6.36-11.4,12.7"/><g class="cls-60"><path class="cls-29" d="M534.71,206.91l-11.39-6.2c-7.37-4-11.84-12-11.81-23.26A38.81,38.81,0,0,1,513.88,164l11.39,6.2a39.34,39.34,0,0,0-2.37,13.46c0,11.28,4.45,19.26,11.81,23.26"/><path class="cls-28" d="M525.27,170.19,513.88,164a36.94,36.94,0,0,1,2.15-4.81l11.4,6.2a38.39,38.39,0,0,0-2.16,4.81"/><path class="cls-27" d="M527.43,165.38l-11.4-6.2a38.3,38.3,0,0,1,2.26-3.66l11.4,6.2a38.3,38.3,0,0,0-2.26,3.66"/><path class="cls-26" d="M529.69,161.72l-11.4-6.2a36.79,36.79,0,0,1,2.45-3.11l11.39,6.2a36.68,36.68,0,0,0-2.44,3.11"/><path class="cls-25" d="M532.13,158.61l-11.39-6.2a33.39,33.39,0,0,1,2.78-2.8l11.39,6.2a35,35,0,0,0-2.78,2.8"/><path class="cls-35" d="M534.91,155.81l-11.37-6.2A31.9,31.9,0,0,1,526.9,147l11.39,6.2a34.42,34.42,0,0,0-3.36,2.66"/><path class="cls-34" d="M538.27,153.15,526.88,147a33.74,33.74,0,0,1,4.66-2.69l11.39,6.2a33.74,33.74,0,0,0-4.66,2.69"/><path class="cls-33" d="M542.93,150.46l-11.39-6.2a31.7,31.7,0,0,1,9.14-2.72,28.3,28.3,0,0,1,11,.43l11.4,6.2a28.3,28.3,0,0,0-11-.43,31.86,31.86,0,0,0-9.15,2.72"/><path class="cls-34" d="M563.1,148.17,551.7,142a20.45,20.45,0,0,1,4,1.48l11.4,6.2a20.45,20.45,0,0,0-4-1.48"/><path class="cls-35" d="M567.14,149.65l-11.4-6.2c.26.12.5.25.75.38l11.4,6.2-.75-.38"/></g><polygon class="cls-30" points="497.4 215.62 486 209.42 486.06 177.33 497.46 183.53 497.4 215.62"/><g class="cls-61"><g class="cls-62"><path class="cls-29" d="M497.46,183.53l-11.4-6.2c0-5.78-1.18-9.61-4-11.15l11.4,6.2c2.83,1.54,4,5.37,4,11.15"/></g></g><g class="cls-63"><path class="cls-28" d="M477.79,168.87l-11.39-6.2c.24-.57.51-1.13.8-1.67l11.4,6.2c-.29.54-.56,1.1-.81,1.67"/><path class="cls-27" d="M478.6,167.2,467.2,161a22.36,22.36,0,0,1,1.32-2.14l11.4,6.2a18.09,18.09,0,0,0-1.32,2.14"/><path class="cls-26" d="M479.92,165.06l-11.4-6.2A21,21,0,0,1,470,157l11.4,6.2a21,21,0,0,0-1.49,1.89"/><path class="cls-25" d="M481.41,163.17,470,157a23.25,23.25,0,0,1,1.78-1.8l11.4,6.2a23.25,23.25,0,0,0-1.78,1.8"/><path class="cls-35" d="M483.19,161.37l-11.4-6.2a24.09,24.09,0,0,1,2.25-1.78l11.4,6.2a24.09,24.09,0,0,0-2.25,1.78"/><path class="cls-34" d="M485.44,159.59l-11.4-6.2a24.08,24.08,0,0,1,3.27-1.88l11.4,6.2a24.08,24.08,0,0,0-3.27,1.88"/><path class="cls-33" d="M488.71,157.71l-11.4-6.2a23.7,23.7,0,0,1,6.84-2,20.94,20.94,0,0,1,8.12.27l11.39,6.2a20.9,20.9,0,0,0-8.11-.27,23.7,23.7,0,0,0-6.84,2"/><path class="cls-34" d="M503.66,156l-11.39-6.2a13.69,13.69,0,0,1,2.7,1l11.39,6.2a13.69,13.69,0,0,0-2.7-1"/><path class="cls-35" d="M506.36,156.94,495,150.74l.47.24,11.4,6.2-.48-.24"/></g><path class="cls-36" d="M477.86,135.19l-.07,33.68a22.53,22.53,0,0,1,17.75-13.19c14.68-2.06,19.56,8.2,19.53,20.76L515,213.15l-17.61,2.47.06-32.09c0-8.45-2.55-12.71-9-11.8-7.1,1-10.66,7.57-10.67,16.82l-.06,29.84-17.62,2.48.15-83.2Z"/><polygon class="cls-30" points="460.08 220.87 448.68 214.67 448.84 131.47 460.23 137.67 460.08 220.87"/><polygon class="cls-23" points="460.23 137.67 448.84 131.47 466.46 128.99 477.86 135.19 460.23 137.67"/><g class="cls-64"><polyline class="cls-35" points="439.38 209.03 427.99 202.83 428.14 202.91 439.54 209.11 439.38 209.03"/><path class="cls-34" d="M439.54,209.11l-11.4-6.2a4.21,4.21,0,0,0,.84.3l11.4,6.2a4.21,4.21,0,0,1-.84-.3"/><path class="cls-33" d="M440.38,209.41l-11.4-6.2a7.57,7.57,0,0,0,3,.08,18.57,18.57,0,0,0,5.28-1.67l11.4,6.2a18.57,18.57,0,0,1-5.28,1.67,7.57,7.57,0,0,1-3-.08"/><path class="cls-34" d="M448.63,207.82l-11.4-6.2a36.15,36.15,0,0,0,3.54-2l11.39,6.2a34.69,34.69,0,0,1-3.53,2"/></g><g class="cls-65"><g class="cls-66"><path class="cls-29" d="M425.83,224.46l-11.4-6.2c-3.74-2-6.22-6.22-6.21-13.62l11.4,6.2c0,7.4,2.47,11.59,6.21,13.62"/></g></g><polygon class="cls-23" points="437.07 165.48 425.67 159.28 440.11 157.25 451.5 163.45 437.07 165.48"/><polygon class="cls-30" points="419.62 210.84 408.22 204.64 408.27 175.06 419.67 181.26 419.62 210.84"/><g class="cls-67"><path class="cls-33" d="M416,169.49l-11.39-6.2a12.78,12.78,0,0,0,1.68-.67l11.4,6.2a14.49,14.49,0,0,1-1.69.67"/><path class="cls-34" d="M417.71,168.82l-11.4-6.2a11.8,11.8,0,0,0,1.66-.94l11.4,6.2a11.8,11.8,0,0,1-1.66.94"/><path class="cls-35" d="M419.37,167.88l-11.4-6.2a10.53,10.53,0,0,0,1-.76l11.39,6.2a9.08,9.08,0,0,1-1,.76"/><path class="cls-25" d="M420.33,167.12l-11.39-6.2a8.85,8.85,0,0,0,.74-.76l11.4,6.2a7.68,7.68,0,0,1-.75.76"/><path class="cls-26" d="M421.08,166.36l-11.4-6.2a10.72,10.72,0,0,0,.67-.84l11.39,6.2a8.69,8.69,0,0,1-.66.84"/><path class="cls-27" d="M421.74,165.52l-11.39-6.2a12.69,12.69,0,0,0,.68-1.11l11.4,6.2a12.8,12.8,0,0,1-.69,1.11"/><path class="cls-28" d="M422.43,164.41l-11.4-6.2a16.18,16.18,0,0,0,.88-2l11.4,6.2a16.87,16.87,0,0,1-.88,2"/><path class="cls-29" d="M423.31,162.42l-11.4-6.2a37.11,37.11,0,0,0,1-3.6l11.4,6.19a32.39,32.39,0,0,1-1.05,3.61"/></g><polygon class="cls-28" points="424.36 158.81 412.96 152.62 414.81 144.57 426.21 150.77 424.36 158.81"/><polygon class="cls-23" points="426.21 150.77 414.81 144.57 425.7 143.04 437.1 149.24 426.21 150.77"/><polygon class="cls-30" points="412.09 182.33 400.69 176.13 400.71 164.51 412.11 170.71 412.09 182.33"/><path class="cls-36" d="M437.1,149.24v16.24l14.43-2v13.34l-14.43,2-.05,24.43c0,5,2.19,6.82,6.35,6.24a23,23,0,0,0,8.81-3.62v12.54c-4,3.87-8.7,6.38-15.8,7.38-8.8,1.23-16.75-1.74-16.72-14.95l.05-29.58-7.59,1.07V170.71l3.91-1.22c5.39-1.81,7-5.07,8.34-10.68l1.85-8Z"/><polygon class="cls-68" points="412.11 170.71 400.71 164.51 404.63 163.29 416.03 169.49 412.11 170.71"/><g class="cls-69"><polyline class="cls-35" points="336.41 315.84 325.01 309.64 325.17 309.72 336.56 315.92 336.41 315.84"/><path class="cls-34" d="M336.54,315.92l-11.4-6.2a5.08,5.08,0,0,0,.85.31l11.4,6.19a4.29,4.29,0,0,1-.85-.3"/><path class="cls-33" d="M337.41,316.22,326,310a7.77,7.77,0,0,0,3,.07,18.41,18.41,0,0,0,5.27-1.67l11.4,6.2a18.57,18.57,0,0,1-5.28,1.67,7.57,7.57,0,0,1-3-.08"/><path class="cls-34" d="M345.66,314.63l-11.4-6.2a34.69,34.69,0,0,0,3.53-1.95l11.4,6.2a34.69,34.69,0,0,1-3.53,1.95"/></g><g class="cls-70"><g class="cls-71"><path class="cls-29" d="M322.86,331.28l-11.4-6.2c-3.74-2-6.23-6.22-6.21-13.62l11.39,6.2c0,7.4,2.48,11.58,6.22,13.62"/></g></g><polygon class="cls-23" points="334.1 272.3 322.7 266.1 337.14 264.07 348.54 270.27 334.1 272.3"/><polygon class="cls-30" points="316.64 317.65 305.25 311.46 305.3 281.88 316.7 288.08 316.64 317.65"/><polygon class="cls-28" points="321.39 265.64 310 259.44 311.85 251.38 323.24 257.58 321.39 265.64"/><polygon class="cls-23" points="323.24 257.58 311.85 251.38 322.73 249.85 334.13 256.05 323.24 257.58"/><g class="cls-72"><path class="cls-33" d="M313.05,276.31l-11.39-6.2c.6-.21,1.16-.43,1.68-.67l11.4,6.2a17.46,17.46,0,0,1-1.69.67"/><path class="cls-34" d="M314.74,275.64l-11.4-6.2a12,12,0,0,0,1.67-.95l11.39,6.2a11.86,11.86,0,0,1-1.66.95"/><path class="cls-35" d="M316.4,274.69,305,268.49c.34-.24.66-.5,1-.76l11.4,6.2a10.53,10.53,0,0,1-1,.76"/><path class="cls-25" d="M317.37,273.93l-11.4-6.2a7.68,7.68,0,0,0,.75-.76l11.4,6.2c-.24.26-.48.52-.75.76"/><path class="cls-26" d="M318.12,273.17l-11.4-6.2a9.28,9.28,0,0,0,.67-.85l11.39,6.2a7.73,7.73,0,0,1-.66.85"/><path class="cls-27" d="M318.78,272.32l-11.39-6.2a12.69,12.69,0,0,0,.68-1.11l11.4,6.2a12.8,12.8,0,0,1-.69,1.11"/><path class="cls-28" d="M319.47,271.21l-11.4-6.2a14.27,14.27,0,0,0,.88-2l11.4,6.2a16.18,16.18,0,0,1-.88,2"/><path class="cls-29" d="M320.35,269.22,309,263a33.9,33.9,0,0,0,1-3.58l11.39,6.2a33.9,33.9,0,0,1-1,3.58"/></g><polygon class="cls-30" points="309.11 289.14 297.72 282.94 297.74 271.32 309.13 277.52 309.11 289.14"/><path class="cls-36" d="M334.13,256.05V272.3l14.44-2v13.34l-14.45,2v24.43c0,5,2.19,6.81,6.35,6.23a23,23,0,0,0,8.81-3.62v12.55c-4,3.87-8.7,6.37-15.79,7.37-8.81,1.24-16.76-1.73-16.74-14.94l.06-29.58-7.59,1.06V277.52l3.92-1.21c5.39-1.81,7-5.07,8.34-10.67l1.85-8.06Z"/><polygon class="cls-68" points="309.13 277.52 297.74 271.32 301.66 270.11 313.05 276.31 309.13 277.52"/><g class="cls-73"><path class="cls-35" d="M274.47,326.6l-11.39-6.2a1.51,1.51,0,0,0,.28.15l11.4,6.2a1.59,1.59,0,0,1-.29-.15"/><path class="cls-34" d="M274.76,326.75l-11.4-6.2a7.86,7.86,0,0,0,1.7.62l11.39,6.2a8,8,0,0,1-1.69-.62"/><path class="cls-33" d="M276.45,327.37l-11.39-6.2a14.25,14.25,0,0,0,5.56.17,14.65,14.65,0,0,0,4.16-1.17l11.4,6.2a14.72,14.72,0,0,1-4.17,1.17,14.25,14.25,0,0,1-5.56-.17"/><path class="cls-34" d="M286.18,326.37l-11.4-6.2a9.72,9.72,0,0,0,1.33-.76l11.4,6.2a9.72,9.72,0,0,1-1.33.76"/><path class="cls-35" d="M287.54,325.61l-11.4-6.2a7,7,0,0,0,.74-.58L288.24,325a5.81,5.81,0,0,1-.73.58"/><path class="cls-25" d="M288.24,325l-11.39-6.2c.18-.16.34-.33.5-.5l11.39,6.2a5.9,5.9,0,0,1-.5.5"/><path class="cls-26" d="M288.74,324.53l-11.39-6.2.38-.48,11.4,6.2q-.18.24-.39.48"/><path class="cls-27" d="M289.13,324.05l-11.4-6.2c.11-.17.22-.33.31-.5l11.4,6.2-.31.5"/><path class="cls-28" d="M289.44,323.55l-11.4-6.2a6.65,6.65,0,0,0,.27-.61l11.4,6.2a6.65,6.65,0,0,1-.27.61"/><path class="cls-29" d="M289.71,322.94l-11.4-6.2a4.46,4.46,0,0,0,.27-1.54,3.63,3.63,0,0,0-1.87-3.53l11.4,6.2A3.63,3.63,0,0,1,290,321.4a4.5,4.5,0,0,1-.27,1.54"/></g><g class="cls-74"><path class="cls-33" d="M287.69,301l-11.39-6.2a32.93,32.93,0,0,1,7.33.93l11.4,6.2a32.44,32.44,0,0,0-7.34-.93"/><path class="cls-34" d="M295,301.93l-11.4-6.2a19.38,19.38,0,0,1,3.69,1.34l11.4,6.2a19.38,19.38,0,0,0-3.69-1.34"/><path class="cls-35" d="M298.72,303.27l-11.4-6.2.6.3,11.39,6.2-.59-.3"/></g><g class="cls-75"><path class="cls-29" d="M291.25,297.2l-11.4-6.2a7.37,7.37,0,0,0-3.66-5.57l11.4,6.2a7.33,7.33,0,0,1,3.66,5.57"/></g><polygon class="cls-76" points="277.17 300.5 265.77 294.3 276.3 294.8 287.69 301 277.17 300.5"/><g class="cls-77"><polyline class="cls-35" points="274.45 299.9 263.06 293.7 263.2 293.77 274.6 299.97 274.45 299.9"/><path class="cls-34" d="M274.6,300l-11.4-6.2a4,4,0,0,0,.88.32l11.4,6.2a4,4,0,0,1-.88-.32"/><path class="cls-33" d="M275.48,300.29l-11.4-6.2a6.86,6.86,0,0,0,1.69.21l11.4,6.2a6.86,6.86,0,0,1-1.69-.21"/></g><g class="cls-78"><path class="cls-33" d="M280.15,278.3l-11.4-6.2a32.83,32.83,0,0,1,12.76.38l11.39,6.2a32.78,32.78,0,0,0-12.75-.38"/><path class="cls-34" d="M292.9,278.68l-11.36-6.2a18.51,18.51,0,0,1,3.75,1.37l11.4,6.2a18.59,18.59,0,0,0-3.76-1.37"/><path class="cls-35" d="M296.66,280.05l-11.4-6.2c.22.1.44.21.65.33l11.39,6.2c-.21-.12-.42-.23-.64-.33"/></g><g class="cls-79"><path class="cls-29" d="M263.73,337.64l-11.4-6.2c-5-2.69-8.12-7.51-8.61-14.77l11.39,6.2c.49,7.25,3.66,12.08,8.62,14.77"/></g><polygon class="cls-23" points="255.11 322.87 243.72 316.67 259.13 314.11 270.53 320.31 255.11 322.87"/><g class="cls-80"><path class="cls-29" d="M262.82,314.08l-11.39-6.2c-4.25-2.31-6.46-6.37-6.45-13a20.24,20.24,0,0,1,1.23-6.93l11.39,6.2a20.23,20.23,0,0,0-1.22,6.93c0,6.67,2.2,10.73,6.44,13"/><path class="cls-28" d="M257.6,294.11l-11.39-6.2a20.82,20.82,0,0,1,1.18-2.64l11.4,6.2a23.16,23.16,0,0,0-1.19,2.64"/><path class="cls-27" d="M258.79,291.47l-11.4-6.2c.4-.72.83-1.42,1.3-2.1l11.4,6.2a20.43,20.43,0,0,0-1.3,2.1"/><path class="cls-26" d="M260.09,289.37l-11.4-6.2a20.25,20.25,0,0,1,1.53-1.93l11.39,6.2a23.43,23.43,0,0,0-1.52,1.93"/><path class="cls-25" d="M261.61,287.44l-11.39-6.2a22.7,22.7,0,0,1,1.89-1.91l11.4,6.2a21.41,21.41,0,0,0-1.9,1.91"/><path class="cls-35" d="M263.54,285.53l-11.4-6.2a24.54,24.54,0,0,1,2.54-2l11.4,6.2a24.54,24.54,0,0,0-2.54,2"/><path class="cls-34" d="M266.05,283.53l-11.4-6.2a28.44,28.44,0,0,1,4-2.31l11.4,6.2a27.88,27.88,0,0,0-4,2.31"/><path class="cls-33" d="M270.08,281.22l-11.4-6.2a34.67,34.67,0,0,1,10.07-2.92l11.4,6.2a34.67,34.67,0,0,0-10.07,2.92"/></g><path class="cls-36" d="M280.15,278.3c15.41-2.17,24.58,3.93,25.65,16.32l-14.55,2.58c-.85-5-4.64-7.4-11.37-6.45-4.41.61-7.1,3-7.11,6.14,0,2.38,1.71,3.59,4.4,3.61l10.52.5c11.86.31,18.71,5,18.69,16.25,0,12.28-9.71,20.51-24.51,22.59s-25.81-2.84-26.76-17l15.43-2.53c.72,5.57,4.87,8.16,11.48,7.23,4.78-.67,8-3,8-6.14,0-2.9-1.71-4.24-6.11-4.42l-8.37-.28c-12.47-.36-19.19-4-19.17-15.66C256.4,289.69,265.59,280.34,280.15,278.3Z"/><polygon class="cls-57" points="235.67 324.02 224.27 317.82 238.45 317.28 249.85 323.48 235.67 324.02"/><g class="cls-81"><path class="cls-35" d="M216.35,332.49,205,326.29l.35.18,11.4,6.2-.36-.18"/><path class="cls-34" d="M216.71,332.67l-11.4-6.2a10.16,10.16,0,0,0,2,.72l11.4,6.2a10.16,10.16,0,0,1-2-.72"/><path class="cls-33" d="M218.67,333.39l-11.4-6.2a13.13,13.13,0,0,0,5.11.22,17.42,17.42,0,0,0,5-1.41l11.39,6.2a17.11,17.11,0,0,1-5,1.41,13.13,13.13,0,0,1-5.11-.22"/><path class="cls-34" d="M228.75,332.2,217.36,326a13.21,13.21,0,0,0,1.82-1.05l11.39,6.2a12.12,12.12,0,0,1-1.82,1.05"/><path class="cls-35" d="M230.54,331.15,219.18,325a12.21,12.21,0,0,0,1.2-.95l11.4,6.2a10.12,10.12,0,0,1-1.21.95"/><path class="cls-25" d="M231.78,330.2l-11.4-6.2a11.8,11.8,0,0,0,1-1l11.39,6.2a11.8,11.8,0,0,1-1,1"/><path class="cls-26" d="M232.75,329.22,221.36,323a13.81,13.81,0,0,0,.89-1.13l11.39,6.2a11.93,11.93,0,0,1-.89,1.13"/><path class="cls-27" d="M233.64,328.09l-11.39-6.2a16.56,16.56,0,0,0,.89-1.45l11.39,6.2a13.4,13.4,0,0,1-.89,1.45"/><path class="cls-28" d="M234.54,326.64l-11.39-6.2a19.21,19.21,0,0,0,1-2.28l11.4,6.2a17.71,17.71,0,0,1-1,2.28"/><path class="cls-29" d="M235.54,324.36l-11.4-6.2.12-.34,11.4,6.2-.12.34"/></g><g class="cls-82"><path class="cls-29" d="M233.24,309.84l-11.39-6.2c-.24-3.78-1.79-7.15-4.73-8.75l11.4,6.2c2.94,1.6,4.49,5,4.72,8.75"/></g><polygon class="cls-23" points="211.34 312.92 199.95 306.72 221.85 303.64 233.24 309.84 211.34 312.92"/><path class="cls-36" d="M250.24,311.81v5.81l-39.15,5.5c.48,7.72,5.85,11.45,12.7,10.49,6.12-.86,9.91-3.9,11.89-9.59l14.18-.54c-2.84,13.74-12.52,22.62-26.7,24.61-17.26,2.43-29.47-7.21-29.43-25.83s12.53-33.58,29.17-35.92C240.88,283.82,250.27,295.83,250.24,311.81Zm-38.9,1.11,21.9-3.08c-.35-5.76-3.76-10.56-10.49-9.61-7.1,1-10.42,6.34-11.41,12.69"/><g class="cls-83"><path class="cls-29" d="M205.54,345.52l-11.4-6.2c-7.35-4-11.82-12-11.8-23.26a39.34,39.34,0,0,1,2.37-13.46l11.4,6.2a38.87,38.87,0,0,0-2.37,13.46c0,11.28,4.44,19.26,11.8,23.26"/><path class="cls-28" d="M196.09,308.8l-11.4-6.2a35.71,35.71,0,0,1,2.16-4.81L198.24,304a36.94,36.94,0,0,0-2.15,4.81"/><path class="cls-27" d="M198.24,304l-11.39-6.2a37,37,0,0,1,2.25-3.66l11.4,6.2a37.1,37.1,0,0,0-2.26,3.66"/><path class="cls-26" d="M200.54,300.33l-11.4-6.2a34.6,34.6,0,0,1,2.4-3.13l11.4,6.2a34.87,34.87,0,0,0-2.45,3.11"/><path class="cls-25" d="M203,297.22,191.54,291a36.85,36.85,0,0,1,2.78-2.81l11.4,6.2a33.51,33.51,0,0,0-2.78,2.81"/><path class="cls-35" d="M205.73,294.41l-11.4-6.2a34.32,34.32,0,0,1,3.36-2.65l11.4,6.19a37.36,37.36,0,0,0-3.36,2.66"/><path class="cls-34" d="M209.09,291.75l-11.4-6.19a30.81,30.81,0,0,1,4.66-2.69l11.4,6.2a32.15,32.15,0,0,0-4.66,2.68"/><path class="cls-33" d="M213.75,289.07l-11.4-6.2a32.2,32.2,0,0,1,9.15-2.73,28.3,28.3,0,0,1,11,.43l11.4,6.2a28.49,28.49,0,0,0-11-.43,32,32,0,0,0-9.14,2.73"/><path class="cls-34" d="M233.91,286.77l-11.4-6.2a21.15,21.15,0,0,1,4,1.49l11.4,6.2a21.15,21.15,0,0,0-4-1.49"/><path class="cls-35" d="M238,288.26l-11.4-6.2c.26.12.5.25.75.38l11.4,6.2-.75-.38"/></g><g class="cls-84"><path class="cls-35" d="M151.19,341.48l-11.4-6.2.34.17,11.39,6.2-.33-.17"/><path class="cls-34" d="M151.54,341.65l-11.39-6.2a9.43,9.43,0,0,0,1.77.66l11.4,6.19a8.62,8.62,0,0,1-1.78-.65"/><path class="cls-33" d="M153.3,342.3l-11.4-6.19a11.55,11.55,0,0,0,4.42.19l11.4,6.2a11.35,11.35,0,0,1-4.42-.2"/></g><g class="cls-85"><path class="cls-33" d="M157.72,342.5l-11.4-6.2a14.17,14.17,0,0,0,4.08-1.19l11.4,6.2a14.17,14.17,0,0,1-4.08,1.19"/><path class="cls-34" d="M161.8,341.31l-11.4-6.2a12.15,12.15,0,0,0,1.8-1l11.39,6.2a12.57,12.57,0,0,1-1.79,1"/><path class="cls-35" d="M163.59,340.29l-11.39-6.2a13.35,13.35,0,0,0,1.25-1l11.39,6.2a13.35,13.35,0,0,1-1.25,1"/><path class="cls-25" d="M164.84,339.3l-11.39-6.2a11.8,11.8,0,0,0,1-1l11.4,6.2a11.8,11.8,0,0,1-1,1"/><path class="cls-26" d="M165.87,338.26l-11.4-6.2a12,12,0,0,0,.94-1.19l11.39,6.2a13.55,13.55,0,0,1-.93,1.19"/><path class="cls-27" d="M166.8,337.07l-11.39-6.2c.33-.48.64-1,.92-1.49l11.39,6.2a12.7,12.7,0,0,1-.92,1.49"/><path class="cls-28" d="M167.72,335.58l-11.39-6.2a17,17,0,0,0,1-2.22l11.4,6.2a17,17,0,0,1-1,2.22"/><path class="cls-29" d="M168.71,333.36l-11.4-6.2a25.56,25.56,0,0,0,1.4-8.71c0-6.44-1.84-11.22-5.61-13.28l11.4,6.2c3.77,2.06,5.61,6.84,5.6,13.28a25.31,25.31,0,0,1-1.39,8.71"/></g><g class="cls-86"><path class="cls-29" d="M151.44,354.66l-11.4-6.2a15.77,15.77,0,0,1-6.94-7.66l11.44,6.2a15.77,15.77,0,0,0,6.94,7.66"/></g><g class="cls-87"><path class="cls-33" d="M163.8,294.65l-11.4-6.2a22.12,22.12,0,0,1,8.69.37L172.54,295a22.12,22.12,0,0,0-8.69-.37"/><path class="cls-34" d="M172.54,295l-11.4-6.2a17.24,17.24,0,0,1,3.35,1.23l11.4,6.2a17.92,17.92,0,0,0-3.35-1.23"/><path class="cls-35" d="M175.84,296.25l-11.4-6.2.63.33,11.4,6.2-.63-.33"/></g><g class="cls-88"><polyline class="cls-29" points="145.42 309.37 134.03 303.18 134.04 303.16 145.43 309.36 145.42 309.37"/><path class="cls-28" d="M145.43,309.36l-11.4-6.2a23,23,0,0,1,1.39-3.08l11.39,6.2a24.31,24.31,0,0,0-1.38,3.08"/><path class="cls-27" d="M146.81,306.28l-11.39-6.2a22.92,22.92,0,0,1,1.43-2.32L148.24,304a22.92,22.92,0,0,0-1.43,2.32"/><path class="cls-26" d="M148.24,304l-11.39-6.2a23.19,23.19,0,0,1,1.55-2l11.39,6.2a24.84,24.84,0,0,0-1.55,2"/><path class="cls-25" d="M149.79,302l-11.39-6.2a23,23,0,0,1,1.77-1.79l11.37,6.19c-.62.57-1.21,1.17-1.77,1.79"/><path class="cls-35" d="M151.54,300.2,140.17,294a22.44,22.44,0,0,1,2.17-1.72l11.4,6.2a24.51,24.51,0,0,0-2.2,1.72"/><path class="cls-34" d="M153.74,298.48l-11.4-6.2a22.34,22.34,0,0,1,3.15-1.81l11.4,6.2a22.34,22.34,0,0,0-3.15,1.81"/><path class="cls-33" d="M156.89,296.67l-11.4-6.2a24.15,24.15,0,0,1,6.91-2l11.4,6.2a23.83,23.83,0,0,0-6.91,2"/></g><polygon class="cls-23" points="127.87 276.72 116.47 270.52 134.09 268.05 145.49 274.25 127.87 276.72"/><polygon class="cls-30" points="127.71 359.92 116.32 353.72 116.47 270.52 127.87 276.72 127.71 359.92"/><path class="cls-36" d="M163.8,294.65C179.71,292.41,188,305,188,322.14s-8.38,32.07-24.65,34.36c-9.06,1.27-15.9-2.78-18.82-9.5l-3.2,11-13.59,1.91.16-83.2,17.67-2.46-.07,35.12A22.37,22.37,0,0,1,163.8,294.65Zm-6.08,47.85c8.31-1.17,12.36-8.21,12.38-17.85s-4-15.41-12.32-14.24c-7.35,1-12.37,7.68-12.39,17.06v1.31c0,9.51,5,14.75,12.33,13.72"/><polygon class="cls-30" points="599.61 293.6 588.21 287.4 588.27 255.31 599.67 261.51 599.61 293.6"/><g class="cls-89"><path class="cls-29" d="M599.67,261.51l-11.4-6.2c0-5.92-.94-9.83-3.7-11.33l11.4,6.2c2.75,1.5,3.71,5.41,3.7,11.33"/></g><g class="cls-90"><path class="cls-33" d="M598,233.62l-11.39-6.2a20.83,20.83,0,0,1,8.06.26l11.39,6.2a20.83,20.83,0,0,0-8.06-.26"/><path class="cls-34" d="M606.07,233.88l-11.39-6.2a13.16,13.16,0,0,1,2.64,1l11.4,6.19a13.88,13.88,0,0,0-2.65-1"/><path class="cls-35" d="M608.72,234.85l-11.4-6.19.46.23,11.4,6.2-.46-.24"/></g><g class="cls-91"><path class="cls-28" d="M579.63,248l-11.4-6.2c.31-.75.64-1.49,1-2.22l11.4,6.2a18.23,18.23,0,0,0-1,2.22"/><path class="cls-27" d="M580.68,245.73l-11.4-6.2a23.53,23.53,0,0,1,1.45-2.35l11.39,6.2a23.45,23.45,0,0,0-1.44,2.35"/><path class="cls-26" d="M582.12,243.38l-11.39-6.2a23.41,23.41,0,0,1,1.64-2.08l11.39,6.2a25.4,25.4,0,0,0-1.64,2.08"/><path class="cls-25" d="M583.76,241.3l-11.39-6.2a24.59,24.59,0,0,1,1.9-1.92l11.4,6.2a24.72,24.72,0,0,0-1.91,1.92"/><path class="cls-35" d="M585.67,239.38l-11.4-6.2a23.62,23.62,0,0,1,2.36-1.87l11.4,6.2a23.62,23.62,0,0,0-2.36,1.87"/><path class="cls-34" d="M588,237.51l-11.4-6.2a23.62,23.62,0,0,1,3.31-1.9l11.4,6.2a23.62,23.62,0,0,0-3.31,1.9"/><path class="cls-33" d="M591.34,235.61l-11.4-6.2a23.31,23.31,0,0,1,6.68-2l11.39,6.2a23.25,23.25,0,0,0-6.67,2"/></g><polygon class="cls-30" points="563.64 298.66 552.24 292.46 552.3 260.36 563.7 266.56 563.64 298.66"/><g class="cls-92"><g class="cls-93"><path class="cls-29" d="M563.7,266.56l-11.4-6.2c0-5.89-.93-9.79-3.71-11.3l11.4,6.2c2.77,1.51,3.72,5.41,3.71,11.3"/></g></g><g class="cls-94"><path class="cls-28" d="M545.38,251.71l-11.4-6.2c.28-.64.58-1.27.91-1.87l11.39,6.19c-.32.61-.63,1.24-.9,1.88"/><path class="cls-27" d="M546.28,249.83l-11.39-6.19a23,23,0,0,1,1.39-2.27l11.4,6.2a22.93,22.93,0,0,0-1.4,2.26"/><path class="cls-26" d="M547.68,247.57l-11.4-6.2a21.61,21.61,0,0,1,1.51-1.92l11.4,6.2a21.61,21.61,0,0,0-1.51,1.92"/><path class="cls-25" d="M549.19,245.65l-11.4-6.2c.54-.6,1.11-1.18,1.71-1.73l11.4,6.2a23.26,23.26,0,0,0-1.71,1.73"/><path class="cls-35" d="M550.9,243.92l-11.4-6.2a22.65,22.65,0,0,1,2.11-1.66l11.39,6.2a21,21,0,0,0-2.1,1.66"/><path class="cls-34" d="M553,242.26l-11.39-6.2a20.31,20.31,0,0,1,3-1.73l11.4,6.2a21.81,21.81,0,0,0-3,1.73"/><path class="cls-33" d="M556,240.53l-11.4-6.2a22.8,22.8,0,0,1,6.51-1.92,20.1,20.1,0,0,1,7.84.26l11.4,6.2a20.1,20.1,0,0,0-7.84-.26,22.49,22.49,0,0,0-6.51,1.92"/><path class="cls-34" d="M570.37,238.87l-11.4-6.2a12.79,12.79,0,0,1,2.55.94l11.4,6.2a12.2,12.2,0,0,0-2.55-.94"/><path class="cls-35" d="M572.92,239.81l-11.4-6.2c.16.07.3.15.45.23l11.4,6.2-.45-.23"/></g><polygon class="cls-30" points="527.67 303.71 516.27 297.51 516.38 238.88 527.77 245.08 527.67 303.71"/><polygon class="cls-23" points="527.77 245.08 516.38 238.88 534 236.4 545.4 242.6 527.77 245.08"/><path class="cls-36" d="M598,233.62c14.81-2.08,19.31,8.38,19.29,20.79l-.07,36.71-17.62,2.48.06-32.09c0-8.45-1.93-12.8-8.29-11.91-6.86,1-9.92,7.47-9.94,16.72l-.06,29.84-17.74,2.5.06-32.1c0-8.44-1.94-12.79-8.42-11.88-6.73.94-9.92,7.47-9.94,16.71v29.85l-17.62,2.47.1-58.63,17.63-2.48v9.11a21.49,21.49,0,0,1,17.09-13.1c9.54-1.34,14.79,2.67,17.1,9.34A23.41,23.41,0,0,1,598,233.62Z"/><g class="cls-95"><path class="cls-35" d="M484,295.36l-11.4-6.2.29.15,11.4,6.2-.29-.15"/><path class="cls-34" d="M484.33,295.51l-11.4-6.2a8.05,8.05,0,0,0,1.49.54l11.4,6.2a8.05,8.05,0,0,1-1.49-.54"/><path class="cls-33" d="M485.82,296.05l-11.4-6.2a10.22,10.22,0,0,0,4.12.15l11.4,6.2a10.53,10.53,0,0,1-4.07-.16"/></g><g class="cls-96"><path class="cls-33" d="M489.89,296.21,478.54,290a12.49,12.49,0,0,0,3.48-1l11.39,6.2a12.33,12.33,0,0,1-3.47,1"/><path class="cls-34" d="M493.36,295.2,482,289a12.24,12.24,0,0,0,1.61-.93l11.4,6.2a12.36,12.36,0,0,1-1.62.93"/><path class="cls-35" d="M495,294.27l-11.4-6.2a12.53,12.53,0,0,0,1.14-.9l11.4,6.2a12.53,12.53,0,0,1-1.14.9"/><path class="cls-25" d="M496.12,293.37l-11.4-6.2c.35-.32.68-.65,1-1l11.39,6.2a11.8,11.8,0,0,1-1,1"/><path class="cls-26" d="M497.09,292.38l-11.39-6.2a14.23,14.23,0,0,0,.9-1.15l11.4,6.2a12.41,12.41,0,0,1-.91,1.15"/><path class="cls-27" d="M498,291.23,486.6,285a12.82,12.82,0,0,0,.92-1.5l11.4,6.2a12.82,12.82,0,0,1-.92,1.5"/><path class="cls-28" d="M498.92,289.73l-11.4-6.2a16.87,16.87,0,0,0,1-2.26l11.4,6.2a18.25,18.25,0,0,1-1,2.26"/><path class="cls-29" d="M499.93,287.47l-11.4-6.2a27.46,27.46,0,0,0,1.49-9.38c0-6.86-1.85-12-5.63-14l11.4,6.2c3.78,2.06,5.64,7.16,5.62,14a27.7,27.7,0,0,1-1.48,9.38"/></g><g class="cls-97"><path class="cls-33" d="M490,248.81l-11.4-6.2a29.65,29.65,0,0,1,11.53.5l11.39,6.2a29.6,29.6,0,0,0-11.52-.5"/><path class="cls-34" d="M501.54,249.31l-11.39-6.2a24.06,24.06,0,0,1,4.5,1.66l11.4,6.2a23.9,23.9,0,0,0-4.51-1.66"/><path class="cls-35" d="M506,251l-11.4-6.2.81.42,11.4,6.2L506,251"/></g><g class="cls-98"><path class="cls-29" d="M473.05,308.05l-11.4-6.2c-7.75-4.22-12.4-12.81-12.37-24.23a38.36,38.36,0,0,1,2.26-13.17l11.4,6.2a38.4,38.4,0,0,0-2.3,13.17c0,11.42,4.63,20,12.38,24.23"/><path class="cls-28" d="M463,270.65l-11.4-6.2a35.87,35.87,0,0,1,2.05-4.56l11.39,6.2a36.22,36.22,0,0,0-2,4.56"/><path class="cls-27" d="M465,266.09l-11.39-6.2a32.74,32.74,0,0,1,2.12-3.44l11.4,6.2a32.82,32.82,0,0,0-2.13,3.44"/><path class="cls-26" d="M467.14,262.65l-11.4-6.2a30,30,0,0,1,2.32-2.94l11.39,6.19a36.57,36.57,0,0,0-2.31,2.95"/><path class="cls-25" d="M469.45,259.7l-11.39-6.19a30.47,30.47,0,0,1,2.65-2.68L472.1,257a35.14,35.14,0,0,0-2.65,2.67"/><path class="cls-35" d="M472.1,257l-11.39-6.2a33.05,33.05,0,0,1,3.29-2.61l11.4,6.2a32.06,32.06,0,0,0-3.3,2.61"/><path class="cls-34" d="M475.4,254.42l-11.4-6.2a34,34,0,0,1,4.68-2.69l11.4,6.2a34,34,0,0,0-4.68,2.69"/><path class="cls-33" d="M480.08,251.73l-11.4-6.2a34.21,34.21,0,0,1,9.9-2.92l11.4,6.2a33.9,33.9,0,0,0-9.9,2.92"/></g><path class="cls-36" d="M490,248.81c17.37-2.45,29.34,8.67,29.3,26.77s-12,32.59-29.42,35-29.22-8.58-29.19-26.76S472.6,251.25,490,248.81Zm-.09,47.4c7.7-1.08,11.51-8.35,11.52-18.12s-3.76-16-11.46-14.89-11.41,8.34-11.41,18.11,3.51,16,11.35,14.9"/><g class="cls-99"><path class="cls-33" d="M450.82,254.31l-11.4-6.2a13.58,13.58,0,0,1,5.16.21l11.4,6.2a13.58,13.58,0,0,0-5.16-.21"/><path class="cls-34" d="M456,254.52l-11.4-6.2a7.67,7.67,0,0,1,1.54.56l11.4,6.2a8.33,8.33,0,0,0-1.54-.56"/><polyline class="cls-35" points="457.52 255.08 446.12 248.88 446.35 249 457.75 255.2 457.52 255.08"/></g><g class="cls-100"><path class="cls-29" d="M435.75,268.7l-11.4-6.2c.12-.4.26-.81.41-1.21l11.39,6.2c-.14.4-.28.81-.4,1.21"/><path class="cls-28" d="M436.15,267.49l-11.39-6.2a20.69,20.69,0,0,1,1.35-3l11.39,6.2a23.72,23.72,0,0,0-1.35,3"/><path class="cls-27" d="M437.54,264.49l-11.39-6.2a23.27,23.27,0,0,1,1.39-2.29l11.4,6.2a26.53,26.53,0,0,0-1.44,2.33"/><path class="cls-26" d="M438.94,262.16,427.54,256a23.09,23.09,0,0,1,1.54-2l11.4,6.2a23.09,23.09,0,0,0-1.54,2"/><path class="cls-25" d="M440.48,260.21l-11.4-6.2a20.24,20.24,0,0,1,1.66-1.68l11.4,6.2a18.8,18.8,0,0,0-1.66,1.68"/><path class="cls-35" d="M442.14,258.53l-11.4-6.2a18.42,18.42,0,0,1,1.9-1.5L444,257a19.43,19.43,0,0,0-1.89,1.5"/><path class="cls-34" d="M444,257l-11.39-6.2a16.35,16.35,0,0,1,2.43-1.41l11.4,6.2A16.45,16.45,0,0,0,444,257"/><path class="cls-33" d="M446.47,255.62l-11.4-6.2a15.08,15.08,0,0,1,4.35-1.31l11.4,6.2a15.08,15.08,0,0,0-4.35,1.31"/></g><path class="cls-36" d="M450.82,254.31c3.3-.46,6.12.19,7.58,1.31l-1.13,18c-2.81-1.32-5.51-1.6-9.29-1.07-7.35,1-12.25,6.21-12.27,16.38l0,27.73L418,319.14l.11-58.64,17.62-2.5v10.69C437.84,261.81,443.48,255.34,450.82,254.31Z"/><polygon class="cls-23" points="418.15 260.48 406.75 254.28 424.37 251.81 435.77 258.01 418.15 260.48"/><polygon class="cls-30" points="418.04 319.12 406.65 312.92 406.75 254.28 418.15 260.48 418.04 319.12"/><g class="cls-101"><path class="cls-29" d="M410.34,254.05l-11.4-6.2a6.83,6.83,0,0,0-2.82-3.53l11.4,6.2a6.83,6.83,0,0,1,2.82,3.53"/></g><polygon class="cls-23" points="398.94 263.18 387.55 256.98 401.62 255 413.02 261.2 398.94 263.18"/><polygon class="cls-30" points="381.34 324.28 369.94 318.08 370.03 272.78 381.42 278.98 381.34 324.28"/><g class="cls-102"><path class="cls-33" d="M402.42,236.56l-11.4-6.2a20.85,20.85,0,0,1,8.25.3l11.4,6.2a20.85,20.85,0,0,0-8.25-.3"/><path class="cls-34" d="M410.67,236.86l-11.4-6.2a13.86,13.86,0,0,1,2.79,1l11.39,6.2a14.41,14.41,0,0,0-2.78-1"/><path class="cls-35" d="M413.45,237.88l-11.39-6.2.5.26,11.4,6.2-.51-.26"/></g><polygon class="cls-30" points="381.45 265.64 370.05 259.44 370.06 256.01 381.45 262.21 381.45 265.64"/><polygon class="cls-23" points="373.49 266.76 362.1 260.56 370.05 259.44 381.45 265.64 373.49 266.76"/><polygon class="cls-30" points="373.47 280.1 362.07 273.9 362.1 260.56 373.49 266.76 373.47 280.1"/><g class="cls-103"><path class="cls-29" d="M381.45,262.21,370.06,256a31.1,31.1,0,0,1,1.77-10.73l11.4,6.2a31.39,31.39,0,0,0-1.78,10.73"/><path class="cls-28" d="M383.23,251.48l-11.4-6.2a25.69,25.69,0,0,1,1.41-3.17l11.4,6.2a23,23,0,0,0-1.41,3.17"/><path class="cls-27" d="M384.64,248.31l-11.4-6.2a22.18,22.18,0,0,1,1.41-2.28l11.4,6.2a22.18,22.18,0,0,0-1.41,2.28"/><path class="cls-26" d="M386.05,246l-11.4-6.2a21,21,0,0,1,1.5-1.91l11.4,6.2a19.68,19.68,0,0,0-1.5,1.91"/><path class="cls-25" d="M387.54,244.12l-11.4-6.2a21.84,21.84,0,0,1,1.73-1.74l11.39,6.2a23.53,23.53,0,0,0-1.72,1.74"/><path class="cls-35" d="M389.27,242.38l-11.39-6.2a21.11,21.11,0,0,1,2.18-1.72l11.4,6.2a21.53,21.53,0,0,0-2.19,1.72"/><path class="cls-34" d="M391.46,240.66l-11.4-6.2a21.59,21.59,0,0,1,3.27-1.87l11.39,6.2a22.37,22.37,0,0,0-3.26,1.87"/><path class="cls-33" d="M394.72,238.79l-11.39-6.2a26.52,26.52,0,0,1,7.69-2.23l11.4,6.2a26.58,26.58,0,0,0-7.7,2.23"/></g><path class="cls-36" d="M402.42,236.56c10-1.41,16.75,2.92,18.93,12.25l-11,5.24c-1.22-2.86-3.05-4.45-6.11-4-3.8.53-5.27,3.91-5.28,8.27v4.88l14.08-2v13.34l-14.07,2-.09,45.3-17.49,2.46.08-45.3-8,1.12V266.78l8-1.12v-3.43C381.48,247.55,389.69,238.34,402.42,236.56Z"/></g></g></g></g></svg>