<svg xmlns="http://www.w3.org/2000/svg" width="835.34" height="302.14" viewBox="0 0 835.34 302.14"><polygon points="364.73 266.85 376.49 266.85 376.49 219.79 294.13 219.79 294.13 266.85 305.9 266.85 305.9 278.61 317.67 278.61 317.67 290.38 329.43 290.38 329.43 302.14 341.2 302.14 341.2 290.38 352.96 290.38 352.96 278.61 364.73 278.61 364.73 266.85" fill="#265c42"/><polygon points="458.85 219.79 458.85 266.85 470.62 266.85 470.62 278.61 482.38 278.61 482.38 290.38 494.15 290.38 494.15 302.14 505.91 302.14 505.91 290.38 517.68 290.38 517.68 278.61 529.44 278.61 529.44 266.85 541.21 266.85 541.21 219.79 458.85 219.79" fill="#265c42"/><rect x="658.86" y="290.38" width="176.48" height="11.77" fill="#a22633"/><rect y="290.38" width="176.48" height="11.77" fill="#a22633"/><polygon points="658.86 255.08 694.16 255.08 694.16 243.32 741.22 243.32 741.22 231.55 752.99 231.55 752.99 208.02 741.22 208.02 741.22 196.26 94.12 196.26 94.12 208.02 82.36 208.02 82.36 231.55 94.12 231.55 94.12 243.32 141.19 243.32 141.19 255.08 176.48 255.08 176.48 290.38 188.25 290.38 188.25 208.02 647.1 208.02 647.1 290.38 658.86 290.38 658.86 255.08" fill="#a22633"/><polygon points="588.27 302.14 588.27 290.38 600.03 290.38 600.03 278.61 611.8 278.61 611.8 266.85 623.57 266.85 623.57 219.79 541.21 219.79 541.21 266.85 552.97 266.85 552.97 278.61 564.74 278.61 564.74 290.38 576.5 290.38 576.5 302.14 588.27 302.14" fill="#e43b44"/><polygon points="423.55 302.14 423.55 290.38 435.32 290.38 435.32 278.61 447.08 278.61 447.08 266.85 458.85 266.85 458.85 219.79 376.49 219.79 376.49 266.85 388.26 266.85 388.26 278.61 400.02 278.61 400.02 290.38 411.79 290.38 411.79 302.14 423.55 302.14" fill="#e43b44"/><polygon points="258.84 302.14 258.84 290.38 270.6 290.38 270.6 278.61 282.37 278.61 282.37 266.85 294.13 266.85 294.13 219.79 211.78 219.79 211.78 266.85 223.54 266.85 223.54 278.61 235.31 278.61 235.31 290.38 247.07 290.38 247.07 302.14 258.84 302.14" fill="#e43b44"/><path d="M753,161V66.84H741.22V55.07H94.12V66.84H82.36V161H0v11.77H11.77v11.76H23.53v11.77H35.3V208H47.06v11.77H58.83v11.76H47.06v11.77H35.3v11.76H23.53v11.77H11.77v11.76H0v11.77H176.48v-35.3h-35.3V243.32H94.12V231.55H82.36V208H94.12V196.26h647.1V208H753v23.53H741.22v11.77H694.16v11.76h-35.3v35.3H835.34V278.61H823.58V266.85H811.81V255.08H800.05V243.32H788.28V231.55H776.52V219.79h11.76V208h11.77V196.26h11.76V184.49h11.77V172.73h11.76V161Z" fill="#e43b44"/><path d="M148.08,14.76V7.38h7.39v7.38Zm22.15,14.77h7.38v7.38H148.08V29.53h7.39V22.15h7.38v7.38Zm0-22.15H155.47V0h14.76Zm-7.38,14.77V14.76h7.38v7.39Zm7.38-7.39V7.38h7.38v7.38Z"/><path d="M192.38,29.53H185V7.38h7.39v7.38h7.38v7.39h-7.38ZM207.14,7.38H192.38V0h14.76Zm-7.38,29.53h-7.38V29.53h7.38V22.15h7.38V7.38h7.38V29.53h-7.38v7.38Z"/><path d="M249.66,29.53h-7.38V7.38h7.38V29.53ZM264.42,7.38H249.66V0h14.76ZM257,29.53h7.38v7.38H249.66V29.53Zm7.38,0V7.38h7.38V29.53Z"/><path d="M279.19,36.91V0H294V7.38h-7.38v7.38H294v7.39h-7.38V36.91Z"/><path d="M329.09,36.91V7.38h-7.38V0h22.14V7.38h-7.38V36.91Z"/><path d="M366,36.91V22.15h-7.38V36.91h-7.39V0h7.39V14.76H366V0h7.38V36.91Z"/><path d="M388.14,36.91h-7.38V0h14.77V7.38h-7.39v7.38h7.39v7.39h-7.39v7.38h7.39v7.38Z"/><path d="M430.66,36.91h-7.38V0h14.77V7.38h7.38v7.38h-7.38V7.38h-7.39v7.38h7.39v7.39h7.38v7.38h-7.38V22.15h-7.39v7.38h7.39v7.38Z"/><path d="M460.19,36.91h-7.38V0h14.76V7.38h-7.38v7.38h7.38v7.39h-7.38v7.38h7.38v7.38Z"/><path d="M482.34,14.76H475V7.38h7.38ZM489.72,0h7.38V7.38H482.34V0Zm7.38,22.15H482.34V14.76H497.1Zm-7.38,7.38h7.38v7.38H482.34V29.53Zm7.38,0V22.15h7.38v7.38Z"/><path d="M519.25,36.91V7.38h-7.39V0H534V7.38h-7.38V36.91Z"/><path d="M561.77,36.91V0h14.76V7.38h-7.38v7.38h7.38v7.39h-7.38V36.91Z"/><path d="M583.91,36.91V0h14.77V7.38h7.38v7.38h-7.38V7.38h-7.39v7.38h7.39v7.39h-7.39V36.91Zm14.77,0V22.15h7.38V36.91Z"/><path d="M620.82,29.53h-7.38V7.38h7.38V29.53ZM635.58,7.38H620.82V0h14.76ZM628.2,29.53h7.38v7.38H620.82V29.53Zm7.38,0V7.38H643V29.53Z"/><path d="M650.35,36.91V7.38h7.38V36.91ZM665.11,7.38h-7.38V0h7.38Zm0,14.77V7.38h7.38V22.15ZM679.88,7.38h-7.39V0h7.39Zm0,29.53V7.38h7.38V36.91Z"/><path d="M238.85,116.26V97.43h18.83v18.83Zm56.47,37.64h18.82v18.83H238.85V153.9h18.83V135.08H276.5V153.9Zm0-56.47H257.68V78.61h37.64ZM276.5,135.08V116.26h18.82v18.82Zm18.82-18.82V97.43h18.82v18.83Z" fill="#ead4aa"/><path d="M351.79,153.9H333V97.43h18.82v18.83h18.82v18.82H351.79Zm37.65-56.47H351.79V78.61h37.65Zm-18.83,75.3H351.79V153.9h18.82V135.08h18.83V97.43h18.82V153.9H389.44v18.83Z" fill="#ead4aa"/><path d="M427.08,116.26V97.43h18.83v18.83Zm56.47,37.64h18.83v18.83h-75.3V153.9h18.83V135.08h18.82V153.9Zm0-56.47H445.91V78.61h37.64Zm-18.82,37.65V116.26h18.82v18.82Zm18.82-18.82V97.43h18.83v18.83Z" fill="#ead4aa"/><path d="M540,153.9H521.2V97.43H540v18.83h18.83v18.82H540Zm37.65-56.47H540V78.61h37.65Zm-18.82,75.3H540V153.9h18.83V135.08h18.82V97.43h18.82V153.9H577.67v18.83Z" fill="#ead4aa"/></svg>