<svg xmlns="http://www.w3.org/2000/svg" viewBox="0 0 600 191.4"><defs><style>.cls-1{fill:#ed1a34;}.cls-2{fill:#b41d8d;}.cls-3{fill:#1268b3;}.cls-4{fill:#fff;}</style></defs><g id="Layer_2" data-name="Layer 2"><g id="layer"><polygon class="cls-1" points="54.2 190.2 19.9 190.2 19.9 25.8 0 25.8 0 0 74.8 0 74.8 25.8 54.2 25.8 54.2 190.2"/><polygon class="cls-2" points="114.5 97.8 114.5 190.2 82.4 190.2 82.2 0 114.5 0 114.5 72 123 72 123 0 155.1 0 155.1 190.2 123 190.2 123 97.8 114.5 97.8"/><polygon class="cls-3" points="228.1 25.8 197.6 25.8 197.6 74.6 223.2 74.6 223.2 97.8 197.6 97.8 197.6 161.6 228.1 161.6 228.1 190.2 164.3 190.2 164.3 0 228.1 0 228.1 25.8"/><polygon class="cls-4" points="29.4 180.2 29.4 184 27.7 184 27.7 174.2 29.4 174.2 29.4 178.2 47.2 178.2 47.2 180.2 29.4 180.2"/><rect class="cls-4" x="27.7" y="169.5" width="19.5" height="2"/><path class="cls-4" d="M27.7,165.3v-3.1l10.1-2.3c1.8-.4,3.7-.8,5.9-1.1-2-.3-3.9-.7-5.9-1.1l-10.2-2.4v-3.1H47.1V154h-18l18.1,4.2v1.2l-18.1,4.2H47.2v1.8H27.7"/><polygon class="cls-4" points="27.7 148 27.7 139.2 29.5 139.2 29.5 146 36.2 146 36.2 141 38 141 38 146 45.4 146 45.4 139 47.2 139 47.2 148 27.7 148"/><path class="cls-4" d="M42,135c2.5-.1,3.7-1.1,3.7-3.1a2.92,2.92,0,0,0-3.2-2.9c-2.1,0-3.3,1.4-5.1,3.8s-3.1,3.8-5.7,3.8a4.23,4.23,0,0,1-4.4-4.3c0-2.9,1.9-4.7,5.3-4.8v1.9c-2.4.2-3.6,1.1-3.6,2.8a2.45,2.45,0,0,0,2.7,2.6,3.88,3.88,0,0,0,2.3-.9,35.06,35.06,0,0,0,2.9-3.6c1.7-2.1,3.2-3.1,5.5-3.1,3.1,0,5.1,1.9,5.1,4.8,0,3.1-2,4.9-5.6,4.9V135"/><polygon class="cls-4" points="88.8 182.6 88.8 180.6 97.2 180.6 97.2 174.9 88.8 174.9 88.8 172.9 108.3 172.9 108.3 174.9 99 174.9 99 180.6 108.3 180.6 108.3 182.6 88.8 182.6"/><rect class="cls-4" x="88.8" y="166.7" width="19.5" height="2"/><path class="cls-4" d="M107.2,154.1a4.19,4.19,0,0,1,1.5,3.4c0,3.7-3.3,5.6-9.9,5.6-7,0-10.4-1.7-10.4-5.6,0-2.9,2.2-4.8,6.1-4.8v1.9c-2.9.1-4.4,1.2-4.4,2.9,0,2.6,2.8,3.4,8.6,3.4,5.5,0,8.1-1,8.1-3.7,0-1.7-1.3-2.9-3.7-2.9h-2.3v2.8H99.1v-4.7h9.1v1.4l-1,.3"/><polygon class="cls-4" points="88.8 148.8 88.8 146.8 97.2 146.8 97.2 141.1 88.8 141.1 88.8 139.2 108.3 139.2 108.3 141.1 99 141.1 99 146.8 108.3 146.8 108.3 148.8 88.8 148.8"/><polygon class="cls-4" points="88.8 135 88.8 126.2 90.6 126.2 90.6 133 97.3 133 97.3 128 99.1 128 99.1 133 106.5 133 106.5 126 108.3 126 108.3 135 88.8 135"/><path class="cls-4" d="M88.8,123.1v-3.6q0-6.3,5.1-6.3a4.54,4.54,0,0,1,4.7,3.1l9.7-3.2v2.1L99,118.1c0,.7.1,1.4.1,2.1v.8h9.2v2H88.8m8.5-3.6c0-2.7-1.1-4-3.4-4s-3.4,1.3-3.4,4v1.7h6.8Z"/><polygon class="cls-4" points="171.2 182.6 171.2 173.8 173 173.8 173 180.6 179.7 180.6 179.7 175.6 181.5 175.6 181.5 180.6 188.8 180.6 188.8 173.6 190.7 173.6 190.7 182.6 171.2 182.6"/><path class="cls-4" d="M171.2,170.5v-3.6c0-4.6,3-6.5,9.7-6.5s9.8,1.8,9.8,6.5v3.6H171.2m17.6-2c0-.4.1-.7.1-1.1,0-3.9-2.3-5-8.1-5s-8,1.1-8,5a4.1,4.1,0,0,0,.1,1.1Z"/><path class="cls-4" d="M171.2,156.9v-2h12.4c3.8,0,5.6-.2,5.6-2.9s-1.8-2.9-5.6-2.9H171.1v-2h12.7c2.6,0,4.4.1,5.6,1a4.94,4.94,0,0,1,1.7,3.9,4.65,4.65,0,0,1-1.7,3.9c-1.2,1-3,1-5.6,1H171.2"/><path class="cls-4" d="M184.7,133c4.1,0,6.3,1.9,6.3,5.1,0,3.6-3.3,5.5-9.9,5.5-7,0-10.4-1.7-10.4-5.6,0-2.9,2.2-4.8,6.1-4.8v2c-2.9.1-4.4,1.2-4.4,2.9,0,2.6,2.7,3.5,8.5,3.5,5.6,0,8.3-1,8.3-3.8,0-1.8-1.6-2.9-4.6-2.9h-.4V133h.5"/><path class="cls-4" d="M171.1,127v-2.7l19.5-4.3v2.1l-5.7,1.1v4.9l5.7,1.1v2Zm12-3.4-10.2,2,10.2,2Z"/><polygon class="cls-4" points="172.8 114.9 172.8 118.7 171.2 118.7 171.2 109 172.8 109 172.8 112.9 190.6 112.9 190.6 114.9 172.8 114.9"/><rect class="cls-4" x="171.2" y="104.2" width="19.5" height="2"/><path class="cls-4" d="M180.9,100.6c-6.7,0-10.1-1.9-10.1-5.4s3.4-5.4,10.1-5.4S191,91.7,191,95.2s-3.4,5.4-10.1,5.4m-.5-2.1c5.9,0,8.8-.9,8.8-3.3s-2.7-3.3-8.3-3.3-8.3.9-8.3,3.3,2.5,3.3,7.8,3.3"/><path class="cls-4" d="M172.7,84.5h18v1.8H171.2V83.4l11.1-4c1.6-.6,3.2-1.1,4.8-1.6a34.74,34.74,0,0,1-4.3.2H171.2V76.2h19.5v2l-13.5,4.9c-1.6.6-3.1,1-4.5,1.4"/><rect class="cls-1" x="235.9" y="1.2" width="364.1" height="57.8"/><rect class="cls-2" x="235.9" y="66.7" width="308.6" height="57.8"/><rect class="cls-3" x="235.9" y="133.6" width="255.6" height="57.8"/><path class="cls-4" d="M386.5,45.3V14.2h4.2c9.4,0,12,6,12,15.4,0,10.6-3.2,15.8-12.9,15.8h-3.3M382,49.3h8.4c11.4,0,17.1-6.7,17.1-19.8,0-12.7-5.5-19.4-17.3-19.4H382Zm-26.4,0h20.2v-4H360.1V10.1h-4.5ZM329.5,28V14.1h5.9c4.8,0,8,1.3,8,6.7,0,5.6-3.1,7.1-8.3,7.1h-5.6Zm11.3,3.3C344.7,30,348,27,348,21c0-8.1-5.6-10.8-12.6-10.8H325V49.4h4.5V32h6.7l7.3,17.4h4.9c.1-.1-7.6-18.2-7.6-18.1M303.2,45.7c-6.1,0-9.2-5.7-9.2-15.8s3.1-16.2,9.3-16.2,9.2,5.9,9.2,15.9c0,10.2-3.2,16.1-9.3,16.1m0,4c8.6,0,14.1-7.8,14.1-20.3,0-12.2-5.2-19.8-14.1-19.8s-14,8-14,20.1c0,12.6,5.3,20,14,20m-50.4-.4h5.1l7-33.3,7.3,33.3h5L285,10.1h-4.4l-6,32.7-6.9-32.7h-5.3l-6.9,32.7-5.9-32.7h-4.7Z"/><path class="cls-4" d="M495.4,115.4h4.5V98.8l10.8-22.6h-4.6l-8.2,18.3-8.1-18.3h-4.9l10.6,22.6v16.6m-28.6,0h4.5V80.2h9.8v-4H457v4h9.9v35.2Zm-20.6,0h4.5V76.2h-4.5Zm-19.2.4c7.3,0,11.7-4.1,11.7-10.9,0-7.7-5.3-10.1-10.3-12-5.2-2-7.7-3.3-7.7-7.5,0-4,2.6-5.6,6.4-5.6a14.59,14.59,0,0,1,7.8,2.1l1.8-3.8c-2.7-1.7-5.3-2.5-9.6-2.5-6.1,0-10.6,3.5-10.6,9.8,0,7.1,4.7,9.6,9.8,11.6,4.7,1.8,8,3.3,8,8,0,4.2-2.7,6.6-7.4,6.6a14.91,14.91,0,0,1-10.1-3.8l-2.2,3.5a18.46,18.46,0,0,0,12.4,4.5M391.8,94.1V80.2h5.8c4.7,0,7.9,1.3,7.9,6.7,0,5.6-3.1,7.1-8.2,7.1h-5.5ZM403,97.3c3.9-1.3,7.1-4.3,7.1-10.3,0-8.1-5.5-10.8-12.5-10.8H387.3v39.2h4.5V98h6.7l7.2,17.4h4.9L403,97.3m-43.7,18.1h21.4v-4H363.8V96.8h12.5v-4H363.8V80.2h16v-4H359.3Zm-22.2,0h5.2l10.9-39.2h-4.5l-8.9,33.7-8.9-33.7h-4.8Zm-21.7,0h4.5V76.2h-4.5Zm-34.4,0h4.2V91.8c0-3.7-.1-7.5-.2-10,.8,2,2,5,3.2,7.3l13,26.3h4.5V76.2h-4.2v22c0,3.5.1,8.4.2,10-.6-1.6-2.1-5.2-3.4-7.8l-12-24.2H281v39.2Zm-21.2.4c9.4,0,12.1-6.2,12.1-15.6v-24h-4.5v25.1c0,6.5-1.5,10.5-7.6,10.5s-7.5-4-7.5-10.5V76.2h-4.5v24c.1,9.4,2.9,15.6,12,15.6"/><path class="cls-4" d="M466.5,183.6c7.4,0,11.9-4.1,11.9-10.9,0-7.7-5.4-10.1-10.4-12-5.3-2-7.9-3.4-7.9-7.5s2.6-5.6,6.5-5.6a14.7,14.7,0,0,1,7.9,2.1l1.9-3.8a16.84,16.84,0,0,0-9.7-2.5c-6.1,0-10.8,3.4-10.8,9.8,0,7.1,4.7,9.6,9.9,11.6,4.8,1.8,8.2,3.3,8.2,8,0,4.2-2.7,6.6-7.5,6.6a15.49,15.49,0,0,1-10.2-3.8l-2.2,3.5a18.33,18.33,0,0,0,12.4,4.5m-21.7-3.9,1,3.4h2.7V162.7H436.6v4H444V176a9.54,9.54,0,0,1-7.2,3.4c-6.5,0-9.6-5.7-9.6-15.6s2.9-16.2,9.7-16.2a10.66,10.66,0,0,1,8.1,3.5l2.6-3.2c-2.9-3.2-6.1-4.5-10.6-4.5-9.5,0-14.6,8-14.6,20.1,0,12.3,5.3,20.1,14,20.1a11.19,11.19,0,0,0,8.4-3.9m-55.5,3.4h4.3V159.5c0-3.7-.1-7.5-.2-10,.8,2.1,2.1,5,3.2,7.3l13.2,26.3h4.6V144h-4.3v22c0,3.5.1,8.4.2,10-.6-1.6-2.2-5.2-3.5-7.8L394.6,144h-5.4v39.1Zm-14.3,0h4.6V144H375Zm-26.4-19.4V144H344v39.2h4.6V167.6c1-1,4.7-4.5,4.7-4.5l10.2,20h5.2s-12.2-23.7-12.2-23.6l11.4-15.6h-5.3Zm-39.1,19.4h4.3V159.5c0-3.7-.1-7.5-.2-10,.8,2.1,2.1,5,3.2,7.3L330,183.1h4.6V144h-4.3v22c0,3.5.1,8.4.2,10-.6-1.6-2.2-5.2-3.5-7.8L314.8,144h-5.4v39.1Zm-14.9-15.3H284.1l5.3-19.8ZM283,171.7h12.6l3,11.5h4.8l-11-39.2h-5.8l-11,39.2H280Zm-30.4-9.8V148h5.9c4.8,0,8.1,1.3,8.1,6.7,0,5.6-3.1,7.1-8.3,7.1h-5.7Zm11.4,3.2c3.9-1.3,7.2-4.3,7.2-10.3,0-8.1-5.6-10.8-12.7-10.8H248v39.2h4.6V165.8h6.8l7.3,17.4h4.9c.1-.1-7.6-18.2-7.6-18.1"/></g></g></svg>