<svg class="logo whiteLogo altLogo repaint animate" xmlns="http://www.w3.org/2000/svg"
  xmlns:xlink="http://www.w3.org/1999/xlink" width="291" height="291.94" viewBox="0 0 291 291.94">
  <defs>
    <linearGradient id="a" x1="155.99" y1="148.5" x2="61.56" y2="8.29" gradientUnits="userSpaceOnUse">
      <stop offset="0" stop-color="#fff" stop-opacity="0.35"/>
      <stop offset="1" stop-color="#fff" stop-opacity="0.75"/>
    </linearGradient>
    <linearGradient id="b" x1="46.58" y1="39.44" x2="134.41" y2="25.21" gradientUnits="userSpaceOnUse">
      <stop offset="0" stop-color="#fff" stop-opacity="0.35"/>
      <stop offset="1" stop-color="#fff" stop-opacity="0.65"/>
    </linearGradient>
    <linearGradient id="c" x1="67.43" y1="119.45" x2="174.8" y2="-46.17" gradientUnits="userSpaceOnUse">
      <stop offset="0" stop-color="#fff" stop-opacity="0.75"/>
      <stop offset="1" stop-color="#fff" stop-opacity="0.35"/>
    </linearGradient>
    <linearGradient id="d" x1="66.75" y1="76.86" x2="144.62" y2="197.15" gradientUnits="userSpaceOnUse">
      <stop offset="0" stop-color="#fff" stop-opacity="0.75"/>
      <stop offset="1" stop-color="#fff" stop-opacity="0.45"/>
    </linearGradient>
    <linearGradient id="e" x1="137.54" y1="145.62" x2="233.21" y2="2.87" gradientUnits="userSpaceOnUse">
      <stop offset="0" stop-color="#fff" stop-opacity="0.75"/>
      <stop offset="1" stop-color="#fff" stop-opacity="0.5"/>
    </linearGradient>
    <linearGradient id="f" x1="223.71" y1="36.59" x2="145.04" y2="1.89" xlink:href="#b"/>
    <linearGradient id="g" x1="224.61" y1="119.21" x2="145.54" y2="-0.21" gradientUnits="userSpaceOnUse">
      <stop offset="0" stop-color="#fff" stop-opacity="0.75"/>
      <stop offset="1" stop-color="#fff" stop-opacity="0.65"/>
    </linearGradient>
    <linearGradient id="h" x1="223.6" y1="80.27" x2="144.8" y2="198.17" gradientUnits="userSpaceOnUse">
      <stop offset="0" stop-color="#fff" stop-opacity="0.45"/>
      <stop offset="1" stop-color="#fff" stop-opacity="0.75"/>
    </linearGradient>
  </defs>
  <path d="M89,213.31h7v11.16a7.25,7.25,0,0,1,6.75-3.85c4,0,6.72,2.47,6.72,7.74v13.35h-4.21a2.79,2.79,0,0,1-2.82-2.81v-9.13c0-2.32-.9-3.45-3-3.45s-3.49,1.25-3.49,3.88v11.51H89Z" fill="#fff"/>
  <path d="M0,232.8H7.66c.2,2,1.1,3.65,4.44,3.65,2.31,0,3.61-1.14,3.61-2.79s-1.06-2.2-4.44-2.71c-7.93-.94-10.6-3.3-10.6-9,0-5.06,4.16-8.75,10.88-8.75s10.56,2.82,11.07,8.75H15.16c-.27-2-1.41-3-3.61-3s-3.26,1-3.26,2.4.86,2.27,4.36,2.75c7.11.78,10.76,2.63,10.76,8.71,0,5.15-4.09,9.35-11.31,9.35C4.24,242.18.24,238.88,0,232.8Z" fill="#fff"/>
  <path d="M25.17,231.7v-.32c0-6.6,4.91-10.76,11.27-10.76s11.19,4,11.19,10.57v.31c0,6.68-4.9,10.68-11.23,10.68S25.17,238.33,25.17,231.7Zm15.32-.12v-.32c0-3.45-1.38-5.38-4.05-5.38s-4.08,1.85-4.08,5.31v.31c0,3.53,1.37,5.46,4.08,5.46S40.49,235,40.49,231.58Z" fill="#fff"/>
  <path d="M111.9,231.7v-.32c0-6.6,4.91-10.76,11.11-10.76,5.62,0,10.45,3.22,10.45,10.6v1.85H119c.19,2.71,1.76,4.28,4.28,4.28,2.32,0,3.3-1.06,3.57-2.43h6.6c-.63,4.63-4.2,7.26-10.41,7.26C116.61,242.18,111.9,238.41,111.9,231.7Zm14.73-2.6c-.12-2.47-1.34-3.85-3.62-3.85-2.12,0-3.57,1.38-3.92,3.85Z" fill="#fff"/>
  <path d="M136.14,221.17h7v4.08a6.48,6.48,0,0,1,6.64-4.35v6.55c-4.28-.11-6.64,1.22-6.64,4.52v6.92a2.82,2.82,0,0,1-2.81,2.82h-4.22Z" fill="#fff"/>
  <path d="M151.79,221.17h7v3.3a7.25,7.25,0,0,1,6.75-3.85c4,0,6.72,2.47,6.72,7.74v13.35h-4.21a2.79,2.79,0,0,1-2.82-2.81v-9.13c0-2.32-.9-3.45-2.95-3.45s-3.49,1.25-3.49,3.88v11.51h-7Z" fill="#fff"/>
  <path d="M183.21,227.85v-.32c0-8.64,6.13-14.33,14.34-14.33,7.3,0,12.37,3.37,13,10.8H202.3c-.32-2.87-1.89-4.44-4.71-4.44-3.62,0-5.9,2.83-5.9,7.93v.32c0,5.06,2.16,7.93,6,7.93a4.84,4.84,0,0,0,5.23-4.59h8c-.55,7.26-5.81,11-13.08,11C188,242.18,183.21,236.45,183.21,227.85Z" fill="#fff"/>
  <path d="M228.45,231.7v-.32c0-6.6,4.91-10.76,11.27-10.76s11.2,4,11.2,10.57v.31c0,6.68-4.91,10.68-11.24,10.68S228.45,238.33,228.45,231.7Zm15.32-.12v-.32c0-3.45-1.38-5.38-4.05-5.38s-4.08,1.85-4.08,5.31v.31c0,3.53,1.37,5.46,4.08,5.46S243.77,235,243.77,231.58Z" fill="#fff"/>
  <path d="M252.18,235.19h6.48c.23,1.49.9,2.32,2.91,2.32,1.72,0,2.51-.67,2.51-1.69s-1-1.45-3.81-1.85c-5.5-.7-7.82-2.31-7.82-6.59,0-4.56,4.05-6.76,8.8-6.76,5.07,0,8.6,1.73,9.07,6.64H264a2.29,2.29,0,0,0-2.63-2c-1.53,0-2.32.66-2.32,1.61s.94,1.37,3.46,1.68c5.69.71,8.44,2.2,8.44,6.6,0,4.87-3.61,7.07-9.31,7.07C255.75,242.18,252.34,239.75,252.18,235.19Z" fill="#fff"/>
  <path d="M272.27,235.19h6.48c.23,1.49.9,2.32,2.9,2.32,1.73,0,2.52-.67,2.52-1.69s-1-1.45-3.81-1.85c-5.5-.7-7.82-2.31-7.82-6.59,0-4.56,4-6.76,8.8-6.76,5.06,0,8.6,1.73,9.07,6.64h-6.36a2.29,2.29,0,0,0-2.63-2c-1.54,0-2.32.66-2.32,1.61s.94,1.37,3.46,1.68c5.69.71,8.44,2.2,8.44,6.6,0,4.87-3.61,7.07-9.31,7.07C275.84,242.18,272.42,239.75,272.27,235.19Z" fill="#fff"/>
  <path d="M50.26,273.68V257h8.05v16.34c0,4,1,5.89,4.4,5.89s4.4-1.81,4.4-6V257h8.13v16.57c0,8.17-4.8,12-12.53,12C54.77,285.54,50.26,281.54,50.26,273.68Z" fill="#fff"/>
  <path d="M102.92,259a3.67,3.67,0,0,1,3.84-3.65,3.64,3.64,0,1,1,0,7.27A3.64,3.64,0,0,1,102.92,259Zm.35,5.58h7v20.54h-7Z" fill="#fff"/>
  <path d="M111.91,264.53h7.5l4.28,13.24,4.2-13.24h6.72l-7.5,20.54h-7.66Z" fill="#fff"/>
  <path d="M134.21,275.06v-.32c0-6.6,4.91-10.76,11.11-10.76,5.62,0,10.45,3.22,10.45,10.6v1.85H141.32c.19,2.71,1.77,4.28,4.28,4.28,2.32,0,3.3-1.06,3.57-2.43h6.6c-.63,4.63-4.2,7.26-10.41,7.26C138.92,285.54,134.21,281.77,134.21,275.06Zm14.73-2.6c-.12-2.47-1.34-3.84-3.62-3.84-2.12,0-3.57,1.37-3.92,3.84Z" fill="#fff"/>
  <path d="M173.23,278.55h6.48c.23,1.49.9,2.32,2.9,2.32,1.73,0,2.52-.67,2.52-1.69s-1-1.45-3.81-1.85c-5.5-.7-7.82-2.31-7.82-6.59,0-4.56,4.05-6.76,8.8-6.76,5.07,0,8.6,1.73,9.07,6.64H185a2.29,2.29,0,0,0-2.63-2c-1.53,0-2.32.66-2.32,1.61s.94,1.37,3.46,1.69c5.69.7,8.44,2.19,8.44,6.59,0,4.87-3.61,7.07-9.31,7.07C176.8,285.54,173.38,283.11,173.23,278.55Z" fill="#fff"/>
  <path d="M194.13,259a3.87,3.87,0,1,1,3.85,3.62A3.67,3.67,0,0,1,194.13,259Zm.35,5.58h7v20.54h-7Z" fill="#fff"/>
  <path d="M206,278.47v-9.15h-2.47v-4.79H206v-4.28h7v4.28h4v4.79h-4v8.49A1.88,1.88,0,0,0,215.1,280a5.3,5.3,0,0,0,2-.36V285a14.62,14.62,0,0,1-3.89.59C208.59,285.54,206,283.3,206,278.47Z" fill="#fff"/>
  <path d="M226.41,283l-8.21-18.46h7.62l4.24,11,3.93-11h6.72l-11,27.41H223Z" fill="#fff"/>
  <path d="M75.08,235.11V226H72.61v-4.79h2.47v-4.28h7v4.28h4V226h-4v8.49a1.88,1.88,0,0,0,2.08,2.16,5.21,5.21,0,0,0,2-.36v5.34a14.47,14.47,0,0,1-3.88.59C77.67,242.18,75.08,239.94,75.08,235.11Z" fill="#fff"/>
  <path d="M70.47,241.71h-7v-3.3a7.22,7.22,0,0,1-6.75,3.85c-4,0-6.72-2.47-6.72-7.73V221.17h4.22A2.79,2.79,0,0,1,57,224v9.12c0,2.32.91,3.46,3,3.46s3.49-1.26,3.49-3.89V221.17h7Z" fill="#fff"/>
  <path d="M213.64,221.17h7v4.08a6.48,6.48,0,0,1,6.64-4.35v6.55c-4.28-.11-6.64,1.22-6.64,4.52v6.92a2.84,2.84,0,0,1-2.82,2.82h-4.21Z" fill="#fff"/>
  <path d="M158.19,264.53h7v4.09a6.45,6.45,0,0,1,6.63-4.36v6.55c-4.28-.11-6.63,1.22-6.63,4.52v6.92a2.84,2.84,0,0,1-2.82,2.82h-4.21Z" fill="#fff"/>
  <path d="M79.2,264.53h7v3.3A7.25,7.25,0,0,1,93,264c4,0,6.72,2.47,6.72,7.74v13.35H95.48a2.79,2.79,0,0,1-2.81-2.81v-9.13c0-2.32-.91-3.45-3-3.45s-3.49,1.25-3.49,3.88v11.51h-7Z" fill="#fff"/>
  <path d="M68.27,15.47c-.22,3.17-.1,25.36-.1,42.83S87.38,89.62,91,92.16c8.74,6.72,31.46,19.07,47.55,33.11,7.22,6.3,7.18,11.15,7.18,11.15V94.14s.09-12.11-7.19-19.72c-5.58-5.83-38.61-22.83-53.91-36A65.41,65.41,0,0,1,68.27,15.47Z" fill="url(#a)"/>
  <path d="M68.17,57.22s2.74-9.59,16.33-18.93c5.27-3.66,12.92-8.38,24.1-14.9,14-8.16,18.16-11.19,24-17a373.26,373.26,0,0,0-64.33,9C68.06,16.78,68.17,57.22,68.17,57.22Z" fill="url(#b)"/>
  <path d="M68.18,120.47s0-29,0-46.51a24.65,24.65,0,0,1,1.28-8C74.9,52.47,88.32,43.89,90,42.69c12.16-8.85,31.85-20,41.53-26.95C142.91,6.56,145.68,0,145.68,0V42.28s.09,10.83-7.19,18.44c-5.58,5.84-35.84,18.83-54.32,37.71C76.58,106.19,68.18,120.44,68.18,120.47Z" fill="url(#c)"/>
  <path d="M68.17,75.94v43.4c0,18,10,22.74,13.55,25.36,3.55,2.42,29.7,20.1,43.05,30.57,3,2.39,10.79,9.33,12.38,11,6.72,6.93,8.53,13.59,8.53,13.59V156.27a41.76,41.76,0,0,0-7.19-19C132,128.35,98.6,107.56,84.85,97.74,71.36,88.12,68.17,75.94,68.17,75.94Z" fill="url(#d)"/>
  <path d="M223.09,15.47c.22,3.17.1,25.36.1,42.83S204,89.62,200.41,92.16c-8.74,6.72-31.47,19.07-47.55,33.11-7.22,6.3-7.18,11.15-7.18,11.15V94.14s-.09-12.11,7.19-19.72c5.57-5.83,38.6-22.83,53.9-36A65.36,65.36,0,0,0,223.09,15.47Z" fill="url(#e)"/>
  <path d="M223.19,57.22s-2.75-9.59-16.33-18.93c-5.27-3.66-12.92-8.38-24.1-14.9-14-8.16-18.16-11.19-24-17a373.41,373.41,0,0,1,64.33,9C223.29,16.78,223.19,57.22,223.19,57.22Z" fill="url(#f)"/>
  <path d="M223.17,120.47s0-29,0-46.51a24.37,24.37,0,0,0-1.29-8c-5.44-13.5-18.86-22.08-20.51-23.28-12.16-8.85-31.85-20-41.53-26.95C148.45,6.56,145.68,0,145.68,0V42.28s-.09,10.83,7.19,18.44c5.57,5.84,35.84,18.83,54.32,37.71C214.78,106.19,223.17,120.44,223.17,120.47Z" fill="url(#g)"/>
  <path d="M223.19,75.94v43.4c0,18-10,22.74-13.55,25.36-3.55,2.42-29.7,20.1-43.06,30.57-3.05,2.39-10.78,9.33-12.37,11-6.72,6.93-8.53,13.59-8.53,13.59V156.27a41.76,41.76,0,0,1,7.19-19c6.53-8.92,39.89-29.71,53.64-39.53C220,88.12,223.19,75.94,223.19,75.94Z" fill="url(#h)"/>
</svg>