<svg class="logo whiteLogo startLogo repaint animate" xmlns="http://www.w3.org/2000/svg"
  xmlns:xlink="http://www.w3.org/1999/xlink" width="291" height="291.94" viewBox="0 0 291 291.94">
  <defs>
    <linearGradient id="a" x1="77.68" y1="61.14" x2="158.46" y2="102.16" gradientUnits="userSpaceOnUse">
      <stop offset="0.01" stop-color="#ffd000"/>
      <stop offset="1" stop-color="#cad300"/>
    </linearGradient>
    <linearGradient id="b" x1="78.61" y1="73.2" x2="163.35" y2="33.94" gradientUnits="userSpaceOnUse">
      <stop offset="0" stop-color="#ffd004"/>
      <stop offset="1" stop-color="#cad300"/>
    </linearGradient>
    <linearGradient id="c" x1="85.38" y1="121.97" x2="141.72" y2="163.81" gradientUnits="userSpaceOnUse">
      <stop offset="0" stop-color="#ffd000"/>
      <stop offset="1" stop-color="#cad300"/>
    </linearGradient>
    <linearGradient id="d" x1="114.71" y1="108.38" x2="227.81" y2="55.77" gradientUnits="userSpaceOnUse">
      <stop offset="0" stop-color="#cad300"/>
      <stop offset="0.51" stop-color="#00a1b4"/>
      <stop offset="1" stop-color="#0b6e97"/>
    </linearGradient>
    <linearGradient id="e" x1="158.79" y1="31.8" x2="223.58" y2="31.8" gradientUnits="userSpaceOnUse">
      <stop offset="0.4" stop-color="#00a1b4"/>
      <stop offset="1" stop-color="#0b6e97"/>
    </linearGradient>
    <linearGradient id="f" x1="126.79" y1="18.07" x2="226.63" y2="90.83" gradientUnits="userSpaceOnUse">
      <stop offset="0.01" stop-color="#cad300"/>
      <stop offset="0.51" stop-color="#00a1b4"/>
      <stop offset="1" stop-color="#0b6e97"/>
    </linearGradient>
    <linearGradient id="g" x1="117.45" y1="162.81" x2="214.91" y2="126.5" gradientUnits="userSpaceOnUse">
      <stop offset="0.01" stop-color="#cad300"/>
      <stop offset="0.51" stop-color="#00a1b4"/>
      <stop offset="1" stop-color="#0b6e97"/>
    </linearGradient>
  </defs>
  <g style="isolation:isolate">
    <path d="M89,213.31h7v11.16a7.25,7.25,0,0,1,6.75-3.85c4,0,6.72,2.47,6.72,7.74v13.35h-4.21a2.79,2.79,0,0,1-2.82-2.81v-9.13c0-2.32-.9-3.45-3-3.45s-3.49,1.25-3.49,3.88v11.51H89Z" fill="#015881"/>
    <path d="M0,232.8H7.66c.2,2,1.1,3.65,4.44,3.65,2.31,0,3.61-1.14,3.61-2.79s-1.06-2.2-4.44-2.71c-7.93-.94-10.6-3.3-10.6-9,0-5.06,4.16-8.75,10.88-8.75s10.56,2.82,11.07,8.75H15.16c-.27-2-1.41-3-3.61-3s-3.26,1-3.26,2.4.86,2.27,4.36,2.75c7.11.78,10.76,2.63,10.76,8.71,0,5.15-4.09,9.35-11.31,9.35C4.24,242.18.24,238.88,0,232.8Z" fill="#015881"/>
    <path d="M25.17,231.7v-.32c0-6.6,4.91-10.76,11.27-10.76s11.19,4,11.19,10.57v.31c0,6.68-4.9,10.68-11.23,10.68S25.17,238.33,25.17,231.7Zm15.32-.12v-.32c0-3.45-1.38-5.38-4.05-5.38s-4.08,1.85-4.08,5.31v.31c0,3.53,1.37,5.46,4.08,5.46S40.49,235,40.49,231.58Z" fill="#015881"/>
    <path d="M111.9,231.7v-.32c0-6.6,4.91-10.76,11.11-10.76,5.62,0,10.45,3.22,10.45,10.6v1.85H119c.19,2.71,1.76,4.28,4.28,4.28,2.32,0,3.3-1.06,3.57-2.43h6.6c-.63,4.63-4.2,7.26-10.41,7.26C116.61,242.18,111.9,238.41,111.9,231.7Zm14.73-2.6c-.12-2.47-1.34-3.85-3.62-3.85-2.12,0-3.57,1.38-3.92,3.85Z" fill="#015881"/>
    <path d="M136.14,221.17h7v4.08a6.48,6.48,0,0,1,6.64-4.35v6.55c-4.28-.11-6.64,1.22-6.64,4.52v6.92a2.82,2.82,0,0,1-2.81,2.82h-4.22Z" fill="#015881"/>
    <path d="M151.79,221.17h7v3.3a7.25,7.25,0,0,1,6.75-3.85c4,0,6.72,2.47,6.72,7.74v13.35h-4.21a2.79,2.79,0,0,1-2.82-2.81v-9.13c0-2.32-.9-3.45-2.95-3.45s-3.49,1.25-3.49,3.88v11.51h-7Z" fill="#015881"/>
    <path d="M183.21,227.85v-.32c0-8.64,6.13-14.33,14.34-14.33,7.3,0,12.37,3.37,13,10.8H202.3c-.32-2.87-1.89-4.44-4.71-4.44-3.62,0-5.9,2.83-5.9,7.93v.32c0,5.06,2.16,7.93,6,7.93a4.84,4.84,0,0,0,5.23-4.59h8c-.55,7.26-5.81,11-13.08,11C188,242.18,183.21,236.45,183.21,227.85Z" fill="#015881"/>
    <path d="M228.45,231.7v-.32c0-6.6,4.91-10.76,11.27-10.76s11.2,4,11.2,10.57v.31c0,6.68-4.91,10.68-11.24,10.68S228.45,238.33,228.45,231.7Zm15.32-.12v-.32c0-3.45-1.38-5.38-4.05-5.38s-4.08,1.85-4.08,5.31v.31c0,3.53,1.37,5.46,4.08,5.46S243.77,235,243.77,231.58Z" fill="#015881"/>
    <path d="M252.18,235.19h6.48c.23,1.49.9,2.32,2.91,2.32,1.72,0,2.51-.67,2.51-1.69s-1-1.45-3.81-1.85c-5.5-.7-7.82-2.31-7.82-6.59,0-4.56,4.05-6.76,8.8-6.76,5.07,0,8.6,1.73,9.07,6.64H264a2.29,2.29,0,0,0-2.63-2c-1.53,0-2.32.66-2.32,1.61s.94,1.37,3.46,1.68c5.69.71,8.44,2.2,8.44,6.6,0,4.87-3.61,7.07-9.31,7.07C255.75,242.18,252.34,239.75,252.18,235.19Z" fill="#015881"/>
    <path d="M272.27,235.19h6.48c.23,1.49.9,2.32,2.9,2.32,1.73,0,2.52-.67,2.52-1.69s-1-1.45-3.81-1.85c-5.5-.7-7.82-2.31-7.82-6.59,0-4.56,4-6.76,8.8-6.76,5.06,0,8.6,1.73,9.07,6.64h-6.36a2.29,2.29,0,0,0-2.63-2c-1.54,0-2.32.66-2.32,1.61s.94,1.37,3.46,1.68c5.69.71,8.44,2.2,8.44,6.6,0,4.87-3.61,7.07-9.31,7.07C275.84,242.18,272.42,239.75,272.27,235.19Z" fill="#015881"/>
    <path d="M50.26,273.68V257h8.05v16.34c0,4,1,5.89,4.4,5.89s4.4-1.81,4.4-6V257h8.13v16.57c0,8.17-4.8,12-12.53,12C54.77,285.54,50.26,281.54,50.26,273.68Z" fill="#015881"/>
    <path d="M102.92,259a3.67,3.67,0,0,1,3.84-3.65,3.64,3.64,0,1,1,0,7.27A3.64,3.64,0,0,1,102.92,259Zm.35,5.58h7v20.54h-7Z" fill="#015881"/>
    <path d="M111.91,264.53h7.5l4.28,13.24,4.2-13.24h6.72l-7.5,20.54h-7.66Z" fill="#015881"/>
    <path d="M134.21,275.06v-.32c0-6.6,4.91-10.76,11.11-10.76,5.62,0,10.45,3.22,10.45,10.6v1.85H141.32c.19,2.71,1.77,4.28,4.28,4.28,2.32,0,3.3-1.06,3.57-2.43h6.6c-.63,4.63-4.2,7.26-10.41,7.26C138.92,285.54,134.21,281.77,134.21,275.06Zm14.73-2.6c-.12-2.47-1.34-3.84-3.62-3.84-2.12,0-3.57,1.37-3.92,3.84Z" fill="#015881"/>
    <path d="M173.23,278.55h6.48c.23,1.49.9,2.32,2.9,2.32,1.73,0,2.52-.67,2.52-1.69s-1-1.45-3.81-1.85c-5.5-.7-7.82-2.31-7.82-6.59,0-4.56,4.05-6.76,8.8-6.76,5.07,0,8.6,1.73,9.07,6.64H185a2.29,2.29,0,0,0-2.63-2c-1.53,0-2.32.66-2.32,1.61s.94,1.37,3.46,1.69c5.69.7,8.44,2.19,8.44,6.59,0,4.87-3.61,7.07-9.31,7.07C176.8,285.54,173.38,283.11,173.23,278.55Z" fill="#015881"/>
    <path d="M194.13,259a3.87,3.87,0,1,1,3.85,3.62A3.67,3.67,0,0,1,194.13,259Zm.35,5.58h7v20.54h-7Z" fill="#015881"/>
    <path d="M206,278.47v-9.15h-2.47v-4.79H206v-4.28h7v4.28h4v4.79h-4v8.49A1.88,1.88,0,0,0,215.1,280a5.3,5.3,0,0,0,2-.36V285a14.62,14.62,0,0,1-3.89.59C208.59,285.54,206,283.3,206,278.47Z" fill="#015881"/>
    <path d="M226.41,283l-8.21-18.46h7.62l4.24,11,3.93-11h6.72l-11,27.41H223Z" fill="#015881"/>
    <path d="M75.08,235.11V226H72.61v-4.79h2.47v-4.28h7v4.28h4V226h-4v8.49a1.88,1.88,0,0,0,2.08,2.16,5.21,5.21,0,0,0,2-.36v5.34a14.47,14.47,0,0,1-3.88.59C77.67,242.18,75.08,239.94,75.08,235.11Z" fill="#015881"/>
    <path d="M70.47,241.71h-7v-3.3a7.22,7.22,0,0,1-6.75,3.85c-4,0-6.72-2.47-6.72-7.73V221.17h4.22A2.79,2.79,0,0,1,57,224v9.12c0,2.32.91,3.46,3,3.46s3.49-1.26,3.49-3.89V221.17h7Z" fill="#015881"/>
    <path d="M213.64,221.17h7v4.08a6.48,6.48,0,0,1,6.64-4.35v6.55c-4.28-.11-6.64,1.22-6.64,4.52v6.92a2.84,2.84,0,0,1-2.82,2.82h-4.21Z" fill="#015881"/>
    <path d="M158.19,264.53h7v4.09a6.45,6.45,0,0,1,6.63-4.36v6.55c-4.28-.11-6.63,1.22-6.63,4.52v6.92a2.84,2.84,0,0,1-2.82,2.82h-4.21Z" fill="#015881"/>
    <path d="M79.2,264.53h7v3.3A7.25,7.25,0,0,1,93,264c4,0,6.72,2.47,6.72,7.74v13.35H95.48a2.79,2.79,0,0,1-2.81-2.81v-9.13c0-2.32-.91-3.45-3-3.45s-3.49,1.25-3.49,3.88v11.51h-7Z" fill="#015881"/>
    <path d="M138.41,74.37c7.32,7.61,7.23,19.71,7.23,19.71v42.25s0-4.85-7.22-11.15c-16.17-14-39-26.37-47.8-33.08-2.13,1.79-4.19,3.65-6.13,5.58,13.83,9.8,47.35,30.58,53.92,39.49a41.53,41.53,0,0,1,7.23,19v43.53s-1.82-6.66-8.57-13.58c-1.61-1.64-9.38-8.58-12.45-11C111.2,164.68,84.92,147,81.34,144.6s-13.19-7.16-13.59-24.23h0V120c0-.25,0-.49,0-.75V73.91A24.22,24.22,0,0,1,69,66.05a25.66,25.66,0,0,1-1.25-7.79V57.13c0-.73,0-10.07,0-19.73s0-17.9.08-21c0-.51,0-.84,0-.93a376.34,376.34,0,0,1,64.67-9c-5.87,5.76-10.08,8.79-24.13,16.94C97.13,29.89,89.44,34.6,84.14,38.26l0,0a.52.52,0,0,1,.11.1c1.63,1.39,3.45,2.82,5.42,4.28,12.22-8.85,32-19.95,41.75-26.93C142.85,6.56,145.64,0,145.64,0V42.25s.09,10.82-7.23,18.43c-1.59,1.65-5.18,3.89-9.93,6.66C133.25,70.32,136.87,72.77,138.41,74.37Zm85.17-37c0,9.62,0,18.92,0,19.72v1.14a25.66,25.66,0,0,1-1.25,7.79,24.22,24.22,0,0,1,1.25,7.86v45.35c0,.26,0,.5,0,.75v.37h0c-.4,17.07-10.08,21.66-13.59,24.23s-29.86,20.08-43.28,30.54c-3.07,2.39-10.84,9.33-12.45,11-6.75,6.92-8.57,13.58-8.57,13.58V156.16a41.53,41.53,0,0,1,7.23-19c6.57-8.91,40.09-29.69,53.92-39.49-1.94-1.93-4-3.79-6.14-5.58-8.78,6.71-31.62,19.06-47.79,33.08-7.26,6.3-7.22,11.15-7.22,11.15V94.08s-.09-12.1,7.23-19.71c1.54-1.6,5.16-4.05,9.93-7-4.75-2.77-8.34-5-9.93-6.66-7.32-7.61-7.23-18.43-7.23-18.43V0s2.79,6.56,14.25,15.73c9.73,7,29.53,18.08,41.75,26.93,2-1.46,3.79-2.89,5.42-4.28a.52.52,0,0,1,.11-.1l0,0c-5.3-3.66-13-8.37-24.23-14.89-14-8.15-18.25-11.18-24.12-16.94a376.34,376.34,0,0,1,64.67,9c0,.09,0,.42,0,.93C223.59,19.5,223.6,27.79,223.58,37.4Z" fill="#fff"/>
    <path d="M67.82,15.46c-.22,3.17-.09,25.34-.09,42.8S87,89.55,90.62,92.1c8.79,6.71,31.63,19.05,47.8,33.08,7.26,6.3,7.22,11.15,7.22,11.15V94.08s.09-12.1-7.23-19.71c-5.6-5.83-38.8-22.82-54.19-36A65.59,65.59,0,0,1,67.82,15.46Z" fill="url(#a)" style="mix-blend-mode:multiply"/>
    <path d="M67.73,57.18s2.75-9.58,16.41-18.92c5.3-3.66,13-8.37,24.22-14.89,14-8.15,18.26-11.18,24.13-16.94a376.34,376.34,0,0,0-64.67,9C67.62,16.76,67.73,57.18,67.73,57.18Z" fill="#ffd000" style="mix-blend-mode:multiply"/>
    <path d="M67.74,120.38s0-29,0-46.47a24.27,24.27,0,0,1,1.29-8c5.47-13.5,19-22.07,20.62-23.27,12.22-8.85,32-19.95,41.75-26.93C142.85,6.56,145.64,0,145.64,0V42.25s.09,10.82-7.23,18.43c-5.6,5.83-36,18.82-54.6,37.68C76.17,106.12,67.74,120.36,67.74,120.38Z" fill="url(#b)" style="mix-blend-mode:multiply"/>
    <path d="M67.73,75.89v43.37c0,18,10,22.72,13.61,25.34,3.58,2.42,29.86,20.08,43.28,30.54,3.07,2.39,10.84,9.33,12.45,11,6.75,6.92,8.57,13.58,8.57,13.58V156.16a41.53,41.53,0,0,0-7.23-19c-6.57-8.91-40.09-29.69-53.92-39.49C70.93,88.06,67.73,75.89,67.73,75.89Z" fill="url(#c)" style="mix-blend-mode:multiply"/>
    <path d="M223.46,15.46c.22,3.17.09,25.34.09,42.8s-19.3,31.29-22.89,33.84c-8.79,6.71-31.63,19.05-47.8,33.08-7.26,6.3-7.22,11.15-7.22,11.15V94.08s-.09-12.1,7.23-19.71c5.6-5.83,38.8-22.82,54.19-36A65.59,65.59,0,0,0,223.46,15.46Z" fill="url(#d)" style="mix-blend-mode:multiply"/>
    <path d="M223.55,57.18s-2.76-9.58-16.41-18.92c-5.3-3.66-13-8.37-24.23-14.89-14-8.15-18.25-11.18-24.12-16.94a376.34,376.34,0,0,1,64.67,9C223.66,16.76,223.55,57.18,223.55,57.18Z" fill="url(#e)" style="mix-blend-mode:multiply"/>
    <path d="M223.54,120.38s0-29,0-46.47a24.27,24.27,0,0,0-1.29-8c-5.47-13.5-19-22.07-20.62-23.27-12.22-8.85-32-19.95-41.75-26.93C148.43,6.56,145.64,0,145.64,0V42.25s-.09,10.82,7.23,18.43c5.6,5.83,36,18.82,54.6,37.68C215.1,106.12,223.54,120.36,223.54,120.38Z" fill="url(#f)" style="mix-blend-mode:multiply"/>
    <path d="M223.55,75.89v43.37c0,18-10,22.72-13.61,25.34-3.58,2.42-29.86,20.08-43.28,30.54-3.07,2.39-10.84,9.33-12.45,11-6.75,6.92-8.57,13.58-8.57,13.58V156.16a41.53,41.53,0,0,1,7.23-19c6.57-8.91,40.09-29.69,53.92-39.49C220.35,88.06,223.55,75.89,223.55,75.89Z" fill="url(#g)" style="mix-blend-mode:multiply"/>
  </g>
</svg>