<svg xmlns="http://www.w3.org/2000/svg" width="400" height="276.06" viewBox="0 0 400 276.06"><rect x="332.39" y="61.97" width="11.27" height="5.63" fill="#c28569"/><rect x="56.34" y="61.97" width="11.27" height="5.63" fill="#c28569"/><polygon points="270.42 56.34 270.42 61.97 298.59 61.97 298.59 22.54 287.32 22.54 287.32 50.7 281.69 50.7 281.69 56.34 270.42 56.34" fill="#a22633"/><polygon points="264.79 56.34 270.42 56.34 270.42 50.7 281.69 50.7 281.69 45.07 264.79 45.07 264.79 56.34" fill="#a22633"/><polygon points="129.58 50.7 129.58 56.34 135.21 56.34 135.21 45.07 118.31 45.07 118.31 50.7 129.58 50.7" fill="#a22633"/><polygon points="101.41 22.54 101.41 61.97 129.58 61.97 129.58 56.34 118.31 56.34 118.31 50.7 112.68 50.7 112.68 22.54 101.41 22.54" fill="#a22633"/><rect x="332.39" y="22.54" width="11.27" height="39.44" fill="#ead4aa"/><rect x="56.34" y="22.54" width="11.27" height="39.44" fill="#ead4aa"/><polygon points="332.39 67.61 332.39 22.54 298.59 22.54 298.59 61.97 270.42 61.97 270.42 67.61 332.39 67.61" fill="#e43b44"/><polygon points="101.41 61.97 101.41 22.54 67.61 22.54 67.61 67.61 129.58 67.61 129.58 61.97 101.41 61.97" fill="#e43b44"/><rect x="264.79" y="56.34" width="5.63" height="5.63" fill="#e43b44"/><rect x="129.58" y="56.34" width="5.63" height="5.63" fill="#e43b44"/><rect x="270.42" y="50.7" width="11.27" height="5.63" fill="#e43b44"/><rect x="118.31" y="50.7" width="11.27" height="5.63" fill="#e43b44"/><path d="M118.31,0V5.63h-5.63V50.7h5.63V45.07H281.69V50.7h5.63V5.63h-5.63V0Z" fill="#e43b44"/><rect x="383.69" y="270.42" width="11.27" height="5.63" fill="#c28569"/><rect x="5.04" y="270.42" width="11.27" height="5.63" fill="#c28569"/><polygon points="327.36 264.79 327.36 270.42 355.52 270.42 355.52 230.99 344.26 230.99 344.26 259.15 338.62 259.15 338.62 264.79 327.36 264.79" fill="#a22633"/><polygon points="321.72 253.52 321.72 264.79 327.36 264.79 327.36 259.15 338.62 259.15 338.62 253.52 321.72 253.52" fill="#a22633"/><polygon points="78.28 259.15 78.28 264.79 83.91 264.79 83.91 253.52 67.01 253.52 67.01 259.15 78.28 259.15" fill="#a22633"/><polygon points="61.38 230.99 50.11 230.99 50.11 270.42 78.28 270.42 78.28 264.79 67.01 264.79 67.01 259.15 61.38 259.15 61.38 230.99" fill="#a22633"/><rect x="383.69" y="230.99" width="11.27" height="39.44" fill="#ead4aa"/><rect x="5.04" y="230.99" width="11.27" height="39.44" fill="#ead4aa"/><polygon points="383.69 276.06 383.69 230.99 355.52 230.99 355.52 270.42 327.36 270.42 327.36 276.06 383.69 276.06" fill="#e43b44"/><polygon points="50.11 270.42 50.11 230.99 16.31 230.99 16.31 276.06 78.28 276.06 78.28 270.42 50.11 270.42" fill="#e43b44"/><rect x="321.72" y="264.79" width="5.63" height="5.63" fill="#e43b44"/><rect x="78.28" y="264.79" width="5.63" height="5.63" fill="#e43b44"/><rect x="327.35" y="259.15" width="11.27" height="5.63" fill="#e43b44"/><rect x="67.01" y="259.15" width="11.27" height="5.63" fill="#e43b44"/><path d="M338.62,253.52v5.63h5.64V214.08h-5.64v-5.63H67v5.63H61.38v45.07H67v-5.63Z" fill="#e43b44"/><polygon points="174.65 180.28 180.28 180.28 180.28 157.75 140.84 157.75 140.84 180.28 146.48 180.28 146.48 185.91 152.11 185.91 152.11 191.55 157.75 191.55 157.75 197.18 163.38 197.18 163.38 191.55 169.01 191.55 169.01 185.91 174.65 185.91 174.65 180.28" fill="#265c42"/><polygon points="219.72 157.75 219.72 180.28 225.35 180.28 225.35 185.91 230.99 185.91 230.99 191.55 236.62 191.55 236.62 197.18 242.25 197.18 242.25 191.55 247.89 191.55 247.89 185.91 253.52 185.91 253.52 180.28 259.15 180.28 259.15 157.75 219.72 157.75" fill="#265c42"/><rect x="315.49" y="191.55" width="84.51" height="5.63" fill="#a22633"/><rect y="191.55" width="84.51" height="5.63" fill="#a22633"/><polygon points="315.49 174.65 332.39 174.65 332.39 169.01 354.93 169.01 354.93 163.38 360.56 163.38 360.56 152.11 354.93 152.11 354.93 146.48 45.07 146.48 45.07 152.11 39.44 152.11 39.44 163.38 45.07 163.38 45.07 169.01 67.61 169.01 67.61 174.65 84.51 174.65 84.51 191.55 90.14 191.55 90.14 152.11 309.86 152.11 309.86 191.55 315.49 191.55 315.49 174.65" fill="#a22633"/><polygon points="281.69 197.18 281.69 191.55 287.32 191.55 287.32 185.91 292.96 185.91 292.96 180.28 298.59 180.28 298.59 157.75 259.15 157.75 259.15 180.28 264.79 180.28 264.79 185.91 270.42 185.91 270.42 191.55 276.06 191.55 276.06 197.18 281.69 197.18" fill="#e43b44"/><polygon points="202.82 197.18 202.82 191.55 208.45 191.55 208.45 185.91 214.08 185.91 214.08 180.28 219.72 180.28 219.72 157.75 180.28 157.75 180.28 180.28 185.91 180.28 185.91 185.91 191.55 185.91 191.55 191.55 197.18 191.55 197.18 197.18 202.82 197.18" fill="#e43b44"/><polygon points="123.94 197.18 123.94 191.55 129.58 191.55 129.58 185.91 135.21 185.91 135.21 180.28 140.84 180.28 140.84 157.75 101.41 157.75 101.41 180.28 107.04 180.28 107.04 185.91 112.68 185.91 112.68 191.55 118.31 191.55 118.31 197.18 123.94 197.18" fill="#e43b44"/><path d="M360.56,129.58V84.51h-5.63V78.87H45.07v5.64H39.44v45.07H0v5.63H5.63v5.64h5.64v5.63H16.9v5.63h5.64v5.64h5.63v5.63H22.54V169H16.9v5.64H11.27v5.63H5.63v5.64H0v5.63H84.51v-16.9H67.61V169H45.07v-5.63H39.44V152.11h5.63v-5.63H354.93v5.63h5.63v11.27h-5.63V169H332.39v5.64h-16.9v16.9H400v-5.63h-5.63v-5.64h-5.64v-5.63H383.1V169h-5.64v-5.63h-5.63v-5.63h5.63v-5.64h5.64v-5.63h5.63v-5.63h5.64v-5.64H400v-5.63Z" fill="#e43b44"/><path d="M106.4,106.93V97h9.95v10Zm29.85,19.9h10v10H106.4v-10h9.95v-10h10v10Zm0-29.85h-19.9V87h19.9Zm-10,19.9v-9.95h10v9.95Zm10-9.95V97h10v10Z" fill="#ead4aa"/><path d="M166.11,126.83h-10V97h10v29.85ZM186,97h-19.9V87H186Zm-9.95,29.85H186v10h-19.9v-10Zm9.95,0V97h10v29.85Z" fill="#ead4aa"/><path d="M205.91,106.93V97h10v10Zm29.86,19.9h9.95v10H205.91v-10h10v-10h9.95v10Zm0-29.85h-19.9V87h19.9Zm-10,19.9v-9.95h10v9.95Zm10-9.95V97h9.95v10Z" fill="#ead4aa"/><path d="M265.62,126.83h-10V97h10v29.85ZM285.53,97H265.62V87h19.91Zm-10,29.85h10v10H265.62v-10Zm10,0V97h10v29.85Z" fill="#ead4aa"/><rect x="39.44" y="84.51" width="5.63" height="67.61" fill="#a22633"/><rect x="354.93" y="84.51" width="5.63" height="67.61" fill="#a22633"/><rect x="354.93" y="129.58" width="11.26" height="22.53" fill="#a22633"/><rect x="33.81" y="129.58" width="11.26" height="22.53" fill="#a22633"/><path d="M153,35.17v-11H147.5V35.17H142V7.54h5.53V18.59H153v-11h5.53V35.17Z" fill="#ead4aa"/><path d="M175.13,35.17V29.65H169.6v5.52h-5.52V13.07h5.52V24.12h5.53v-11h5.53v22.1Zm0-22.1H169.6V7.54h5.53Z" fill="#ead4aa"/><path d="M186.18,35.17V7.54h16.58v5.53h5.53v5.52h-5.53V13.07h-11v5.52h11v5.53h-11V35.17Z" fill="#ead4aa"/><path d="M213.82,35.17V7.54H230.4v5.53h5.52v5.52H230.4V13.07H219.34v5.52H230.4v5.53H219.34V35.17Z" fill="#ead4aa"/><path d="M247,18.59h-5.53v-11H247V18.59Zm0,16.58V18.59h5.52V35.17Zm5.52-16.58v-11H258V18.59Z" fill="#ead4aa"/><path d="M122.63,244.86V233.8H117.1v11.06h-5.52V217.22h5.52v11.06h5.53V217.22h5.53v27.64Z" fill="#ead4aa"/><path d="M139.21,239.33h-5.53V222.75h5.53v16.58Zm11-16.58h-11v-5.53h11Zm-5.52,16.58h5.52v5.53h-11v-5.53Zm5.52,0V222.75h5.53v16.58Z" fill="#ead4aa"/><path d="M166.84,244.86h-5.53V217.22h5.53v22.11h5.53v5.53Z" fill="#ead4aa"/><path d="M189,244.86H177.89v-5.53h5.53V222.75h-5.53v-5.53h16.58v5.53H189v16.58h5.52v5.53Z" fill="#ead4aa"/><path d="M205.53,244.86H200V217.22h11.05v5.53h5.53v16.58h-5.53V222.75h-5.52v16.58h5.52v5.53Z" fill="#ead4aa"/><path d="M233.16,244.86v-5.53h-5.53v5.53h-5.52V222.75h5.52V233.8h5.53V222.75h5.53v22.11Zm0-22.11h-5.53v-5.53h5.53Z" fill="#ead4aa"/><path d="M249.74,228.28h-5.53V217.22h5.53v11.06Zm0,16.58V228.28h5.53v16.58Zm5.53-16.58V217.22h5.52v11.06Z" fill="#ead4aa"/><path d="M271.84,228.28h-5.52v-5.53h5.52Zm5.53-11.06h5.53v5.53H271.84v-5.53Zm5.53,16.58H271.84v-5.52H282.9Zm-5.53,5.53h5.53v5.53H271.84v-5.53Zm5.53,0V233.8h5.52v5.53Z" fill="#ead4aa"/></svg>