<svg xmlns="http://www.w3.org/2000/svg" xmlns:xlink="http://www.w3.org/1999/xlink" viewBox="0 0 837.1 429.94"><defs><style>.cls-1{fill:none;}.cls-2{clip-path:url(#clip-path);}.cls-3{fill:#63807d;}.cls-4{fill:#668481;}.cls-5{fill:#6a8985;}.cls-6{clip-path:url(#clip-path-2);}.cls-7{fill:#607c79;}.cls-8{fill:#5d7875;}.cls-9{fill:#5a7471;}.cls-10{fill:#56706d;}.cls-11{fill:#536c69;}.cls-12{clip-path:url(#clip-path-3);}.cls-13{clip-path:url(#clip-path-4);}.cls-14{fill:#8cb5b0;}.cls-15{clip-path:url(#clip-path-5);}.cls-16{fill:#8f9e9c;}.cls-17{fill:#93a3a1;}.cls-18{fill:#98a8a6;}.cls-19{clip-path:url(#clip-path-6);}.cls-20{fill:#788583;}.cls-21{clip-path:url(#clip-path-7);}.cls-22{fill:#8a9997;}.cls-23{fill:#859492;}.cls-24{fill:#818f8d;}.cls-25{fill:#7c8a88;}.cls-26{fill:#c9dfdb;}.cls-27{clip-path:url(#clip-path-8);}.cls-28{clip-path:url(#clip-path-9);}.cls-29{clip-path:url(#clip-path-10);}.cls-30{fill:#526a67;}.cls-31{fill:#71928f;}.cls-32{clip-path:url(#clip-path-11);}.cls-33{clip-path:url(#clip-path-12);}.cls-34{clip-path:url(#clip-path-13);}.cls-35{fill:#6f8f8c;}.cls-36{clip-path:url(#clip-path-14);}.cls-37{clip-path:url(#clip-path-15);}.cls-38{clip-path:url(#clip-path-16);}.cls-39{clip-path:url(#clip-path-17);}.cls-40{fill:#5a7572;}.cls-41{clip-path:url(#clip-path-18);}.cls-42{clip-path:url(#clip-path-19);}.cls-43{clip-path:url(#clip-path-20);}.cls-44{fill:#506865;}.cls-45{clip-path:url(#clip-path-21);}.cls-46{clip-path:url(#clip-path-22);}.cls-47{fill:#71938f;}.cls-48{clip-path:url(#clip-path-23);}.cls-49{clip-path:url(#clip-path-24);}.cls-50{clip-path:url(#clip-path-25);}.cls-51{clip-path:url(#clip-path-26);}.cls-52{clip-path:url(#clip-path-27);}.cls-53{clip-path:url(#clip-path-28);}.cls-54{clip-path:url(#clip-path-29);}.cls-55{clip-path:url(#clip-path-30);}.cls-56{clip-path:url(#clip-path-31);}.cls-57{clip-path:url(#clip-path-32);}.cls-58{clip-path:url(#clip-path-33);}.cls-59{clip-path:url(#clip-path-34);}.cls-60{clip-path:url(#clip-path-35);}.cls-61{clip-path:url(#clip-path-36);}.cls-62{clip-path:url(#clip-path-37);}.cls-63{clip-path:url(#clip-path-38);}.cls-64{clip-path:url(#clip-path-39);}.cls-65{clip-path:url(#clip-path-40);}.cls-66{clip-path:url(#clip-path-41);}.cls-67{clip-path:url(#clip-path-42);}.cls-68{clip-path:url(#clip-path-43);}.cls-69{clip-path:url(#clip-path-44);}.cls-70{clip-path:url(#clip-path-45);}.cls-71{clip-path:url(#clip-path-46);}.cls-72{clip-path:url(#clip-path-47);}.cls-73{clip-path:url(#clip-path-48);}.cls-74{clip-path:url(#clip-path-49);}.cls-75{clip-path:url(#clip-path-50);}.cls-76{clip-path:url(#clip-path-51);}.cls-77{clip-path:url(#clip-path-52);}.cls-78{clip-path:url(#clip-path-53);}.cls-79{clip-path:url(#clip-path-54);}.cls-80{clip-path:url(#clip-path-55);}.cls-81{clip-path:url(#clip-path-56);}.cls-82{clip-path:url(#clip-path-57);}.cls-83{clip-path:url(#clip-path-58);}.cls-84{clip-path:url(#clip-path-59);}.cls-85{clip-path:url(#clip-path-60);}.cls-86{clip-path:url(#clip-path-61);}.cls-87{clip-path:url(#clip-path-62);}</style><clipPath id="clip-path"><path class="cls-1" d="M233.61,351.5l-11.39-6.2a16.31,16.31,0,0,0,10.33,1.51L244,353A16.36,16.36,0,0,1,233.61,351.5Z"/></clipPath><clipPath id="clip-path-2"><path class="cls-1" d="M243,290l11.4,6.2c6.68,3.63,10,12.65,9.94,24.79,0,17.28-6.76,30.13-20.39,32.05l-11.4-6.2c13.64-1.92,20.36-14.77,20.4-32.05C253,302.62,249.68,293.6,243,290Z"/></clipPath><clipPath id="clip-path-3"><path class="cls-1" d="M262.49,267.54l11.4,6.2c-8.2-4.46-18.33-6.19-29.78-4.58l-11.4-6.2C244.17,261.35,254.3,263.08,262.49,267.54Z"/></clipPath><clipPath id="clip-path-4"><path class="cls-1" d="M214.18,373.94l-11.4-6.2c-13.71-7.46-21.93-22.65-21.89-42.86.06-32,21.09-57.6,51.82-61.92l11.4,6.2c-30.73,4.32-51.76,29.92-51.82,61.92C192.25,351.29,200.47,366.48,214.18,373.94Z"/></clipPath><clipPath id="clip-path-5"><path class="cls-1" d="M267.89,235.3l-11.4-6.2c2.47,1.34,6.34,1.4,12.65,1.18l11.4,6.2C274.23,236.7,270.36,236.64,267.89,235.3Z"/></clipPath><clipPath id="clip-path-6"><path class="cls-1" d="M246.49,236.42l11.4,6.2c3.39,1.85,4.14,6.12,5,15.39l-11.4-6.2C250.63,242.54,249.89,238.27,246.49,236.42Z"/></clipPath><clipPath id="clip-path-7"><path class="cls-1" d="M245.24,241.44l-11.4-6.2c15-3.68,16.2-5.12,17.68-21.53l11.4,6.2C261.44,236.32,260.25,237.76,245.24,241.44Z"/></clipPath><clipPath id="clip-path-8"><path class="cls-1" d="M227.32,229.07l-11.4-6.2c3.29,1.79,8.45,1.87,16.86,1.58l11.4,6.2C235.76,230.94,230.61,230.86,227.32,229.07Z"/></clipPath><clipPath id="clip-path-9"><path class="cls-1" d="M202.58,232.63l11.4,6.2c4.53,2.46,5.52,8.16,6.62,20.51l-11.39-6.19C208.1,240.79,207.11,235.09,202.58,232.63Z"/></clipPath><clipPath id="clip-path-10"><path class="cls-1" d="M197.12,237.26l-11.4-6.2c20-4.91,21.59-6.83,23.58-28.71l11.4,6.2C218.71,230.43,217.14,232.35,197.12,237.26Z"/></clipPath><clipPath id="clip-path-11"><path class="cls-1" d="M780.67,277.78l-11.4-6.2c3.39,1.84,7.89,2.42,13.34,1.66,8.44-1.19,14.08-5.25,14.09-10.85,0-2.95-1-5-3.31-6.25l11.4,6.2c2.32,1.26,3.31,3.3,3.3,6.25,0,5.6-5.64,9.66-14.08,10.85C788.56,280.2,784.06,279.62,780.67,277.78Z"/></clipPath><clipPath id="clip-path-12"><path class="cls-1" d="M813.21,230.85l11.4,6.2c-5.33-2.89-12.25-4.33-20.57-4.56l-11.39-6.2C801,226.52,807.89,228,813.21,230.85Z"/></clipPath><clipPath id="clip-path-13"><path class="cls-1" d="M792.47,209.72l11.39,6.2c3.54,1.92,5.7,5.26,6.48,9.86l-11.4-6.2C798.17,215,796,211.65,792.47,209.72Z"/></clipPath><clipPath id="clip-path-14"><path class="cls-1" d="M780.64,230.55l-11.4-6.2a10.18,10.18,0,0,0,4.81,1.06l11.39,6.2A10.23,10.23,0,0,1,780.64,230.55Z"/></clipPath><clipPath id="clip-path-15"><path class="cls-1" d="M809.65,189.83,821,196c-7.55-4.11-17.76-5.45-30.33-3.69l-11.39-6.2C791.88,184.38,802.1,185.72,809.65,189.83Z"/></clipPath><clipPath id="clip-path-16"><path class="cls-1" d="M761.67,297.3l-11.4-6.2C741.51,286.34,735.9,277.81,735,265l11.39,6.2C747.3,284,752.9,292.54,761.67,297.3Z"/></clipPath><clipPath id="clip-path-17"><path class="cls-1" d="M760.07,255.63l-11.4-6.2c-7.51-4.08-11.42-11.25-11.4-23.05,0-20.09,16.29-36.62,42.05-40.24l11.39,6.2c-25.75,3.62-42,20.15-42,40.24C748.64,244.38,752.56,251.55,760.07,255.63Z"/></clipPath><clipPath id="clip-path-18"><path class="cls-1" d="M628.25,301.1l-11.39-6.2a18.75,18.75,0,0,0,8-3l11.4,6.2A18.74,18.74,0,0,1,628.25,301.1Z"/></clipPath><clipPath id="clip-path-19"><path class="cls-1" d="M624.74,300.65l-11.39-6.2a5.57,5.57,0,0,0,3.51.45l11.39,6.2A5.58,5.58,0,0,1,624.74,300.65Z"/></clipPath><clipPath id="clip-path-20"><path class="cls-1" d="M602.46,323.75l-11.4-6.2c-4.5-2.45-7.73-6.86-9.26-13.05l11.39,6.2C594.72,316.89,598,321.3,602.46,323.75Z"/></clipPath><clipPath id="clip-path-21"><path class="cls-1" d="M563.75,308.92l-11.39-6.2a11.59,11.59,0,0,0,7.15.94c11.47-1.61,20.58-12.24,20.61-26.94l11.39,6.2c0,14.7-9.13,25.33-20.6,26.94A11.62,11.62,0,0,1,563.75,308.92Z"/></clipPath><clipPath id="clip-path-22"><path class="cls-1" d="M574.63,242.41l11.4,6.2c3.73,2,5.54,6.39,5.52,12.58L580.16,255C580.17,248.8,578.36,244.44,574.63,242.41Z"/></clipPath><clipPath id="clip-path-23"><path class="cls-1" d="M540.55,330.81l-11.4-6.2c-7-3.81-11-11-11-21.21,0-19.85,13.91-30.21,35.12-37.63l11.4,6.2c-21.22,7.42-35.08,17.78-35.12,37.63C529.57,319.77,533.54,327,540.55,330.81Z"/></clipPath><clipPath id="clip-path-24"><path class="cls-1" d="M595.93,219.29l11.39,6.2c-7.35-4-17-5-28-3.43-27.48,3.86-42.87,21.43-46.16,44.07l-11.39-6.2c3.28-22.64,18.67-40.21,46.16-44.07C578.93,214.31,588.58,215.3,595.93,219.29Z"/></clipPath><clipPath id="clip-path-25"><path class="cls-1" d="M791.91,121.22,780.52,115c5.75,3.13,14.77,3.29,29.5,2.76l11.4,6.2C806.69,124.51,797.67,124.35,791.91,121.22Z"/></clipPath><clipPath id="clip-path-26"><path class="cls-1" d="M757.17,132.11l11.4,6.2c7.92,4.31,9.66,14.27,11.59,35.9l-11.4-6.2C766.83,146.38,765.1,136.42,757.17,132.11Z"/></clipPath><clipPath id="clip-path-27"><path class="cls-1" d="M739.06,135.55l-11.4-6.2c35-8.59,37.79-11.95,41.27-50.23l11.39,6.2C776.85,123.6,774.1,127,739.06,135.55Z"/></clipPath><clipPath id="clip-path-28"><path class="cls-1" d="M630.48,180.61l-11.4-6.2c3.29,1.79,8.45,1.88,16.87,1.58l11.39,6.2C638.92,182.49,633.77,182.4,630.48,180.61Z"/></clipPath><clipPath id="clip-path-29"><path class="cls-1" d="M605.74,184.18l11.4,6.2c4.53,2.46,5.52,8.16,6.62,20.52l-11.4-6.2C611.26,192.34,610.27,186.64,605.74,184.18Z"/></clipPath><clipPath id="clip-path-30"><path class="cls-1" d="M600.28,188.8l-11.4-6.2c20-4.9,21.6-6.83,23.58-28.7l11.4,6.2C621.88,182,620.3,183.9,600.28,188.8Z"/></clipPath><clipPath id="clip-path-31"><path class="cls-1" d="M565.62,140.22,554.23,134a18.48,18.48,0,0,0,11.55,1.8l11.4,6.2A18.5,18.5,0,0,1,565.62,140.22Z"/></clipPath><clipPath id="clip-path-32"><path class="cls-1" d="M567.3,163.66l-11.4-6.2a26.88,26.88,0,0,1-12-13.66l11.4,6.2A26.87,26.87,0,0,0,567.3,163.66Z"/></clipPath><clipPath id="clip-path-33"><path class="cls-1" d="M577.77,80.77,589.16,87c6.68,3.64,9.94,12.11,9.92,23.5,0,17.05-7.19,29.49-21.9,31.56l-11.4-6.2c14.71-2.07,21.87-14.51,21.9-31.56C587.71,92.87,584.45,84.4,577.77,80.77Z"/></clipPath><clipPath id="clip-path-34"><path class="cls-1" d="M598.94,54.61l11.4,6.2c-6.13-3.33-13.61-4.66-22.41-3.42l-11.4-6.2C585.33,50,592.81,51.28,598.94,54.61Z"/></clipPath><clipPath id="clip-path-35"><path class="cls-1" d="M555.43,83.44,544,77.24c4.79-13,15.84-23.71,32.5-26l11.4,6.2C571.27,59.73,560.22,70.39,555.43,83.44Z"/></clipPath><clipPath id="clip-path-36"><path class="cls-1" d="M420.52,375.55l-11.4-6.2c4.52,2.46,11.61,2.58,23.19,2.17l11.39,6.19C432.13,378.13,425,378,420.52,375.55Z"/></clipPath><clipPath id="clip-path-37"><path class="cls-1" d="M449.9,320l-11.4-6.2c3.18,1.73,7.16,2.36,12,1.69,12.76-1.8,21.66-13.56,21.69-30.37l11.4,6.19c0,16.82-8.93,28.58-21.69,30.38C457.05,322.36,453.08,321.73,449.9,320Z"/></clipPath><clipPath id="clip-path-38"><path class="cls-1" d="M461.91,260.52l11.4,6.2c6.36,3.46,10.26,11.24,10.24,22.26l-11.4-6.2C472.17,271.76,468.27,264,461.91,260.52Z"/></clipPath><clipPath id="clip-path-39"><path class="cls-1" d="M390.78,382.77l11.39,6.2c6.23,3.39,7.59,11.22,9.11,28.21l-11.4-6.2C398.37,394,397,386.16,390.78,382.77Z"/></clipPath><clipPath id="clip-path-40"><path class="cls-1" d="M379,386.81l-11.4-6.2c27.53-6.76,29.7-9.39,32.42-39.47l11.4,6.2C408.68,377.42,406.52,380.05,379,386.81Z"/></clipPath><clipPath id="clip-path-41"><path class="cls-1" d="M369.81,399.66l-11.4-6.2c3.29,1.79,8.44,1.88,16.86,1.58l11.39,6.2C378.25,401.54,373.1,401.45,369.81,399.66Z"/></clipPath><clipPath id="clip-path-42"><path class="cls-1" d="M345.07,403.22l11.4,6.2c4.53,2.47,5.52,8.16,6.62,20.52l-11.4-6.2C350.59,411.38,349.6,405.69,345.07,403.22Z"/></clipPath><clipPath id="clip-path-43"><path class="cls-1" d="M339.6,407.85l-11.39-6.2c20-4.91,21.59-6.83,23.58-28.71l11.4,6.2C361.2,401,359.63,402.94,339.6,407.85Z"/></clipPath><clipPath id="clip-path-44"><path class="cls-1" d="M428.61,345.92l-11.39-6.2c-13.41-7.29-20.2-24.24-20.16-45.22.06-30.35,14.6-56.69,42.95-60.67,8.05-1.13,14.86.09,20.24,3l11.39,6.2c-5.37-2.93-12.18-4.15-20.23-3-28.35,4-42.9,30.32-43,60.67C408.42,321.68,415.2,338.63,428.61,345.92Z"/></clipPath><clipPath id="clip-path-45"><path class="cls-1" d="M444.23,157.28l-11.4-6.2a18.41,18.41,0,0,0,11.55,1.8l11.4,6.2A18.41,18.41,0,0,1,444.23,157.28Z"/></clipPath><clipPath id="clip-path-46"><path class="cls-1" d="M445.9,180.72l-11.39-6.2a26.83,26.83,0,0,1-12-13.66l11.4,6.2A26.85,26.85,0,0,0,445.9,180.72Z"/></clipPath><clipPath id="clip-path-47"><path class="cls-1" d="M456.37,97.83l11.4,6.2c6.68,3.63,9.94,12.1,9.92,23.49,0,17-7.2,29.49-21.91,31.56l-11.4-6.2c14.72-2.07,21.88-14.51,21.91-31.56C466.32,109.93,463.05,101.46,456.37,97.83Z"/></clipPath><clipPath id="clip-path-48"><path class="cls-1" d="M477.55,71.67l11.4,6.2c-6.13-3.33-13.61-4.66-22.41-3.42l-11.4-6.2C463.94,67,471.42,68.34,477.55,71.67Z"/></clipPath><clipPath id="clip-path-49"><path class="cls-1" d="M434,100.5l-11.4-6.2c4.78-13,15.84-23.71,32.5-26l11.4,6.2C449.88,76.79,438.82,87.45,434,100.5Z"/></clipPath><clipPath id="clip-path-50"><path class="cls-1" d="M383.72,172l-11.4-6.2a18.86,18.86,0,0,0,8-3l11.39,6.2A18.77,18.77,0,0,1,383.72,172Z"/></clipPath><clipPath id="clip-path-51"><path class="cls-1" d="M380.2,171.57l-11.39-6.2a5.64,5.64,0,0,0,3.51.45l11.4,6.2A5.69,5.69,0,0,1,380.2,171.57Z"/></clipPath><clipPath id="clip-path-52"><path class="cls-1" d="M357.92,194.66l-11.4-6.2c-4.5-2.45-7.73-6.85-9.27-13.05l11.4,6.2C350.18,187.81,353.42,192.21,357.92,194.66Z"/></clipPath><clipPath id="clip-path-53"><path class="cls-1" d="M319.22,179.83l-11.4-6.2a11.52,11.52,0,0,0,7.15,1c11.48-1.62,20.58-12.24,20.6-27l11.4,6.2c0,14.71-9.13,25.33-20.6,26.95A11.52,11.52,0,0,1,319.22,179.83Z"/></clipPath><clipPath id="clip-path-54"><path class="cls-1" d="M330.09,113.32l11.39,6.2c3.74,2,5.54,6.39,5.53,12.59l-11.4-6.2C335.63,119.71,333.82,115.35,330.09,113.32Z"/></clipPath><clipPath id="clip-path-55"><path class="cls-1" d="M296,201.73l-11.4-6.2c-7-3.81-11-11.05-11-21.22,0-19.85,13.9-30.2,35.12-37.63l11.4,6.2c-21.22,7.43-35.08,17.78-35.12,37.63C285,190.68,289,197.92,296,201.73Z"/></clipPath><clipPath id="clip-path-56"><path class="cls-1" d="M351.39,90.21l11.39,6.2c-7.34-4-17-5-28-3.44-27.47,3.86-42.87,21.44-46.15,44.08l-11.4-6.2c3.29-22.64,18.68-40.22,46.15-44.08C334.39,85.22,344,86.21,351.39,90.21Z"/></clipPath><clipPath id="clip-path-57"><path class="cls-1" d="M64.25,178.8l-11.4-6.2c5.76,3.13,14.78,3.28,29.51,2.76l11.39,6.2C79,182.08,70,181.93,64.25,178.8Z"/></clipPath><clipPath id="clip-path-58"><path class="cls-1" d="M29.51,189.68l11.39,6.2c7.93,4.32,9.66,14.28,11.6,35.91l-11.4-6.2C39.17,204,37.43,194,29.51,189.68Z"/></clipPath><clipPath id="clip-path-59"><path class="cls-1" d="M11.4,193.13,0,186.93c35-8.6,37.79-12,41.26-50.23l11.4,6.19C49.19,181.18,46.43,184.53,11.4,193.13Z"/></clipPath><clipPath id="clip-path-60"><path class="cls-1" d="M297.83,26.71l-11.4-6.2c3.29,1.79,8.44,1.88,16.86,1.58l11.4,6.2C306.27,28.59,301.11,28.5,297.83,26.71Z"/></clipPath><clipPath id="clip-path-61"><path class="cls-1" d="M273.09,30.28l11.4,6.2C289,38.94,290,44.63,291.11,57l-11.4-6.2C278.61,38.43,277.62,32.74,273.09,30.28Z"/></clipPath><clipPath id="clip-path-62"><path class="cls-1" d="M267.63,34.9l-11.4-6.2c20-4.91,21.6-6.82,23.58-28.7L291.2,6.2C289.22,28.08,287.64,30,267.63,34.9Z"/></clipPath></defs><g id="Layer_2" data-name="Layer 2"><g id="Layer_2-2" data-name="Layer 2"><g class="cls-2"><path class="cls-3" d="M233.61,351.5l-11.39-6.2.5.26,11.4,6.2-.51-.26"/><path class="cls-4" d="M234.12,351.76l-11.4-6.2a13.62,13.62,0,0,0,2.64,1l11.4,6.2a13.62,13.62,0,0,1-2.64-1"/><path class="cls-5" d="M236.76,352.73l-11.4-6.2a18.27,18.27,0,0,0,7.19.28L244,353a18.27,18.27,0,0,1-7.19-.28"/></g><g class="cls-6"><path class="cls-5" d="M244,353l-11.4-6.2A21.35,21.35,0,0,0,238.7,345l11.4,6.2A21.53,21.53,0,0,1,244,353"/><path class="cls-4" d="M250.1,351.22,238.7,345a20.65,20.65,0,0,0,2.86-1.65l11.4,6.2a20.65,20.65,0,0,1-2.86,1.65"/><path class="cls-3" d="M253,349.57l-11.4-6.2a20.77,20.77,0,0,0,2-1.59L255,348a20.64,20.64,0,0,1-2,1.59"/><path class="cls-7" d="M255,348l-11.39-6.2A21.87,21.87,0,0,0,245.3,340l11.4,6.2A22,22,0,0,1,255,348"/><path class="cls-8" d="M256.7,346.23,245.3,340a21.56,21.56,0,0,0,1.61-2l11.4,6.2a23.31,23.31,0,0,1-1.61,2"/><path class="cls-9" d="M258.31,344.19l-11.4-6.2a26.56,26.56,0,0,0,1.62-2.64l11.4,6.2a26.56,26.56,0,0,1-1.62,2.64"/><path class="cls-10" d="M259.93,341.55l-11.4-6.2a32.33,32.33,0,0,0,1.79-4l11.39,6.2a30.88,30.88,0,0,1-1.78,4"/><path class="cls-11" d="M261.71,337.55l-11.39-6.2A49.11,49.11,0,0,0,253,314.76c0-12.14-3.27-21.16-9.95-24.79l11.4,6.2c6.68,3.63,10,12.65,9.94,24.79a48.62,48.62,0,0,1-2.63,16.59"/></g><g class="cls-12"><path class="cls-5" d="M244.11,269.16l-11.4-6.2a52.11,52.11,0,0,1,20.38.9l11.4,6.2a52.11,52.11,0,0,0-20.38-.9"/><path class="cls-4" d="M264.49,270.06l-11.4-6.2a41.47,41.47,0,0,1,8,2.93l11.4,6.2a40.81,40.81,0,0,0-8-2.93"/><path class="cls-3" d="M272.45,273l-11.4-6.2q.74.36,1.44.75l11.4,6.2c-.48-.26-.95-.51-1.44-.75"/></g><g class="cls-13"><path class="cls-11" d="M214.18,373.94l-11.4-6.2c-13.71-7.46-21.93-22.65-21.89-42.86A68.14,68.14,0,0,1,185,301.59l11.4,6.2a67.67,67.67,0,0,0-4.06,23.29c0,20.21,8.18,35.4,21.89,42.86"/><path class="cls-10" d="M196.35,307.79l-11.4-6.2a63,63,0,0,1,3.62-8.06l11.4,6.2a63,63,0,0,0-3.62,8.06"/><path class="cls-9" d="M200,299.73l-11.4-6.2a60.11,60.11,0,0,1,3.76-6.1l11.39,6.2a60,60,0,0,0-3.75,6.1"/><path class="cls-8" d="M203.72,293.63l-11.39-6.2a58.81,58.81,0,0,1,4.09-5.2l11.4,6.2a58.92,58.92,0,0,0-4.1,5.2"/><path class="cls-7" d="M207.82,288.43l-11.4-6.2a59.8,59.8,0,0,1,4.69-4.73l11.4,6.2a59.8,59.8,0,0,0-4.69,4.73"/><path class="cls-3" d="M212.51,283.7l-11.4-6.2a57.78,57.78,0,0,1,5.83-4.6l11.39,6.2a57.65,57.65,0,0,0-5.82,4.6"/><path class="cls-4" d="M218.33,279.1l-11.39-6.2a58.09,58.09,0,0,1,8.26-4.76l11.4,6.2a57.65,57.65,0,0,0-8.27,4.76"/><path class="cls-5" d="M226.6,274.34l-11.4-6.2A60.81,60.81,0,0,1,232.71,263l11.4,6.2a60.81,60.81,0,0,0-17.51,5.18"/></g><path class="cls-14" d="M244.11,269.16c30.72-4.32,51.89,15.36,51.83,47.35-.06,32.24-21.31,57.64-52,61.95s-51.67-15.15-51.61-47.38C192.35,299.08,213.38,273.48,244.11,269.16ZM244,353c13.63-1.92,20.36-14.77,20.39-32.05s-6.65-28.25-20.28-26.34c-13.85,1.95-20.15,14.74-20.18,32S230.1,355,244,353"/><g class="cls-15"><polyline class="cls-16" points="267.89 235.3 256.49 229.1 256.75 229.23 268.15 235.43 267.89 235.3"/><path class="cls-17" d="M268.15,235.43l-11.4-6.2a8.7,8.7,0,0,0,1.7.61l11.4,6.2a8.7,8.7,0,0,1-1.7-.61"/><path class="cls-18" d="M269.85,236l-11.4-6.2c2.44.61,5.84.61,10.69.44l11.4,6.2c-4.85.17-8.26.17-10.69-.44"/></g><g class="cls-19"><path class="cls-20" d="M262.85,258l-11.4-6.2c-.82-9.27-1.56-13.54-5-15.39l11.4,6.2c3.39,1.85,4.14,6.12,5,15.39"/></g><g class="cls-21"><path class="cls-18" d="M245.24,241.44l-11.4-6.2a56.7,56.7,0,0,0,9.93-3.06l11.4,6.2a57,57,0,0,1-9.93,3.06"/><path class="cls-17" d="M255.17,238.38l-11.4-6.2a14,14,0,0,0,2-1.13l11.4,6.2a14.53,14.53,0,0,1-2,1.13"/><path class="cls-16" d="M257.17,237.25l-11.4-6.2a10.66,10.66,0,0,0,1-.81l11.39,6.2a12.28,12.28,0,0,1-1,.81"/><path class="cls-22" d="M258.2,236.44l-11.39-6.2a10.46,10.46,0,0,0,.74-.75l11.4,6.2c-.24.26-.48.51-.75.75"/><path class="cls-23" d="M259,235.69l-11.4-6.2a8.21,8.21,0,0,0,.63-.8l11.4,6.2a10.09,10.09,0,0,1-.63.8"/><path class="cls-24" d="M259.58,234.89l-11.4-6.2a9.41,9.41,0,0,0,.62-1l11.4,6.2a11.35,11.35,0,0,1-.62,1"/><path class="cls-25" d="M260.2,233.88l-11.4-6.2a12.43,12.43,0,0,0,.71-1.6l11.39,6.2a12.42,12.42,0,0,1-.7,1.6"/><path class="cls-20" d="M260.9,232.28l-11.39-6.2c1-2.8,1.5-6.69,2-12.37l11.4,6.2c-.51,5.68-1,9.57-2,12.37"/></g><path class="cls-26" d="M262.92,219.91c1.43,16,2.61,17.1,17.62,16.57-15,3.68-16.2,5.12-17.69,21.53-1.42-16-2.6-17.11-17.61-16.57C260.25,237.76,261.44,236.32,262.92,219.91Z"/><g class="cls-27"><path class="cls-16" d="M227.32,229.07l-11.4-6.2.35.18,11.4,6.2-.35-.18"/><path class="cls-17" d="M227.67,229.25l-11.4-6.2a12,12,0,0,0,2.26.81l11.4,6.19a11.3,11.3,0,0,1-2.26-.8"/><path class="cls-18" d="M229.93,230.05l-11.4-6.19c3.25.82,7.79.82,14.25.59l11.4,6.2c-6.47.23-11,.23-14.25-.6"/></g><g class="cls-28"><path class="cls-20" d="M220.6,259.34l-11.39-6.19c-1.11-12.36-2.1-18.06-6.63-20.52l11.4,6.2c4.53,2.46,5.52,8.16,6.62,20.51"/></g><path class="cls-26" d="M220.7,208.55c1.9,21.33,3.47,22.81,23.48,22.1-20,4.9-21.6,6.82-23.58,28.69-1.9-21.33-3.47-22.8-23.48-22.08C217.14,232.35,218.71,230.43,220.7,208.55Z"/><g class="cls-29"><path class="cls-18" d="M197.12,237.26l-11.4-6.2c5.81-1.43,10.07-2.6,13.23-4.08l11.4,6.2c-3.16,1.48-7.42,2.65-13.23,4.08"/><path class="cls-17" d="M210.35,233.18,199,227a18.14,18.14,0,0,0,2.67-1.51l11.4,6.2a18.67,18.67,0,0,1-2.67,1.51"/><path class="cls-16" d="M213,231.67l-11.4-6.2a12.68,12.68,0,0,0,1.38-1.08l11.4,6.2a15,15,0,0,1-1.38,1.08"/><path class="cls-22" d="M214.4,230.59l-11.4-6.2a10.28,10.28,0,0,0,1-1l11.4,6.2a11.56,11.56,0,0,1-1,1"/><path class="cls-23" d="M215.39,229.6,204,223.4a11.22,11.22,0,0,0,.85-1.08l11.4,6.2a13,13,0,0,1-.85,1.08"/><path class="cls-24" d="M216.24,228.52l-11.4-6.2a11.27,11.27,0,0,0,.82-1.35l11.4,6.2a12.74,12.74,0,0,1-.82,1.35"/><path class="cls-25" d="M217.06,227.17l-11.4-6.2a16.52,16.52,0,0,0,.94-2.12l11.4,6.2a16.52,16.52,0,0,1-.94,2.12"/><path class="cls-20" d="M218,225.05l-11.4-6.2c1.38-3.74,2-8.93,2.7-16.5l11.4,6.2c-.69,7.57-1.33,12.75-2.7,16.5"/></g><polygon class="cls-30" points="236.53 213.25 225.13 207.05 225.25 146.79 236.64 152.99 236.53 213.25"/><polygon class="cls-30" points="236.69 124.27 225.3 118.07 225.41 59.91 236.8 66.1 236.69 124.27"/><polygon class="cls-31" points="236.8 66.1 225.41 59.91 258.3 55.28 269.69 61.48 236.8 66.1"/><polygon class="cls-31" points="177.19 132.63 165.79 126.43 225.3 118.07 236.69 124.27 177.19 132.63"/><polygon class="cls-14" points="269.69 61.48 269.42 208.63 236.53 213.25 236.64 152.99 177.13 161.35 177.02 221.61 144.13 226.24 144.4 79.09 177.29 74.47 177.19 132.63 236.69 124.27 236.8 66.1 269.69 61.48"/><polygon class="cls-31" points="144.4 79.09 133.01 72.89 165.9 68.27 177.29 74.47 144.4 79.09"/><polygon class="cls-30" points="144.13 226.24 132.73 220.03 133.01 72.89 144.4 79.09 144.13 226.24"/><g class="cls-32"><path class="cls-3" d="M780.67,277.78l-11.4-6.2.51.26,11.4,6.2-.51-.26"/><path class="cls-4" d="M781.18,278l-11.4-6.2a15.35,15.35,0,0,0,3,1.09l11.4,6.2a15.35,15.35,0,0,1-3-1.09"/><path class="cls-5" d="M784.17,279.13l-11.4-6.2a25.38,25.38,0,0,0,9.84.31,25.68,25.68,0,0,0,7.37-2.08l11.4,6.2a25.68,25.68,0,0,1-7.37,2.08,25.37,25.37,0,0,1-9.84-.31"/><path class="cls-4" d="M801.38,277.36l-11.4-6.2a16,16,0,0,0,2.35-1.34l11.4,6.2a16.55,16.55,0,0,1-2.35,1.34"/><path class="cls-3" d="M803.73,276l-11.4-6.2a12.33,12.33,0,0,0,1.31-1L805,275a13.63,13.63,0,0,1-1.3,1"/><path class="cls-7" d="M805,275l-11.39-6.2c.31-.29.61-.59.88-.89l11.4,6.2c-.28.3-.57.6-.89.89"/><path class="cls-8" d="M805.92,274.11l-11.4-6.2a9,9,0,0,0,.67-.86l11.4,6.2a9,9,0,0,1-.67.86"/><path class="cls-9" d="M806.59,273.25l-11.4-6.2a6.78,6.78,0,0,0,.55-.88l11.4,6.2a8.07,8.07,0,0,1-.55.88"/><path class="cls-10" d="M807.14,272.37l-11.4-6.2a7.3,7.3,0,0,0,.48-1.07l11.4,6.2a10.27,10.27,0,0,1-.48,1.07"/><path class="cls-11" d="M807.62,271.3l-11.4-6.2a7.88,7.88,0,0,0,.48-2.71c0-2.95-1-5-3.31-6.25l11.4,6.2c2.32,1.26,3.31,3.3,3.3,6.25a7.88,7.88,0,0,1-.47,2.71"/></g><g class="cls-33"><path class="cls-5" d="M804,232.49l-11.39-6.2a58.6,58.6,0,0,1,13,1.66l11.4,6.2a58.61,58.61,0,0,0-13-1.66"/><path class="cls-4" d="M817,234.15l-11.4-6.2a34.17,34.17,0,0,1,6.53,2.36l11.4,6.2a34.17,34.17,0,0,0-6.53-2.36"/><path class="cls-3" d="M823.56,236.51l-11.4-6.2,1.05.54,11.4,6.2-1.05-.54"/></g><g class="cls-34"><path class="cls-11" d="M810.34,225.78l-11.4-6.2c-.77-4.6-2.93-7.93-6.47-9.86l11.39,6.2c3.54,1.92,5.7,5.26,6.48,9.86"/></g><polygon class="cls-35" points="785.44 231.61 774.05 225.41 792.65 226.29 804.04 232.49 785.44 231.61"/><g class="cls-36"><polyline class="cls-3" points="780.64 230.55 769.24 224.35 769.5 224.49 780.89 230.69 780.64 230.55"/><path class="cls-4" d="M780.89,230.69l-11.39-6.2a7.87,7.87,0,0,0,1.55.56l11.39,6.2a8.85,8.85,0,0,1-1.55-.56"/><path class="cls-5" d="M782.44,231.25l-11.39-6.2a12.52,12.52,0,0,0,3,.36l11.39,6.2a12.65,12.65,0,0,1-3-.36"/></g><g class="cls-37"><path class="cls-5" d="M790.71,192.34l-11.39-6.2c8.67-1.22,16.22-.95,22.55.67l11.39,6.2c-6.33-1.62-13.88-1.89-22.55-.67"/><path class="cls-4" d="M813.26,193l-11.39-6.2a35,35,0,0,1,6.64,2.43l11.4,6.2a35.1,35.1,0,0,0-6.65-2.43"/><path class="cls-3" d="M819.91,195.44l-11.4-6.2c.39.19.77.38,1.14.59L821,196c-.37-.21-.75-.4-1.13-.59"/></g><polygon class="cls-31" points="746.43 271.18 735.04 264.98 762.3 260.45 773.7 266.65 746.43 271.18"/><g class="cls-38"><path class="cls-11" d="M761.67,297.3l-11.4-6.2C741.51,286.34,735.9,277.81,735,265l11.39,6.2c.87,12.83,6.47,21.36,15.24,26.12"/></g><g class="cls-39"><path class="cls-11" d="M760.07,255.63l-11.4-6.2c-7.51-4.08-11.42-11.25-11.4-23.05a35.62,35.62,0,0,1,2.17-12.26l11.39,6.2a35.62,35.62,0,0,0-2.16,12.26c0,11.8,3.89,19,11.4,23"/><path class="cls-10" d="M750.83,220.32l-11.39-6.2a35.42,35.42,0,0,1,2.09-4.67l11.4,6.2a36.83,36.83,0,0,0-2.1,4.67"/><path class="cls-9" d="M752.93,215.65l-11.4-6.2a37.61,37.61,0,0,1,2.3-3.72l11.4,6.2a37.61,37.61,0,0,0-2.3,3.72"/><path class="cls-8" d="M755.23,211.93l-11.4-6.2a39.72,39.72,0,0,1,2.7-3.42l11.39,6.2a37.74,37.74,0,0,0-2.69,3.42"/><path class="cls-7" d="M757.92,208.51l-11.39-6.2a41,41,0,0,1,3.35-3.38l11.4,6.2a42.83,42.83,0,0,0-3.36,3.38"/><path class="cls-3" d="M761.28,205.13l-11.4-6.2a45.45,45.45,0,0,1,4.49-3.54l11.4,6.2a45.45,45.45,0,0,0-4.49,3.54"/><path class="cls-4" d="M765.77,201.59l-11.4-6.2a50.3,50.3,0,0,1,7.13-4.08l11.4,6.2a49.75,49.75,0,0,0-7.13,4.08"/><path class="cls-5" d="M772.9,197.51l-11.4-6.2a62.36,62.36,0,0,1,17.82-5.17l11.39,6.2a62.29,62.29,0,0,0-17.81,5.17"/></g><path class="cls-14" d="M790.71,192.34c27.26-3.83,43.47,7,45.37,28.88l-25.74,4.56c-1.5-8.9-8.2-13.1-20.1-11.43-7.79,1.1-12.56,5.28-12.57,10.88,0,4.2,3,6.35,7.77,6.38l18.6.88c21,.56,33.09,8.9,33.06,28.75,0,21.73-17.17,36.27-43.35,39.95-26,3.65-45.63-5-47.32-30l27.27-4.53c1.28,9.86,8.62,14.43,20.31,12.79,8.44-1.19,14.07-5.25,14.08-10.85,0-5.14-3-7.52-10.8-7.82l-14.71-.5c-22.06-.64-34-7.14-33.91-27.69C748.7,212.49,765,196,790.71,192.34Z"/><polygon class="cls-40" points="657.36 355.38 645.96 349.18 660.1 310.3 671.5 316.5 657.36 355.38"/><polygon class="cls-31" points="688.23 274.23 676.83 268.03 677.7 267.9 689.1 274.1 688.23 274.23"/><polygon class="cls-9" points="689.1 274.1 677.7 267.9 701.41 199.89 712.81 206.09 689.1 274.1"/><polygon class="cls-31" points="712.81 206.09 701.41 199.89 732.13 195.57 743.53 201.77 712.81 206.09"/><g class="cls-41"><path class="cls-5" d="M628.25,301.1l-11.39-6.2a18.48,18.48,0,0,0,5.51-1.6l11.39,6.2a18.32,18.32,0,0,1-5.51,1.6"/><path class="cls-4" d="M633.76,299.5l-11.39-6.2a22.74,22.74,0,0,0,2.49-1.39l11.4,6.2a22.83,22.83,0,0,1-2.5,1.39"/></g><g class="cls-42"><polyline class="cls-3" points="624.74 300.65 613.35 294.45 613.49 294.53 624.89 300.73 624.74 300.65"/><path class="cls-4" d="M624.89,300.73l-11.4-6.2a4.23,4.23,0,0,0,.8.29l11.39,6.2a4.13,4.13,0,0,1-.79-.29"/><path class="cls-5" d="M625.68,301l-11.39-6.2a6.58,6.58,0,0,0,2.57.08l11.39,6.2a6.59,6.59,0,0,1-2.57-.08"/></g><g class="cls-43"><path class="cls-11" d="M602.46,323.75l-11.4-6.2c-4.5-2.45-7.73-6.86-9.26-13.05l11.39,6.2c1.53,6.19,4.77,10.6,9.27,13.05"/></g><polygon class="cls-14" points="743.53 201.77 688.09 351.06 657.36 355.38 671.5 316.5 632.31 217.41 665.2 212.78 688.23 274.23 689.1 274.1 712.81 206.09 743.53 201.77"/><polygon class="cls-44" points="671.5 316.5 660.1 310.3 620.91 211.21 632.31 217.41 671.5 316.5"/><polygon class="cls-31" points="632.31 217.41 620.91 211.21 653.8 206.58 665.2 212.78 632.31 217.41"/><polygon class="cls-30" points="591.51 282.92 580.12 276.72 580.12 274.62 591.52 280.82 591.51 282.92"/><polygon class="cls-30" points="591.55 263.07 580.15 256.87 580.16 254.99 591.55 261.19 591.55 263.07"/><g class="cls-45"><path class="cls-3" d="M563.75,308.92l-11.39-6.2.28.15,11.4,6.2-.29-.15"/><path class="cls-4" d="M564,309.07l-11.4-6.2a9.72,9.72,0,0,0,1.67.61l11.4,6.2a9.43,9.43,0,0,1-1.67-.61"/><path class="cls-5" d="M565.71,309.68l-11.4-6.2a13.64,13.64,0,0,0,5.2.18,21.88,21.88,0,0,0,6.23-1.86l11.4,6.2a22,22,0,0,1-6.23,1.86,13.64,13.64,0,0,1-5.2-.18"/><path class="cls-4" d="M577.14,308l-11.4-6.2A21.47,21.47,0,0,0,569,300l11.4,6.2a22,22,0,0,1-3.22,1.85"/><path class="cls-3" d="M580.36,306.15,569,300a24.13,24.13,0,0,0,2.33-1.84l11.39,6.2a24,24,0,0,1-2.32,1.84"/><path class="cls-7" d="M582.68,304.31l-11.39-6.2a26.05,26.05,0,0,0,2-2l11.4,6.2a24.42,24.42,0,0,1-2,2"/><path class="cls-8" d="M584.64,302.33l-11.4-6.2a22.27,22.27,0,0,0,1.74-2.21l11.4,6.2a25.67,25.67,0,0,1-1.74,2.21"/><path class="cls-9" d="M586.38,300.12l-11.4-6.2a26.31,26.31,0,0,0,1.64-2.66l11.4,6.2a26.31,26.31,0,0,1-1.64,2.66"/><path class="cls-10" d="M588,297.46l-11.4-6.2a28.09,28.09,0,0,0,1.62-3.61l11.4,6.2a29.54,29.54,0,0,1-1.62,3.61"/><path class="cls-11" d="M589.64,293.85l-11.4-6.2a32,32,0,0,0,1.88-10.93l11.39,6.2a31.76,31.76,0,0,1-1.87,10.93"/></g><g class="cls-46"><path class="cls-11" d="M591.55,261.19,580.16,255c0-6.19-1.8-10.55-5.53-12.58l11.4,6.2c3.73,2,5.54,6.39,5.52,12.58"/></g><polygon class="cls-47" points="564.71 271.97 553.31 265.77 580.15 256.87 591.55 263.07 564.71 271.97"/><g class="cls-48"><path class="cls-11" d="M540.55,330.81l-11.4-6.2c-7-3.81-11-11-11-21.21a34.65,34.65,0,0,1,2-11.84l11.4,6.2a34.42,34.42,0,0,0-2,11.84c0,10.17,3.95,17.4,11,21.21"/><path class="cls-10" d="M531.57,297.76l-11.4-6.2a30.34,30.34,0,0,1,1.75-3.89l11.39,6.2a31.73,31.73,0,0,0-1.74,3.89"/><path class="cls-9" d="M533.31,293.87l-11.39-6.2a29.06,29.06,0,0,1,1.88-3.05l11.4,6.2a30.93,30.93,0,0,0-1.89,3.05"/><path class="cls-8" d="M535.2,290.82l-11.4-6.2a35.33,35.33,0,0,1,2.24-2.84l11.4,6.2a33.22,33.22,0,0,0-2.24,2.84"/><path class="cls-7" d="M537.44,288l-11.4-6.2a38.19,38.19,0,0,1,3-3l11.4,6.2a35,35,0,0,0-3,3"/><path class="cls-3" d="M540.42,285l-11.4-6.2a42.88,42.88,0,0,1,4.48-3.51l11.39,6.19a44.18,44.18,0,0,0-4.47,3.52"/><path class="cls-4" d="M544.89,281.47l-11.39-6.19a65,65,0,0,1,9.28-5.26l11.4,6.2a66.08,66.08,0,0,0-9.29,5.25"/><path class="cls-5" d="M554.18,276.22l-11.4-6.2c3.26-1.53,6.78-2.93,10.53-4.25l11.4,6.2a109.89,109.89,0,0,0-10.53,4.25"/></g><g class="cls-49"><path class="cls-11" d="M533.13,266.13l-11.39-6.2a56.22,56.22,0,0,1,2.85-11.41l11.39,6.2a57.58,57.58,0,0,0-2.85,11.41"/><path class="cls-10" d="M536,254.72l-11.39-6.2a50.68,50.68,0,0,1,2.95-6.59l11.4,6.2a50.14,50.14,0,0,0-3,6.59"/><path class="cls-9" d="M538.94,248.13l-11.4-6.2a48.34,48.34,0,0,1,3-4.86l11.4,6.2a46.58,46.58,0,0,0-3,4.86"/><path class="cls-8" d="M541.93,243.27l-11.4-6.2a45.81,45.81,0,0,1,3.26-4.13l11.39,6.2a47.55,47.55,0,0,0-3.25,4.13"/><path class="cls-7" d="M545.18,239.14l-11.39-6.2a45.39,45.39,0,0,1,3.78-3.82l11.39,6.2a47,47,0,0,0-3.78,3.82"/><path class="cls-3" d="M549,235.32l-11.39-6.2a47.62,47.62,0,0,1,4.83-3.81l11.4,6.2a46.66,46.66,0,0,0-4.84,3.81"/><path class="cls-4" d="M553.8,231.51l-11.4-6.2a50.71,50.71,0,0,1,7.29-4.19l11.4,6.2a50.71,50.71,0,0,0-7.29,4.19"/><path class="cls-5" d="M561.09,227.32l-11.4-6.2a63,63,0,0,1,18.21-5.26c7.71-1.09,14.75-.93,20.8.63l11.4,6.2c-6.05-1.56-13.09-1.72-20.81-.63a62.82,62.82,0,0,0-18.2,5.26"/><path class="cls-4" d="M600.1,222.69l-11.4-6.2a32.43,32.43,0,0,1,6.14,2.24l11.4,6.2a32.43,32.43,0,0,0-6.14-2.24"/><path class="cls-3" d="M606.24,224.93l-11.4-6.2c.37.18.73.37,1.09.56l11.39,6.2-1.08-.56"/></g><path class="cls-14" d="M628.25,301.1a18.74,18.74,0,0,0,8-3l0,18a35.72,35.72,0,0,1-20.35,9.63c-11.47,1.61-19.9-3.74-22.69-15-5.44,12.67-17.34,20.65-32.27,22.74-19.26,2.71-31.36-6.09-31.33-23.84,0-19.85,13.9-30.21,35.12-37.63l26.84-8.9v-1.88c0-9.8-4.52-15-14-13.66-9.1,1.27-13.65,8-15.39,16.86l-29,1.74c3.29-22.64,18.68-40.21,46.16-44.07,25.1-3.53,43.05,6.09,43,34.35l-.07,37.84C622.2,299.62,624.36,301.65,628.25,301.1Zm-36.74-18.18v-2.1l-15.81,5.72c-9.74,3.47-15.8,6.89-15.82,15.06,0,6.08,4.31,9.2,11,8.26,11.47-1.61,20.58-12.24,20.6-26.94"/><g class="cls-50"><path class="cls-16" d="M791.91,121.22,780.52,115l.6.32,11.4,6.2c-.21-.1-.41-.21-.61-.32"/><path class="cls-17" d="M792.52,121.54l-11.4-6.2a20.22,20.22,0,0,0,4,1.41l11.39,6.2a20.12,20.12,0,0,1-4-1.41"/><path class="cls-18" d="M796.47,123l-11.39-6.2c5.68,1.44,13.63,1.43,24.94,1l11.4,6.2c-11.32.4-19.26.41-24.95-1"/></g><g class="cls-51"><path class="cls-20" d="M780.16,174.21l-11.4-6.2c-1.93-21.63-3.66-31.59-11.59-35.9l11.4,6.2c7.92,4.31,9.66,14.27,11.59,35.9"/></g><path class="cls-26" d="M780.32,85.32c3.33,37.33,6.08,39.91,41.1,38.66-35,8.59-37.79,12-41.26,50.23-3.33-37.33-6.08-39.92-41.1-38.66C774.1,127,776.85,123.6,780.32,85.32Z"/><g class="cls-52"><path class="cls-18" d="M739.06,135.55l-11.4-6.2c10.18-2.49,17.63-4.54,23.17-7.14l11.39,6.2c-5.53,2.6-13,4.65-23.16,7.14"/><path class="cls-17" d="M762.22,128.41l-11.39-6.2a32.49,32.49,0,0,0,4.66-2.63l11.4,6.2a32.62,32.62,0,0,1-4.67,2.63"/><path class="cls-16" d="M766.89,125.78l-11.4-6.2a23,23,0,0,0,2.42-1.89l11.4,6.2a24.06,24.06,0,0,1-2.42,1.89"/><path class="cls-22" d="M769.31,123.89l-11.4-6.2a21.84,21.84,0,0,0,1.73-1.74l11.4,6.2a21.84,21.84,0,0,1-1.73,1.74"/><path class="cls-23" d="M771,122.15l-11.4-6.2a20.73,20.73,0,0,0,1.48-1.88l11.4,6.2a22.66,22.66,0,0,1-1.48,1.88"/><path class="cls-24" d="M772.52,120.27l-11.4-6.2a22.14,22.14,0,0,0,1.44-2.36l11.4,6.2a25.14,25.14,0,0,1-1.44,2.36"/><path class="cls-25" d="M774,117.91l-11.4-6.2a29.58,29.58,0,0,0,1.65-3.72l11.4,6.2a31.1,31.1,0,0,1-1.65,3.72"/><path class="cls-20" d="M775.61,114.19l-11.4-6.2c2.4-6.55,3.52-15.62,4.72-28.87l11.39,6.2c-1.2,13.25-2.31,22.32-4.71,28.87"/></g><polygon class="cls-40" points="658.64 191.75 647.24 185.55 661.38 146.67 672.77 152.87 658.64 191.75"/><polygon class="cls-31" points="689.51 110.59 678.12 104.39 678.98 104.27 690.38 110.47 689.51 110.59"/><polygon class="cls-9" points="690.38 110.47 678.98 104.27 702.68 36.26 714.08 42.46 690.38 110.47"/><polygon class="cls-31" points="714.08 42.46 702.68 36.26 733.41 31.94 744.81 38.14 714.08 42.46"/><g class="cls-53"><path class="cls-16" d="M630.48,180.61l-11.4-6.2a2.91,2.91,0,0,0,.35.18l11.4,6.2a2.31,2.31,0,0,1-.35-.18"/><path class="cls-17" d="M630.83,180.79l-11.4-6.2a11.53,11.53,0,0,0,2.26.81l11.4,6.2a11.3,11.3,0,0,1-2.26-.81"/><path class="cls-18" d="M633.09,181.6l-11.4-6.2c3.25.82,7.79.82,14.26.59l11.39,6.2c-6.46.23-11,.23-14.25-.59"/></g><g class="cls-54"><path class="cls-20" d="M623.76,210.9l-11.4-6.2c-1.1-12.36-2.09-18.06-6.62-20.52l11.4,6.2c4.53,2.46,5.52,8.16,6.62,20.52"/></g><g class="cls-55"><path class="cls-18" d="M600.28,188.8l-11.4-6.2c5.82-1.42,10.07-2.6,13.24-4.08l11.39,6.2c-3.16,1.48-7.42,2.66-13.23,4.08"/><path class="cls-17" d="M613.51,184.72l-11.39-6.2a18.52,18.52,0,0,0,2.66-1.5l11.4,6.2a18.65,18.65,0,0,1-2.67,1.5"/><path class="cls-16" d="M616.18,183.22l-11.4-6.2a13.87,13.87,0,0,0,1.39-1.08l11.39,6.2a12.68,12.68,0,0,1-1.38,1.08"/><path class="cls-22" d="M617.56,182.14l-11.39-6.2a11.53,11.53,0,0,0,1-1l11.4,6.2a13.33,13.33,0,0,1-1,1"/><path class="cls-23" d="M618.55,181.14l-11.4-6.2a12.46,12.46,0,0,0,.85-1.07l11.4,6.2c-.27.37-.55.73-.85,1.07"/><path class="cls-24" d="M619.4,180.07l-11.4-6.2a12.12,12.12,0,0,0,.82-1.35l11.4,6.2a13.84,13.84,0,0,1-.82,1.35"/><path class="cls-25" d="M620.22,178.72l-11.4-6.2a17.49,17.49,0,0,0,.95-2.13l11.39,6.2a16.07,16.07,0,0,1-.94,2.13"/><path class="cls-20" d="M621.16,176.59l-11.39-6.2c1.37-3.74,2-8.92,2.69-16.49l11.4,6.2c-.69,7.57-1.33,12.75-2.7,16.49"/></g><path class="cls-26" d="M623.86,160.1c1.9,21.33,3.47,22.81,23.48,22.09-20,4.91-21.59,6.83-23.58,28.71-1.9-21.34-3.47-22.81-23.48-22.1C620.3,183.9,621.88,182,623.86,160.1Z"/><polygon class="cls-44" points="672.77 152.87 661.38 146.67 622.19 47.58 633.58 53.77 672.77 152.87"/><polygon class="cls-14" points="744.81 38.14 689.37 187.43 658.64 191.75 672.77 152.87 633.58 53.77 666.47 49.15 689.51 110.59 690.38 110.47 714.08 42.46 744.81 38.14"/><polygon class="cls-31" points="633.58 53.77 622.19 47.58 655.08 42.95 666.47 49.15 633.58 53.77"/><g class="cls-56"><path class="cls-3" d="M565.62,140.22,554.23,134c.19.1.39.21.59.3l11.4,6.2c-.2-.09-.4-.2-.6-.3"/><path class="cls-4" d="M566.22,140.52l-11.4-6.2a15.93,15.93,0,0,0,3.14,1.16l11.4,6.2a15.93,15.93,0,0,1-3.14-1.16"/><path class="cls-5" d="M569.36,141.68l-11.4-6.2a20.22,20.22,0,0,0,7.82.34l11.4,6.2a20.22,20.22,0,0,1-7.82-.34"/></g><g class="cls-57"><path class="cls-11" d="M567.3,163.66l-11.4-6.2a26.88,26.88,0,0,1-12-13.66l11.4,6.2a26.87,26.87,0,0,0,12,13.66"/></g><g class="cls-58"><path class="cls-5" d="M577.18,142l-11.4-6.2a24.89,24.89,0,0,0,7.22-2.1l11.4,6.2a25,25,0,0,1-7.22,2.1"/><path class="cls-4" d="M584.4,139.92l-11.4-6.2a22.53,22.53,0,0,0,3.18-1.81l11.39,6.2a21.87,21.87,0,0,1-3.17,1.81"/><path class="cls-3" d="M587.57,138.11l-11.39-6.2a21.93,21.93,0,0,0,2.2-1.75l11.4,6.2a22.06,22.06,0,0,1-2.21,1.75"/><path class="cls-7" d="M589.78,136.36l-11.4-6.2a21,21,0,0,0,1.82-1.83l11.39,6.2a20.85,20.85,0,0,1-1.81,1.83"/><path class="cls-8" d="M591.59,134.53l-11.39-6.2a24.36,24.36,0,0,0,1.65-2.11l11.4,6.2a24.46,24.46,0,0,1-1.66,2.11"/><path class="cls-9" d="M593.25,132.42l-11.4-6.2a24.87,24.87,0,0,0,1.63-2.64l11.39,6.2a24.81,24.81,0,0,1-1.62,2.64"/><path class="cls-10" d="M594.87,129.78l-11.39-6.2a30.09,30.09,0,0,0,1.74-3.91l11.4,6.2a30.13,30.13,0,0,1-1.75,3.91"/><path class="cls-11" d="M596.62,125.87l-11.4-6.2a45.13,45.13,0,0,0,2.46-15.41c0-11.39-3.23-19.86-9.91-23.49L589.16,87c6.68,3.64,9.94,12.11,9.92,23.5a45.13,45.13,0,0,1-2.46,15.41"/></g><g class="cls-59"><path class="cls-5" d="M587.93,57.39l-11.4-6.2a39.24,39.24,0,0,1,15.37.65L603.3,58a39.25,39.25,0,0,0-15.37-.65"/><path class="cls-4" d="M603.3,58l-11.4-6.2A31.63,31.63,0,0,1,597.82,54l11.4,6.2A31.89,31.89,0,0,0,603.3,58"/><path class="cls-3" d="M609.22,60.23,597.82,54l1.12.58,11.4,6.2-1.12-.58"/></g><g class="cls-60"><polyline class="cls-11" points="555.43 83.44 544.03 77.24 544.04 77.21 555.44 83.41 555.43 83.44"/><path class="cls-10" d="M555.44,83.41,544,77.21a43.63,43.63,0,0,1,2.45-5.45l11.4,6.2a43,43,0,0,0-2.45,5.45"/><path class="cls-9" d="M557.89,78l-11.4-6.2A43.13,43.13,0,0,1,549,67.65l11.4,6.2A41.19,41.19,0,0,0,557.89,78"/><path class="cls-8" d="M560.42,73.85,549,67.65a41.47,41.47,0,0,1,2.74-3.48l11.4,6.2a41.47,41.47,0,0,0-2.74,3.48"/><path class="cls-7" d="M563.16,70.37l-11.4-6.2A38.75,38.75,0,0,1,554.89,61l11.4,6.2a38.75,38.75,0,0,0-3.13,3.15"/><path class="cls-3" d="M566.29,67.22,554.89,61A38.2,38.2,0,0,1,558.74,58l11.4,6.2a37.11,37.11,0,0,0-3.85,3"/><path class="cls-4" d="M570.14,64.17,558.74,58a39.77,39.77,0,0,1,5.56-3.19L575.7,61a39.2,39.2,0,0,0-5.56,3.19"/><path class="cls-5" d="M575.7,61l-11.4-6.2a42.52,42.52,0,0,1,12.23-3.59l11.4,6.2A42.52,42.52,0,0,0,575.7,61"/></g><polygon class="cls-30" points="524.04 210.67 512.64 204.47 512.91 62.93 524.3 69.13 524.04 210.67"/><path class="cls-14" d="M587.93,57.39c28.13-4,42.8,18.27,42.74,48.63,0,30.6-14.81,56.72-42.94,60.67-16.67,2.34-27.68-5.22-32.42-16.69l-.11,56.29L524,210.67l.26-141.54,31.16-4.38,0,18.69C560.22,70.39,571.27,59.73,587.93,57.39ZM577.18,142c14.71-2.07,21.87-14.51,21.9-31.56,0-16.82-7.08-27.26-21.8-25.19-13,1.82-21.88,13.58-21.91,30.17v2.33c0,16.82,8.82,26.07,21.81,24.25"/><polygon class="cls-31" points="524.3 69.13 512.91 62.93 544.07 58.55 555.47 64.75 524.3 69.13"/><polygon class="cls-30" points="483.45 342 472.06 335.8 472.09 317.35 483.49 323.55 483.45 342"/><polygon class="cls-30" points="483.55 291.31 472.15 285.12 472.15 282.78 483.55 288.98 483.55 291.31"/><g class="cls-61"><path class="cls-16" d="M420.52,375.55l-11.4-6.2.48.24,11.39,6.2-.47-.24"/><path class="cls-17" d="M421,375.79l-11.39-6.2a15.56,15.56,0,0,0,3.11,1.11l11.39,6.2a15.56,15.56,0,0,1-3.11-1.11"/><path class="cls-18" d="M424.1,376.9l-11.39-6.2c4.46,1.13,10.71,1.13,19.6.82l11.39,6.19c-8.89.32-15.13.32-19.6-.81"/></g><g class="cls-62"><path class="cls-3" d="M449.9,320l-11.4-6.2.54.28,11.4,6.2c-.19-.09-.37-.18-.54-.28"/><path class="cls-4" d="M450.44,320.28l-11.4-6.2a15.2,15.2,0,0,0,3,1.1l11.39,6.2a15.1,15.1,0,0,1-3-1.1"/><path class="cls-5" d="M453.42,321.38,442,315.18a21.78,21.78,0,0,0,8.43.31,23,23,0,0,0,6.53-1.93l11.4,6.2a23.06,23.06,0,0,1-6.53,1.93,21.84,21.84,0,0,1-8.44-.31"/><path class="cls-4" d="M468.39,319.76l-11.4-6.2a22.63,22.63,0,0,0,3.24-1.86l11.4,6.2a22.63,22.63,0,0,1-3.24,1.86"/><path class="cls-3" d="M471.63,317.9l-11.4-6.2a24.36,24.36,0,0,0,2.34-1.85L474,316a24.15,24.15,0,0,1-2.34,1.86"/><path class="cls-7" d="M474,316l-11.4-6.19a24.67,24.67,0,0,0,2-2l11.4,6.2a24.55,24.55,0,0,1-2,2"/><path class="cls-8" d="M475.94,314.06l-11.4-6.2a27.53,27.53,0,0,0,1.8-2.29l11.39,6.2a25.49,25.49,0,0,1-1.79,2.29"/><path class="cls-9" d="M477.73,311.77l-11.39-6.2a29.34,29.34,0,0,0,1.73-2.81l11.4,6.2a29.41,29.41,0,0,1-1.74,2.81"/><path class="cls-10" d="M479.47,309l-11.4-6.2a32.33,32.33,0,0,0,1.79-4l11.39,6.2a30.88,30.88,0,0,1-1.78,4"/><path class="cls-11" d="M481.25,305l-11.39-6.2a39.75,39.75,0,0,0,2.29-13.64l11.4,6.19a39.56,39.56,0,0,1-2.3,13.65"/></g><g class="cls-63"><path class="cls-11" d="M483.55,289l-11.4-6.2c0-11-3.88-18.8-10.24-22.26l11.4,6.2c6.36,3.46,10.26,11.24,10.24,22.26"/></g><g class="cls-64"><path class="cls-20" d="M411.28,417.18l-11.4-6.2c-1.51-17-2.87-24.82-9.1-28.21l11.39,6.2c6.23,3.39,7.59,11.22,9.11,28.21"/></g><polygon class="cls-31" points="483.73 194.86 472.33 188.66 503.7 184.25 515.1 190.45 483.73 194.86"/><polygon class="cls-30" points="483.61 256.98 472.21 250.78 472.33 188.66 483.73 194.86 483.61 256.98"/><g class="cls-65"><path class="cls-18" d="M379,386.81l-11.4-6.2c8-2,13.85-3.57,18.2-5.61l11.39,6.2c-4.35,2-10.2,3.65-18.19,5.61"/><path class="cls-17" d="M397.18,381.2,385.79,375a25.92,25.92,0,0,0,3.67-2.07l11.39,6.2a25.37,25.37,0,0,1-3.67,2.07"/><path class="cls-16" d="M400.85,379.13l-11.39-6.2a18.93,18.93,0,0,0,1.9-1.49l11.39,6.2a17.86,17.86,0,0,1-1.9,1.49"/><path class="cls-22" d="M402.75,377.64l-11.39-6.2a17.58,17.58,0,0,0,1.36-1.37l11.39,6.2a14.65,14.65,0,0,1-1.36,1.37"/><path class="cls-23" d="M404.11,376.27l-11.39-6.2a15.45,15.45,0,0,0,1.16-1.48l11.4,6.2a15.54,15.54,0,0,1-1.17,1.48"/><path class="cls-24" d="M405.28,374.79l-11.4-6.2a16.88,16.88,0,0,0,1.13-1.85l11.4,6.2a18.58,18.58,0,0,1-1.13,1.85"/><path class="cls-25" d="M406.41,372.94l-11.4-6.2a23.79,23.79,0,0,0,1.3-2.92L407.7,370a22.35,22.35,0,0,1-1.29,2.92"/><path class="cls-20" d="M407.7,370l-11.39-6.2c1.88-5.14,2.76-12.27,3.7-22.68l11.4,6.2c-1,10.41-1.82,17.54-3.71,22.68"/></g><path class="cls-26" d="M411.41,347.34c2.62,29.33,4.78,31.36,32.29,30.37-27.53,6.75-29.69,9.39-32.42,39.47-2.62-29.33-4.77-31.36-32.29-30.37C406.52,380.05,408.68,377.42,411.41,347.34Z"/><g class="cls-66"><path class="cls-16" d="M369.81,399.66l-11.4-6.2.35.18,11.39,6.2-.34-.18"/><path class="cls-17" d="M370.15,399.84l-11.39-6.2a11.3,11.3,0,0,0,2.26.81l11.39,6.2a11.76,11.76,0,0,1-2.26-.81"/><path class="cls-18" d="M372.41,400.65,361,394.45c3.25.82,7.79.82,14.25.59l11.39,6.2c-6.46.23-11,.23-14.25-.59"/></g><g class="cls-67"><path class="cls-20" d="M363.09,429.94l-11.4-6.2c-1.1-12.36-2.09-18.05-6.62-20.52l11.4,6.2c4.53,2.47,5.52,8.16,6.62,20.52"/></g><g class="cls-68"><path class="cls-18" d="M339.6,407.85l-11.39-6.2c5.81-1.42,10.07-2.6,13.23-4.08l11.4,6.2c-3.17,1.48-7.42,2.66-13.24,4.08"/><path class="cls-17" d="M352.84,403.77l-11.4-6.2a19.67,19.67,0,0,0,2.67-1.5l11.4,6.2a20.3,20.3,0,0,1-2.67,1.5"/><path class="cls-16" d="M355.51,402.27l-11.4-6.2a13.5,13.5,0,0,0,1.38-1.09l11.4,6.2a13.5,13.5,0,0,1-1.38,1.09"/><path class="cls-22" d="M356.89,401.18l-11.4-6.2a11.56,11.56,0,0,0,1-1l11.4,6.2a11.56,11.56,0,0,1-1,1"/><path class="cls-23" d="M357.88,400.19l-11.4-6.2a13,13,0,0,0,.85-1.08l11.39,6.2a11.13,11.13,0,0,1-.84,1.08"/><path class="cls-24" d="M358.72,399.11l-11.39-6.2a13.67,13.67,0,0,0,.82-1.34l11.4,6.2a13.74,13.74,0,0,1-.83,1.34"/><path class="cls-25" d="M359.55,397.77l-11.4-6.2a16.67,16.67,0,0,0,.94-2.13l11.4,6.2a16.67,16.67,0,0,1-.94,2.13"/><path class="cls-20" d="M360.49,395.64l-11.4-6.2c1.37-3.74,2-8.92,2.7-16.5l11.4,6.2c-.69,7.58-1.33,12.76-2.7,16.5"/></g><path class="cls-26" d="M363.19,379.14c1.89,21.34,3.47,22.81,23.47,22.1-20,4.9-21.59,6.82-23.57,28.7-1.91-21.34-3.47-22.81-23.49-22.09C359.63,402.94,361.2,401,363.19,379.14Z"/><g class="cls-69"><path class="cls-11" d="M428.61,345.92l-11.39-6.2c-13.41-7.29-20.2-24.24-20.16-45.22a81.58,81.58,0,0,1,4.66-27.78l11.39,6.2a81.82,81.82,0,0,0-4.65,27.78c0,21,6.74,37.93,20.15,45.22"/><path class="cls-10" d="M413.11,272.92l-11.39-6.2a62.71,62.71,0,0,1,3.6-8.08l11.4,6.2a62.76,62.76,0,0,0-3.61,8.08"/><path class="cls-9" d="M416.72,264.84l-11.4-6.2a56.42,56.42,0,0,1,3.41-5.55l11.4,6.2a55.27,55.27,0,0,0-3.41,5.55"/><path class="cls-8" d="M420.13,259.29l-11.4-6.2a50.12,50.12,0,0,1,3.48-4.42l11.39,6.2a50,50,0,0,0-3.47,4.42"/><path class="cls-7" d="M423.6,254.87l-11.39-6.2a46.76,46.76,0,0,1,3.77-3.81l11.4,6.2a45.31,45.31,0,0,0-3.78,3.81"/><path class="cls-3" d="M427.38,251.06l-11.4-6.2a43.53,43.53,0,0,1,4.48-3.54l11.39,6.2a42.36,42.36,0,0,0-4.47,3.54"/><path class="cls-4" d="M431.85,247.52l-11.39-6.2a42.61,42.61,0,0,1,6.28-3.6l11.39,6.2a43.13,43.13,0,0,0-6.28,3.6"/><path class="cls-5" d="M438.13,243.92l-11.39-6.2A46.22,46.22,0,0,1,440,233.83a36,36,0,0,1,14,.58l11.4,6.2a36,36,0,0,0-14-.58,46.29,46.29,0,0,0-13.28,3.89"/><path class="cls-4" d="M465.42,240.61l-11.4-6.2a27.93,27.93,0,0,1,5.27,1.94l11.4,6.2a28.18,28.18,0,0,0-5.27-1.94"/><path class="cls-3" d="M470.69,242.55l-11.4-6.2c.33.16.64.33,1,.5l11.39,6.2-.95-.5"/></g><path class="cls-14" d="M483.72,194.86l31.38-4.41-.27,147.14L483.45,342l0-18.45c-4.57,12.78-15.84,23.47-32.29,25.78-28.34,4-42.8-18-42.74-48.63.05-30.35,14.6-56.69,43-60.67,16.44-2.31,27.68,5.21,32.2,17Zm-.17,96.45V289c0-16.58-8.83-25.85-21.59-24.06-14.93,2.1-21.88,14.52-21.91,31.34,0,17.05,6.88,27.52,21.81,25.43,12.76-1.8,21.65-13.56,21.69-30.38"/><g class="cls-70"><path class="cls-3" d="M444.23,157.28l-11.4-6.2.6.31,11.4,6.2-.6-.31"/><path class="cls-4" d="M444.83,157.59l-11.4-6.2a16.56,16.56,0,0,0,3.14,1.15l11.39,6.2a16.47,16.47,0,0,1-3.13-1.15"/><path class="cls-5" d="M448,158.74l-11.39-6.2a20,20,0,0,0,7.81.34l11.4,6.2a20,20,0,0,1-7.82-.34"/></g><g class="cls-71"><path class="cls-11" d="M445.9,180.72l-11.39-6.2a26.83,26.83,0,0,1-12-13.66l11.4,6.2a26.85,26.85,0,0,0,12,13.66"/></g><g class="cls-72"><path class="cls-5" d="M455.78,159.08l-11.4-6.2a25.2,25.2,0,0,0,7.22-2.09L463,157a25.2,25.2,0,0,1-7.22,2.09"/><path class="cls-4" d="M463,157l-11.4-6.2a22.44,22.44,0,0,0,3.18-1.82l11.4,6.2A23.61,23.61,0,0,1,463,157"/><path class="cls-3" d="M466.18,155.17l-11.4-6.2a22.06,22.06,0,0,0,2.21-1.75l11.4,6.2a23.25,23.25,0,0,1-2.21,1.75"/><path class="cls-7" d="M468.39,153.42l-11.4-6.2a24.18,24.18,0,0,0,1.82-1.83l11.39,6.2a22.33,22.33,0,0,1-1.81,1.83"/><path class="cls-8" d="M470.2,151.59l-11.39-6.2a26.48,26.48,0,0,0,1.65-2.11l11.4,6.2a24.46,24.46,0,0,1-1.66,2.11"/><path class="cls-9" d="M471.86,149.48l-11.4-6.2a27.08,27.08,0,0,0,1.63-2.64l11.39,6.2a27,27,0,0,1-1.62,2.64"/><path class="cls-10" d="M473.48,146.84l-11.39-6.2a29.64,29.64,0,0,0,1.74-3.92l11.4,6.2a29.67,29.67,0,0,1-1.75,3.92"/><path class="cls-11" d="M475.23,142.92l-11.4-6.2a45.07,45.07,0,0,0,2.46-15.4c0-11.39-3.24-19.86-9.92-23.49l11.4,6.2c6.68,3.63,9.94,12.1,9.92,23.49a45.07,45.07,0,0,1-2.46,15.4"/></g><g class="cls-73"><path class="cls-5" d="M466.54,74.45l-11.4-6.2a39.24,39.24,0,0,1,15.37.65l11.4,6.2a39.25,39.25,0,0,0-15.37-.65"/><path class="cls-4" d="M481.91,75.1l-11.4-6.2a31.63,31.63,0,0,1,5.92,2.19l11.4,6.2a31.89,31.89,0,0,0-5.92-2.19"/><path class="cls-3" d="M487.83,77.29l-11.4-6.2,1.12.58,11.4,6.2-1.12-.58"/></g><polygon class="cls-30" points="362.27 359.03 350.87 352.83 351.07 249.13 362.46 255.33 362.27 359.03"/><polygon class="cls-14" points="362.27 359.03 362.46 255.33 393.62 250.95 393.43 354.65 362.27 359.03"/><polygon class="cls-31" points="362.46 255.33 351.07 249.13 382.23 244.75 393.62 250.95 362.46 255.33"/><g class="cls-74"><polyline class="cls-11" points="434.04 100.5 422.64 94.3 422.66 94.25 434.06 100.45 434.04 100.5"/><path class="cls-10" d="M434.06,100.45l-11.4-6.2a41.49,41.49,0,0,1,2.45-5.44L436.5,95a41.43,41.43,0,0,0-2.44,5.44"/><path class="cls-9" d="M436.5,95l-11.39-6.2a42.12,42.12,0,0,1,2.52-4.1l11.4,6.2A42.21,42.21,0,0,0,436.5,95"/><path class="cls-8" d="M439,90.91l-11.4-6.2a41.47,41.47,0,0,1,2.74-3.48l11.4,6.2A39.5,39.5,0,0,0,439,90.91"/><path class="cls-7" d="M441.77,87.43l-11.4-6.2a40.43,40.43,0,0,1,3.13-3.15l11.39,6.2a40.29,40.29,0,0,0-3.12,3.15"/><path class="cls-3" d="M444.89,84.28l-11.39-6.2a36,36,0,0,1,3.85-3l11.39,6.2a38.11,38.11,0,0,0-3.85,3"/><path class="cls-4" d="M448.74,81.24,437.35,75a38.31,38.31,0,0,1,5.56-3.2l11.4,6.2a38.42,38.42,0,0,0-5.57,3.2"/><path class="cls-5" d="M454.31,78l-11.4-6.2a42.52,42.52,0,0,1,12.23-3.59l11.4,6.2A42.52,42.52,0,0,0,454.31,78"/></g><path class="cls-14" d="M466.54,74.45c28.13-4,42.8,18.27,42.74,48.63,0,30.6-14.81,56.72-42.94,60.67-16.67,2.34-27.69-5.22-32.42-16.69l-.11,56.29-31.16,4.38.26-141.54,31.16-4.38,0,18.69C438.82,87.45,449.88,76.79,466.54,74.45Zm-10.76,84.63c14.71-2.07,21.88-14.51,21.91-31.56,0-16.82-7.09-27.26-21.81-25.19-13,1.82-21.87,13.58-21.9,30.17v2.33c0,16.82,8.81,26.08,21.8,24.25"/><polygon class="cls-31" points="402.91 86.19 391.52 79.99 422.68 75.61 434.07 81.81 402.91 86.19"/><polygon class="cls-30" points="402.65 227.73 391.25 221.53 391.52 79.99 402.91 86.19 402.65 227.73"/><polygon class="cls-14" points="342.2 214.75 341.93 361.89 310.77 366.27 311.04 219.13 342.2 214.75"/><polygon class="cls-30" points="310.77 366.27 299.37 360.07 299.65 212.93 311.04 219.13 310.77 366.27"/><polygon class="cls-31" points="311.04 219.13 299.65 212.93 330.81 208.55 342.2 214.75 311.04 219.13"/><polygon class="cls-14" points="362.33 211.92 394.14 207.45 394.08 238.28 362.27 242.75 362.33 211.92"/><polygon class="cls-31" points="362.33 211.92 350.93 205.72 382.74 201.25 394.14 207.45 362.33 211.92"/><polygon class="cls-30" points="362.27 242.75 350.87 236.55 350.93 205.72 362.33 211.92 362.27 242.75"/><g class="cls-75"><path class="cls-5" d="M383.72,172l-11.4-6.2a18.49,18.49,0,0,0,5.49-1.6l11.39,6.2a18.42,18.42,0,0,1-5.48,1.6"/><path class="cls-4" d="M389.2,170.42l-11.39-6.2a22.45,22.45,0,0,0,2.52-1.4l11.39,6.2a20.82,20.82,0,0,1-2.52,1.4"/></g><g class="cls-76"><polyline class="cls-3" points="380.2 171.57 368.81 165.37 368.95 165.44 380.35 171.64 380.2 171.57"/><path class="cls-4" d="M380.35,171.64l-11.4-6.2a4.25,4.25,0,0,0,.8.3l11.4,6.2a4,4,0,0,1-.8-.3"/><path class="cls-5" d="M381.15,171.94l-11.4-6.2a6.79,6.79,0,0,0,2.57.08l11.4,6.2a6.77,6.77,0,0,1-2.57-.08"/></g><g class="cls-77"><path class="cls-11" d="M357.92,194.66l-11.4-6.2c-4.5-2.45-7.73-6.85-9.27-13.05l11.4,6.2c1.53,6.2,4.77,10.6,9.27,13"/></g><polygon class="cls-30" points="346.97 153.83 335.57 147.63 335.58 145.53 346.98 151.72 346.97 153.83"/><polygon class="cls-30" points="347.01 133.97 335.61 127.78 335.61 125.91 347.01 132.11 347.01 133.97"/><g class="cls-78"><path class="cls-3" d="M319.22,179.83l-11.4-6.2.29.15L319.5,180l-.28-.15"/><path class="cls-4" d="M319.5,180l-11.39-6.2a8.46,8.46,0,0,0,1.67.61l11.4,6.2a8.8,8.8,0,0,1-1.68-.61"/><path class="cls-5" d="M321.18,180.59l-11.4-6.2a13.39,13.39,0,0,0,5.19.19,21.88,21.88,0,0,0,6.23-1.86l11.4,6.2a21.88,21.88,0,0,1-6.23,1.86,13.38,13.38,0,0,1-5.19-.19"/><path class="cls-4" d="M332.6,178.92l-11.4-6.2a23.35,23.35,0,0,0,3.22-1.85l11.4,6.19a23,23,0,0,1-3.22,1.86"/><path class="cls-3" d="M335.82,177.06l-11.4-6.19a24,24,0,0,0,2.32-1.84l11.4,6.2a23.58,23.58,0,0,1-2.32,1.83"/><path class="cls-7" d="M338.14,175.23l-11.4-6.2a24.29,24.29,0,0,0,2-2l11.39,6.2a25.91,25.91,0,0,1-1.95,2"/><path class="cls-8" d="M340.09,173.26l-11.39-6.2c.61-.7,1.19-1.44,1.74-2.21L341.83,171a23.63,23.63,0,0,1-1.74,2.22"/><path class="cls-9" d="M341.83,171l-11.39-6.19a27.63,27.63,0,0,0,1.64-2.67l11.39,6.2a26.31,26.31,0,0,1-1.64,2.66"/><path class="cls-10" d="M343.47,168.38l-11.39-6.2a28.05,28.05,0,0,0,1.61-3.61l11.4,6.2a26.78,26.78,0,0,1-1.62,3.61"/><path class="cls-11" d="M345.09,164.77l-11.4-6.2a31.54,31.54,0,0,0,1.88-10.94l11.4,6.2a32.06,32.06,0,0,1-1.88,10.94"/></g><g class="cls-79"><path class="cls-11" d="M347,132.11l-11.4-6.2c0-6.2-1.79-10.56-5.52-12.59l11.39,6.2c3.74,2,5.54,6.39,5.53,12.59"/></g><polygon class="cls-47" points="320.17 142.88 308.77 136.68 335.61 127.78 347.01 133.97 320.17 142.88"/><g class="cls-80"><path class="cls-11" d="M296,201.73l-11.4-6.2c-7-3.81-11-11.05-11-21.22a34.42,34.42,0,0,1,2-11.84l11.4,6.2a34.42,34.42,0,0,0-2,11.84c0,10.17,3.95,17.41,11,21.22"/><path class="cls-10" d="M287,168.67l-11.4-6.2a30.15,30.15,0,0,1,1.74-3.88l11.4,6.2a28.84,28.84,0,0,0-1.74,3.88"/><path class="cls-9" d="M288.77,164.79l-11.4-6.2a29.8,29.8,0,0,1,1.89-3.05l11.39,6.2a29.72,29.72,0,0,0-1.88,3"/><path class="cls-8" d="M290.65,161.74l-11.39-6.2a30,30,0,0,1,2.24-2.84l11.39,6.2a33.64,33.64,0,0,0-2.24,2.84"/><path class="cls-7" d="M292.89,158.9l-11.39-6.2a36.64,36.64,0,0,1,3-3l11.39,6.2a38.31,38.31,0,0,0-3,3"/><path class="cls-3" d="M295.87,155.9l-11.39-6.2a45.58,45.58,0,0,1,4.47-3.51l11.4,6.2a45.72,45.72,0,0,0-4.48,3.51"/><path class="cls-4" d="M300.35,152.39l-11.4-6.2a65.25,65.25,0,0,1,9.3-5.26l11.4,6.2a64.7,64.7,0,0,0-9.3,5.26"/><path class="cls-5" d="M309.65,147.13l-11.4-6.2a109.67,109.67,0,0,1,10.52-4.25l11.4,6.2a109.67,109.67,0,0,0-10.52,4.25"/></g><g class="cls-81"><path class="cls-11" d="M288.6,137.05l-11.4-6.2a57.5,57.5,0,0,1,2.85-11.42l11.4,6.2a56.15,56.15,0,0,0-2.85,11.42"/><path class="cls-10" d="M291.45,125.63l-11.4-6.2a52.07,52.07,0,0,1,2.95-6.59l11.4,6.2a50.68,50.68,0,0,0-2.95,6.59"/><path class="cls-9" d="M294.4,119l-11.4-6.2a50.24,50.24,0,0,1,3-4.86l11.4,6.2a48.34,48.34,0,0,0-3,4.86"/><path class="cls-8" d="M297.39,114.18,286,108a49.68,49.68,0,0,1,3.26-4.13l11.4,6.2a47.67,47.67,0,0,0-3.26,4.13"/><path class="cls-7" d="M300.65,110.05l-11.4-6.2A48.62,48.62,0,0,1,293,100l11.4,6.2a48.62,48.62,0,0,0-3.78,3.82"/><path class="cls-3" d="M304.43,106.23,293,100a48,48,0,0,1,4.84-3.81l11.39,6.2a49.07,49.07,0,0,0-4.83,3.81"/><path class="cls-4" d="M309.26,102.42l-11.39-6.2A51.62,51.62,0,0,1,305.16,92l11.39,6.2a51.62,51.62,0,0,0-7.29,4.18"/><path class="cls-5" d="M316.55,98.24,305.16,92a63.16,63.16,0,0,1,18.19-5.27c7.73-1.08,14.77-.92,20.82.64l11.4,6.2c-6.06-1.56-13.1-1.72-20.82-.64a63.23,63.23,0,0,0-18.2,5.27"/><path class="cls-4" d="M355.57,93.61l-11.4-6.2a31.42,31.42,0,0,1,6.13,2.24l11.4,6.2a31.9,31.9,0,0,0-6.13-2.24"/><path class="cls-3" d="M361.7,95.85l-11.4-6.2c.37.18.73.36,1.09.56l11.39,6.2c-.35-.2-.71-.38-1.08-.56"/></g><path class="cls-14" d="M383.72,172a18.77,18.77,0,0,0,8-3l0,18a35.75,35.75,0,0,1-20.35,9.63c-11.47,1.61-19.89-3.74-22.69-15-5.43,12.68-17.35,20.65-32.28,22.75-19.25,2.71-31.35-6.1-31.32-23.85,0-19.85,13.9-30.2,35.12-37.63L347,134v-1.87c0-9.82-4.51-15-14-13.67-9.08,1.27-13.63,8-15.39,16.87l-29,1.74c3.28-22.64,18.68-40.22,46.15-44.08,25.11-3.53,43,6.09,43,34.35l-.07,37.84C377.66,170.53,379.82,172.56,383.72,172ZM347,153.83v-2.1l-15.8,5.72c-9.74,3.47-15.8,6.89-15.82,15.06,0,6.07,4.32,9.21,11,8.27,11.47-1.62,20.57-12.24,20.6-26.95"/><polygon class="cls-30" points="143.5 389.77 132.11 383.57 132.22 323.32 143.62 329.52 143.5 389.77"/><polygon class="cls-30" points="143.67 300.79 132.27 294.59 132.38 236.44 143.78 242.64 143.67 300.79"/><polygon class="cls-31" points="143.78 242.64 132.38 236.44 165.27 231.82 176.67 238.01 143.78 242.64"/><polygon class="cls-31" points="84.16 309.15 72.76 302.95 132.27 294.59 143.67 300.79 84.16 309.15"/><polygon class="cls-14" points="176.67 238.01 176.4 385.15 143.5 389.77 143.62 329.52 84.11 337.88 84 398.14 51.1 402.76 51.38 255.62 84.27 251 84.16 309.15 143.67 300.79 143.78 242.64 176.67 238.01"/><polygon class="cls-30" points="51.1 402.76 39.71 396.56 39.98 249.42 51.38 255.62 51.1 402.76"/><polygon class="cls-31" points="51.38 255.62 39.98 249.42 72.87 244.8 84.27 251 51.38 255.62"/><g class="cls-82"><path class="cls-16" d="M64.25,178.8l-11.4-6.2.61.31,11.4,6.2-.61-.31"/><path class="cls-17" d="M64.86,179.11l-11.4-6.2a20.12,20.12,0,0,0,3.95,1.42l11.4,6.19a19.49,19.49,0,0,1-4-1.41"/><path class="cls-18" d="M68.81,180.52l-11.4-6.19c5.69,1.43,13.63,1.43,25,1l11.39,6.2c-11.31.4-19.26.4-24.94-1"/></g><g class="cls-83"><path class="cls-20" d="M52.5,231.79l-11.4-6.2C39.17,204,37.43,194,29.51,189.68l11.39,6.2c7.93,4.32,9.66,14.28,11.6,35.91"/></g><path class="cls-26" d="M52.66,142.89c3.33,37.34,6.08,39.91,41.09,38.67-35,8.58-37.79,11.95-41.25,50.23-3.34-37.33-6.08-39.92-41.1-38.66C46.43,184.53,49.19,181.18,52.66,142.89Z"/><g class="cls-84"><path class="cls-18" d="M11.4,193.13,0,186.93c10.17-2.49,17.62-4.55,23.16-7.14l11.4,6.2c-5.54,2.59-13,4.64-23.16,7.14"/><path class="cls-17" d="M34.56,186l-11.4-6.2a33.61,33.61,0,0,0,4.67-2.63l11.39,6.2A33.48,33.48,0,0,1,34.56,186"/><path class="cls-16" d="M39.22,183.36l-11.39-6.2a24.45,24.45,0,0,0,2.42-1.9l11.39,6.2a23.34,23.34,0,0,1-2.42,1.9"/><path class="cls-22" d="M41.64,181.46l-11.39-6.2A21.84,21.84,0,0,0,32,173.52l11.39,6.2a20.28,20.28,0,0,1-1.73,1.74"/><path class="cls-23" d="M43.37,179.72,32,173.52a21.12,21.12,0,0,0,1.48-1.88l11.39,6.2a19.43,19.43,0,0,1-1.48,1.88"/><path class="cls-24" d="M44.85,177.84l-11.39-6.2a21.18,21.18,0,0,0,1.44-2.36l11.4,6.2a22.85,22.85,0,0,1-1.45,2.36"/><path class="cls-25" d="M46.3,175.48l-11.4-6.2a30.41,30.41,0,0,0,1.65-3.72l11.39,6.2a28.94,28.94,0,0,1-1.64,3.72"/><path class="cls-20" d="M47.94,171.76l-11.39-6.2C39,159,40.06,150,41.26,136.7l11.4,6.19c-1.2,13.26-2.32,22.33-4.72,28.87"/></g><g class="cls-85"><path class="cls-16" d="M297.83,26.71l-11.4-6.2a2.31,2.31,0,0,0,.35.18l11.39,6.2a2.21,2.21,0,0,1-.34-.18"/><path class="cls-17" d="M298.17,26.89l-11.39-6.2a11.43,11.43,0,0,0,2.25.81l11.4,6.2a11.76,11.76,0,0,1-2.26-.81"/><path class="cls-18" d="M300.43,27.7,289,21.5c3.25.82,7.79.82,14.26.59l11.4,6.2c-6.47.23-11,.23-14.26-.59"/></g><g class="cls-86"><path class="cls-20" d="M291.11,57l-11.4-6.2c-1.1-12.36-2.09-18-6.62-20.51l11.4,6.2C289,38.94,290,44.63,291.11,57"/></g><g class="cls-87"><path class="cls-18" d="M267.63,34.9l-11.4-6.2c5.82-1.43,10.08-2.6,13.24-4.08l11.4,6.2c-3.17,1.48-7.43,2.65-13.24,4.08"/><path class="cls-17" d="M280.87,30.82l-11.4-6.2a19.53,19.53,0,0,0,2.66-1.5l11.4,6.2a19.53,19.53,0,0,1-2.66,1.5"/><path class="cls-16" d="M283.53,29.32l-11.4-6.2A12.68,12.68,0,0,0,273.51,22l11.4,6.2a13.73,13.73,0,0,1-1.38,1.08"/><path class="cls-22" d="M284.91,28.24,273.51,22a11.66,11.66,0,0,0,1-1l11.4,6.2a13.33,13.33,0,0,1-1,1"/><path class="cls-23" d="M285.9,27.24,274.5,21a12.46,12.46,0,0,0,.85-1.07l11.4,6.2c-.27.37-.55.73-.85,1.07"/><path class="cls-24" d="M286.75,26.17,275.35,20a13.84,13.84,0,0,0,.82-1.35l11.4,6.2a13.84,13.84,0,0,1-.82,1.35"/><path class="cls-25" d="M287.57,24.82l-11.4-6.2a16.52,16.52,0,0,0,.94-2.12l11.4,6.2a16.52,16.52,0,0,1-.94,2.12"/><path class="cls-20" d="M288.51,22.7l-11.4-6.2c1.37-3.75,2-8.93,2.7-16.5L291.2,6.2c-.68,7.57-1.32,12.75-2.69,16.5"/></g><path class="cls-26" d="M291.2,6.2c1.91,21.33,3.48,22.81,23.49,22.09-20,4.91-21.6,6.82-23.58,28.7-1.9-21.33-3.48-22.8-23.48-22.09C287.64,30,289.22,28.08,291.2,6.2Z"/></g></g></svg>